{"glyphs":{"0":{"ha":814,"x_min":79,"x_max":735,"o":"m 407 -14 q 79 475 79 -14 q 407 977 79 977 q 735 475 735 977 q 407 -14 735 -14 m 407 373 q 333 401 361 373 q 305 475 305 429 q 333 549 305 521 q 407 576 361 576 q 481 549 453 576 q 509 475 509 521 q 481 401 509 429 q 407 373 453 373 m 407 111 q 590 475 590 111 q 407 852 590 852 q 224 475 224 852 q 407 111 224 111 z "},"1":{"ha":814,"x_min":115,"x_max":713,"o":"m 357 0 l 357 963 l 498 963 l 498 0 l 357 0 m 115 0 l 115 129 l 370 129 l 370 0 l 115 0 m 484 0 l 484 129 l 713 129 l 713 0 l 484 0 m 129 745 l 129 882 l 357 963 l 357 823 l 129 745 z "},"2":{"ha":814,"x_min":72,"x_max":730,"o":"m 103 0 l 103 155 q 436 411 326 278 q 547 686 547 545 q 506 810 547 769 q 382 852 465 852 q 268 820 328 852 q 165 735 208 788 l 72 828 q 205 936 119 895 q 385 977 291 977 q 613 904 538 977 q 689 686 689 832 q 596 407 689 541 q 315 149 504 273 l 315 0 l 103 0 m 144 0 l 144 129 l 730 129 l 730 0 l 144 0 z "},"3":{"ha":814,"x_min":85,"x_max":708,"o":"m 349 -14 q 212 -5 274 -14 q 102 19 150 4 l 119 149 q 212 124 160 137 q 343 111 264 111 q 507 153 449 111 q 566 271 566 195 q 532 363 566 326 q 435 421 498 401 q 279 441 371 441 l 258 441 l 241 529 l 449 513 q 636 438 564 504 q 708 258 708 372 q 614 58 708 129 q 349 -14 520 -14 m 258 441 l 241 529 q 415 571 349 543 q 514 638 482 599 q 545 727 545 678 q 507 819 545 786 q 397 852 469 852 q 288 826 346 852 q 178 749 230 800 l 85 842 q 229 944 147 912 q 412 977 311 977 q 616 921 544 977 q 688 761 688 865 q 632 610 688 674 q 487 522 576 546 l 487 441 l 258 441 z "},"4":{"ha":814,"x_min":50,"x_max":760,"o":"m 50 216 l 186 909 l 332 909 l 195 216 l 50 216 m 50 216 l 145 342 l 541 342 l 541 216 l 50 216 m 655 216 l 655 342 l 760 342 l 760 216 l 655 216 m 528 0 l 528 963 l 669 963 l 669 0 l 528 0 z "},"5":{"ha":814,"x_min":90,"x_max":742,"o":"m 416 -14 q 175 61 260 -14 q 90 270 90 135 l 235 270 q 282 153 235 195 q 418 111 330 111 q 552 163 505 111 q 600 311 600 216 q 548 455 600 404 q 401 506 496 506 q 224 461 307 506 l 236 576 q 342 617 290 607 q 449 628 395 628 q 665 545 589 628 q 742 311 742 463 q 704 135 742 208 q 593 24 665 62 q 416 -14 520 -14 m 148 461 l 161 963 l 307 963 l 293 545 l 224 461 l 148 461 m 227 837 l 214 963 l 681 963 l 681 837 l 227 837 z "},"6":{"ha":814,"x_min":87,"x_max":742,"o":"m 412 -14 q 166 70 245 -14 q 87 330 87 153 l 199 453 l 250 453 q 331 569 270 528 q 479 610 391 610 q 673 532 605 610 q 742 312 742 454 q 655 73 742 159 q 412 -14 568 -14 m 417 111 q 551 164 503 111 q 600 312 600 218 q 555 440 600 395 q 428 486 511 486 q 283 437 334 486 q 232 298 232 388 q 281 161 232 210 q 417 111 330 111 m 87 330 l 87 389 q 227 809 87 665 q 654 967 367 953 l 667 838 q 237 452 237 820 l 237 374 l 87 330 z "},"7":{"ha":814,"x_min":76,"x_max":783,"o":"m 296 0 l 627 963 l 783 963 l 452 0 l 296 0 m 76 625 l 76 943 l 221 943 l 221 625 l 76 625 m 76 834 l 76 963 l 783 963 l 686 834 l 76 834 z "},"8":{"ha":814,"x_min":79,"x_max":735,"o":"m 407 -14 q 164 59 250 -14 q 79 264 79 132 q 164 452 79 386 q 407 518 250 518 q 649 452 564 518 q 735 264 735 386 q 649 59 735 132 q 407 -14 564 -14 m 407 111 q 544 153 496 111 q 593 271 593 195 q 544 398 593 353 q 407 444 496 444 q 270 398 318 444 q 221 271 221 353 q 270 153 221 195 q 407 111 318 111 m 294 479 l 294 548 l 521 548 l 521 479 l 294 479 m 407 574 q 524 609 483 574 q 566 705 566 644 q 524 814 566 776 q 407 852 483 852 q 290 814 331 852 q 248 705 248 776 q 290 609 248 644 q 407 574 331 574 m 407 506 q 185 565 264 506 q 106 732 106 625 q 185 912 106 848 q 407 977 264 977 q 629 912 551 977 q 708 732 708 848 q 629 565 708 625 q 407 506 551 506 z "},"9":{"ha":814,"x_min":79,"x_max":734,"o":"m 342 343 q 147 421 216 343 q 79 642 79 499 q 166 881 79 795 q 408 967 253 967 q 655 884 576 967 q 734 624 734 800 l 621 500 l 571 500 q 490 384 551 425 q 342 343 429 343 m 167 -14 l 153 115 q 583 502 583 134 l 583 579 l 734 624 l 734 564 q 594 145 734 289 q 167 -14 454 1 m 393 468 q 538 517 487 468 q 589 655 589 566 q 540 793 589 743 q 404 842 491 842 q 269 789 317 842 q 221 642 221 736 q 266 513 221 558 q 393 468 310 468 z "},"A":{"ha":814,"x_min":31,"x_max":783,"o":"m 31 0 l 309 963 l 505 963 l 783 0 l 641 0 l 413 846 l 401 846 l 173 0 l 31 0 m 159 235 l 159 363 l 648 363 l 648 235 l 159 235 z "},"Á":{"ha":814,"x_min":31,"x_max":783,"o":"m 31 0 l 309 963 l 505 963 l 783 0 l 641 0 l 413 846 l 401 846 l 173 0 l 31 0 m 159 235 l 159 363 l 648 363 l 648 235 l 159 235 m 318 1072 l 467 1241 l 659 1241 l 475 1072 l 318 1072 z "},"Ă":{"ha":814,"x_min":31,"x_max":783,"o":"m 31 0 l 309 963 l 505 963 l 783 0 l 641 0 l 413 846 l 401 846 l 173 0 l 31 0 m 159 235 l 159 363 l 648 363 l 648 235 l 159 235 m 407 1065 q 220 1116 286 1065 q 153 1261 153 1168 l 272 1261 q 308 1184 272 1212 q 407 1157 343 1157 q 507 1184 471 1157 q 542 1261 542 1212 l 661 1261 q 594 1116 661 1168 q 407 1065 528 1065 z "},"Ắ":{"ha":814,"x_min":31,"x_max":783,"o":"m 31 0 l 309 963 l 505 963 l 783 0 l 641 0 l 413 846 l 401 846 l 173 0 l 31 0 m 159 235 l 159 363 l 648 363 l 648 235 l 159 235 m 407 1065 q 220 1116 286 1065 q 153 1261 153 1168 l 272 1261 q 308 1184 272 1212 q 407 1157 343 1157 q 507 1184 471 1157 q 542 1261 542 1212 l 661 1261 q 594 1116 661 1168 q 407 1065 528 1065 m 318 1343 l 467 1512 l 659 1512 l 475 1343 l 318 1343 z "},"Ặ":{"ha":814,"x_min":31,"x_max":783,"o":"m 31 0 l 309 963 l 505 963 l 783 0 l 641 0 l 413 846 l 401 846 l 173 0 l 31 0 m 159 235 l 159 363 l 648 363 l 648 235 l 159 235 m 407 -285 q 343 -258 370 -285 q 316 -194 316 -231 q 343 -130 316 -156 q 407 -103 370 -103 q 471 -130 445 -103 q 498 -194 498 -156 q 471 -258 498 -231 q 407 -285 445 -285 m 407 1065 q 220 1116 286 1065 q 153 1261 153 1168 l 272 1261 q 308 1184 272 1212 q 407 1157 343 1157 q 507 1184 471 1157 q 542 1261 542 1212 l 661 1261 q 594 1116 661 1168 q 407 1065 528 1065 z "},"Ằ":{"ha":814,"x_min":31,"x_max":783,"o":"m 31 0 l 309 963 l 505 963 l 783 0 l 641 0 l 413 846 l 401 846 l 173 0 l 31 0 m 159 235 l 159 363 l 648 363 l 648 235 l 159 235 m 407 1065 q 220 1116 286 1065 q 153 1261 153 1168 l 272 1261 q 308 1184 272 1212 q 407 1157 343 1157 q 507 1184 471 1157 q 542 1261 542 1212 l 661 1261 q 594 1116 661 1168 q 407 1065 528 1065 m 345 1343 l 162 1512 l 353 1512 l 503 1343 l 345 1343 z "},"Ẳ":{"ha":814,"x_min":31,"x_max":783,"o":"m 31 0 l 309 963 l 505 963 l 783 0 l 641 0 l 413 846 l 401 846 l 173 0 l 31 0 m 159 235 l 159 363 l 648 363 l 648 235 l 159 235 m 407 1065 q 220 1116 286 1065 q 153 1261 153 1168 l 272 1261 q 308 1184 272 1212 q 407 1157 343 1157 q 507 1184 471 1157 q 542 1261 542 1212 l 661 1261 q 594 1116 661 1168 q 407 1065 528 1065 m 361 1308 l 361 1322 q 371 1347 361 1335 q 406 1375 381 1358 q 443 1403 432 1392 q 454 1426 454 1415 q 398 1460 454 1460 q 287 1431 333 1460 l 241 1512 q 412 1563 296 1563 q 566 1452 566 1563 q 548 1384 566 1411 q 486 1332 530 1358 q 470 1320 475 1326 q 466 1308 466 1315 l 361 1308 z "},"Ẵ":{"ha":814,"x_min":31,"x_max":783,"o":"m 31 0 l 309 963 l 505 963 l 783 0 l 641 0 l 413 846 l 401 846 l 173 0 l 31 0 m 159 235 l 159 363 l 648 363 l 648 235 l 159 235 m 407 1065 q 220 1116 286 1065 q 153 1261 153 1168 l 272 1261 q 308 1184 272 1212 q 407 1157 343 1157 q 507 1184 471 1157 q 542 1261 542 1212 l 661 1261 q 594 1116 661 1168 q 407 1065 528 1065 m 153 1333 l 153 1367 q 188 1494 153 1452 q 295 1537 224 1537 q 353 1528 323 1537 q 422 1503 383 1520 q 484 1478 463 1487 q 522 1469 505 1469 q 558 1512 558 1469 l 558 1553 l 675 1553 l 675 1519 q 643 1397 675 1438 q 547 1356 611 1356 q 492 1366 524 1356 q 416 1394 460 1375 q 363 1415 387 1406 q 321 1424 338 1424 q 271 1374 271 1424 l 271 1333 l 153 1333 z "},"Ǎ":{"ha":814,"x_min":31,"x_max":783,"o":"m 31 0 l 309 963 l 505 963 l 783 0 l 641 0 l 413 846 l 401 846 l 173 0 l 31 0 m 159 235 l 159 363 l 648 363 l 648 235 l 159 235 m 349 1072 l 172 1248 l 323 1248 l 414 1142 l 400 1142 l 491 1248 l 642 1248 l 465 1072 l 349 1072 z "},"Â":{"ha":814,"x_min":31,"x_max":783,"o":"m 31 0 l 309 963 l 505 963 l 783 0 l 641 0 l 413 846 l 401 846 l 173 0 l 31 0 m 159 235 l 159 363 l 648 363 l 648 235 l 159 235 m 176 1072 l 352 1248 l 469 1248 l 645 1072 l 494 1072 l 374 1211 l 446 1211 l 326 1072 l 176 1072 z "},"Ấ":{"ha":814,"x_min":31,"x_max":897,"o":"m 31 0 l 309 963 l 505 963 l 783 0 l 641 0 l 413 846 l 401 846 l 173 0 l 31 0 m 159 235 l 159 363 l 648 363 l 648 235 l 159 235 m 176 1072 l 352 1248 l 469 1248 l 645 1072 l 494 1072 l 374 1211 l 446 1211 l 326 1072 l 176 1072 m 556 1240 l 705 1409 l 897 1409 l 713 1240 l 556 1240 z "},"Ậ":{"ha":814,"x_min":31,"x_max":783,"o":"m 31 0 l 309 963 l 505 963 l 783 0 l 641 0 l 413 846 l 401 846 l 173 0 l 31 0 m 159 235 l 159 363 l 648 363 l 648 235 l 159 235 m 407 -285 q 343 -258 370 -285 q 316 -194 316 -231 q 343 -130 316 -156 q 407 -103 370 -103 q 471 -130 445 -103 q 498 -194 498 -156 q 471 -258 498 -231 q 407 -285 445 -285 m 176 1072 l 352 1248 l 469 1248 l 645 1072 l 494 1072 l 374 1211 l 446 1211 l 326 1072 l 176 1072 z "},"Ầ":{"ha":814,"x_min":31,"x_max":783,"o":"m 31 0 l 309 963 l 505 963 l 783 0 l 641 0 l 413 846 l 401 846 l 173 0 l 31 0 m 159 235 l 159 363 l 648 363 l 648 235 l 159 235 m 176 1072 l 352 1248 l 469 1248 l 645 1072 l 494 1072 l 374 1211 l 446 1211 l 326 1072 l 176 1072 m 583 1240 l 400 1409 l 591 1409 l 741 1240 l 583 1240 z "},"Ẩ":{"ha":814,"x_min":31,"x_max":804,"o":"m 31 0 l 309 963 l 505 963 l 783 0 l 641 0 l 413 846 l 401 846 l 173 0 l 31 0 m 159 235 l 159 363 l 648 363 l 648 235 l 159 235 m 176 1072 l 352 1248 l 469 1248 l 645 1072 l 494 1072 l 374 1211 l 446 1211 l 326 1072 l 176 1072 m 599 1205 l 599 1219 q 609 1243 599 1232 q 644 1272 619 1255 q 681 1300 670 1289 q 692 1322 692 1312 q 636 1357 692 1357 q 525 1328 571 1357 l 479 1409 q 650 1459 534 1459 q 804 1349 804 1459 q 786 1281 804 1308 q 724 1229 768 1255 q 708 1217 713 1223 q 704 1205 704 1212 l 599 1205 z "},"Ẫ":{"ha":814,"x_min":31,"x_max":783,"o":"m 31 0 l 309 963 l 505 963 l 783 0 l 641 0 l 413 846 l 401 846 l 173 0 l 31 0 m 159 235 l 159 363 l 648 363 l 648 235 l 159 235 m 176 1072 l 352 1248 l 469 1248 l 645 1072 l 494 1072 l 374 1211 l 446 1211 l 326 1072 l 176 1072 m 153 1320 l 153 1354 q 188 1481 153 1438 q 295 1523 224 1523 q 353 1515 323 1523 q 422 1490 383 1506 q 484 1465 463 1474 q 522 1455 505 1455 q 558 1499 558 1455 l 558 1539 l 675 1539 l 675 1506 q 643 1383 675 1424 q 547 1343 611 1343 q 492 1352 524 1343 q 416 1380 460 1362 q 363 1401 387 1392 q 321 1411 338 1411 q 271 1360 271 1411 l 271 1320 l 153 1320 z "},"Ä":{"ha":814,"x_min":31,"x_max":783,"o":"m 31 0 l 309 963 l 505 963 l 783 0 l 641 0 l 413 846 l 401 846 l 173 0 l 31 0 m 159 235 l 159 363 l 648 363 l 648 235 l 159 235 m 548 1072 q 484 1098 511 1072 q 457 1162 457 1125 q 484 1227 457 1200 q 548 1253 511 1253 q 612 1227 586 1253 q 639 1162 639 1200 q 612 1098 639 1125 q 548 1072 586 1072 m 266 1072 q 202 1098 229 1072 q 175 1162 175 1125 q 202 1227 175 1200 q 266 1253 229 1253 q 330 1227 304 1253 q 357 1162 357 1200 q 330 1098 357 1125 q 266 1072 304 1072 z "},"Ạ":{"ha":814,"x_min":31,"x_max":783,"o":"m 31 0 l 309 963 l 505 963 l 783 0 l 641 0 l 413 846 l 401 846 l 173 0 l 31 0 m 159 235 l 159 363 l 648 363 l 648 235 l 159 235 m 407 -285 q 343 -258 370 -285 q 316 -194 316 -231 q 343 -130 316 -156 q 407 -103 370 -103 q 471 -130 445 -103 q 498 -194 498 -156 q 471 -258 498 -231 q 407 -285 445 -285 z "},"À":{"ha":814,"x_min":31,"x_max":783,"o":"m 31 0 l 309 963 l 505 963 l 783 0 l 641 0 l 413 846 l 401 846 l 173 0 l 31 0 m 159 235 l 159 363 l 648 363 l 648 235 l 159 235 m 345 1072 l 162 1241 l 353 1241 l 503 1072 l 345 1072 z "},"Ả":{"ha":814,"x_min":31,"x_max":783,"o":"m 31 0 l 309 963 l 505 963 l 783 0 l 641 0 l 413 846 l 401 846 l 173 0 l 31 0 m 159 235 l 159 363 l 648 363 l 648 235 l 159 235 m 361 1037 l 361 1051 q 371 1075 361 1063 q 406 1104 381 1087 q 443 1132 432 1121 q 454 1154 454 1143 q 398 1189 454 1189 q 287 1160 333 1189 l 241 1240 q 412 1291 296 1291 q 566 1181 566 1291 q 548 1113 566 1140 q 486 1061 530 1086 q 470 1049 475 1055 q 466 1037 466 1044 l 361 1037 z "},"Ɑ":{"ha":814,"x_min":46,"x_max":778,"o":"m 359 -18 q 124 108 203 -18 q 46 470 46 234 q 128 844 46 711 q 359 977 210 977 q 484 938 448 977 q 523 829 520 899 l 578 829 l 536 593 q 497 787 536 722 q 381 852 458 852 q 238 752 288 852 q 189 470 189 652 q 237 198 189 290 q 381 106 286 106 q 479 134 446 106 q 524 228 513 161 q 536 412 536 294 l 589 128 l 530 128 q 481 23 522 64 q 359 -18 441 -18 m 549 -9 l 536 264 l 536 389 l 677 389 l 677 132 l 778 115 l 778 0 l 549 -9 m 536 298 l 536 963 l 677 963 l 677 298 l 536 298 z "},"Ā":{"ha":814,"x_min":31,"x_max":783,"o":"m 31 0 l 309 963 l 505 963 l 783 0 l 641 0 l 413 846 l 401 846 l 173 0 l 31 0 m 159 235 l 159 363 l 648 363 l 648 235 l 159 235 m 144 1072 l 144 1199 l 669 1199 l 669 1072 l 144 1072 z "},"Ą":{"ha":814,"x_min":31,"x_max":783,"o":"m 690 -288 q 570 -250 612 -288 q 528 -144 528 -212 q 557 -51 528 -89 q 641 0 587 -14 l 652 34 l 768 22 l 781 0 q 669 -28 709 0 q 629 -107 629 -56 q 708 -174 629 -174 q 734 -172 720 -174 q 764 -169 749 -171 l 751 -284 q 720 -287 736 -286 q 690 -288 704 -288 m 31 0 l 309 963 l 505 963 l 783 0 l 641 0 l 413 846 l 401 846 l 173 0 l 31 0 m 159 235 l 159 363 l 648 363 l 648 235 l 159 235 z "},"Å":{"ha":814,"x_min":31,"x_max":783,"o":"m 31 0 l 309 963 l 505 963 l 783 0 l 641 0 l 413 846 l 401 846 l 173 0 l 31 0 m 159 235 l 159 363 l 648 363 l 648 235 l 159 235 m 407 1009 q 288 1046 330 1009 q 245 1149 245 1082 q 288 1252 245 1215 q 407 1289 330 1289 q 526 1252 484 1289 q 568 1149 568 1215 q 526 1046 568 1082 q 407 1009 484 1009 m 407 1088 q 455 1104 439 1088 q 472 1149 472 1120 q 455 1195 472 1179 q 407 1211 439 1211 q 359 1195 376 1211 q 342 1149 342 1179 q 359 1104 342 1120 q 407 1088 376 1088 z "},"Ǻ":{"ha":814,"x_min":31,"x_max":783,"o":"m 271 1234 l 420 1404 l 611 1404 l 428 1234 l 271 1234 m 31 0 l 309 963 l 505 963 l 783 0 l 641 0 l 413 846 l 401 846 l 173 0 l 31 0 m 159 235 l 159 363 l 648 363 l 648 235 l 159 235 m 407 1009 q 288 1046 330 1009 q 245 1149 245 1082 q 288 1252 245 1215 q 407 1289 330 1289 q 526 1252 484 1289 q 568 1149 568 1215 q 526 1046 568 1082 q 407 1009 484 1009 m 407 1088 q 455 1104 439 1088 q 472 1149 472 1120 q 455 1195 472 1179 q 407 1211 439 1211 q 359 1195 376 1211 q 342 1149 342 1179 q 359 1104 342 1120 q 407 1088 376 1088 z "},"Ⱥ":{"ha":814,"x_min":31,"x_max":783,"o":"m 348 -224 l 256 -208 l 345 299 l 352 336 l 443 857 l 448 886 l 497 1164 l 589 1147 l 522 767 l 509 688 l 446 334 l 441 307 l 348 -224 m 31 0 l 309 963 l 505 963 l 783 0 l 641 0 l 413 846 l 401 846 l 173 0 l 31 0 m 159 235 l 159 363 l 648 363 l 648 235 l 159 235 z "},"Ã":{"ha":814,"x_min":31,"x_max":783,"o":"m 31 0 l 309 963 l 505 963 l 783 0 l 641 0 l 413 846 l 401 846 l 173 0 l 31 0 m 159 235 l 159 363 l 648 363 l 648 235 l 159 235 m 153 1062 l 153 1096 q 188 1223 153 1181 q 295 1265 224 1265 q 353 1257 323 1265 q 422 1232 383 1249 q 484 1207 463 1216 q 522 1198 505 1198 q 558 1241 558 1198 l 558 1282 l 675 1282 l 675 1248 q 643 1126 675 1166 q 547 1085 611 1085 q 492 1095 524 1085 q 416 1122 460 1104 q 363 1144 387 1135 q 321 1153 338 1153 q 271 1103 271 1153 l 271 1062 l 153 1062 z "},"Æ":{"ha":814,"x_min":28,"x_max":746,"o":"m 28 0 l 293 963 l 479 963 l 479 846 l 389 846 l 157 0 l 28 0 m 157 163 l 157 282 l 476 282 l 476 163 l 157 163 m 400 0 l 400 129 l 746 129 l 746 0 l 400 0 m 400 0 l 400 963 l 529 963 l 529 0 l 400 0 m 407 418 l 407 547 l 705 547 l 705 418 l 407 418 m 400 834 l 400 963 l 746 963 l 746 834 l 400 834 z "},"Ǽ":{"ha":814,"x_min":28,"x_max":746,"o":"m 28 0 l 293 963 l 479 963 l 479 846 l 389 846 l 157 0 l 28 0 m 157 163 l 157 282 l 476 282 l 476 163 l 157 163 m 400 0 l 400 129 l 746 129 l 746 0 l 400 0 m 400 0 l 400 963 l 529 963 l 529 0 l 400 0 m 407 418 l 407 547 l 705 547 l 705 418 l 407 418 m 400 834 l 400 963 l 746 963 l 746 834 l 400 834 m 345 1072 l 494 1241 l 686 1241 l 503 1072 l 345 1072 z "},"B":{"ha":814,"x_min":109,"x_max":769,"o":"m 240 0 l 240 129 l 438 129 q 577 170 528 129 q 627 285 627 211 q 575 402 627 361 q 429 444 524 444 l 243 444 l 227 506 l 463 506 q 689 443 609 506 q 769 264 769 380 q 693 69 769 138 q 477 0 617 0 l 240 0 m 109 0 l 109 963 l 250 963 l 250 0 l 109 0 m 194 473 l 194 540 l 471 540 l 471 473 l 194 473 m 240 511 l 240 573 l 397 573 q 516 607 474 573 q 559 705 559 642 q 514 801 559 768 q 388 834 470 834 l 243 834 l 227 963 l 395 963 q 621 900 541 963 q 701 719 701 836 q 625 565 701 619 q 410 511 549 511 l 240 511 z "},"C":{"ha":814,"x_min":58,"x_max":772,"o":"m 507 -14 q 58 483 58 -14 q 172 847 58 718 q 491 977 285 977 q 665 945 591 977 q 772 855 739 913 l 672 755 q 594 827 642 802 q 492 852 547 852 q 282 758 361 852 q 203 490 203 663 q 530 111 203 111 q 724 152 629 111 l 755 33 q 507 -14 637 -14 z "},"Ć":{"ha":814,"x_min":58,"x_max":772,"o":"m 507 -14 q 58 483 58 -14 q 172 847 58 718 q 491 977 285 977 q 665 945 591 977 q 772 855 739 913 l 672 755 q 594 827 642 802 q 492 852 547 852 q 282 758 361 852 q 203 490 203 663 q 530 111 203 111 q 724 152 629 111 l 755 33 q 507 -14 637 -14 m 382 1072 l 532 1241 l 723 1241 l 540 1072 l 382 1072 z "},"Č":{"ha":814,"x_min":58,"x_max":772,"o":"m 507 -14 q 58 483 58 -14 q 172 847 58 718 q 491 977 285 977 q 665 945 591 977 q 772 855 739 913 l 672 755 q 594 827 642 802 q 492 852 547 852 q 282 758 361 852 q 203 490 203 663 q 530 111 203 111 q 724 152 629 111 l 755 33 q 507 -14 637 -14 m 413 1072 l 237 1248 l 387 1248 l 478 1142 l 465 1142 l 555 1248 l 706 1248 l 530 1072 l 413 1072 z "},"Ç":{"ha":814,"x_min":58,"x_max":772,"o":"m 507 -14 q 58 483 58 -14 q 172 847 58 718 q 491 977 285 977 q 665 945 591 977 q 772 855 739 913 l 672 755 q 594 827 642 802 q 492 852 547 852 q 282 758 361 852 q 203 490 203 663 q 530 111 203 111 q 724 152 629 111 l 755 33 q 507 -14 637 -14 m 342 -326 l 342 -224 q 438 -212 406 -224 q 469 -175 469 -199 q 442 -140 469 -151 q 359 -129 415 -129 l 406 4 l 498 -3 l 481 -68 q 569 -108 540 -80 q 598 -181 598 -136 q 534 -289 598 -253 q 342 -326 471 -326 z "},"Ĉ":{"ha":814,"x_min":58,"x_max":772,"o":"m 507 -14 q 58 483 58 -14 q 172 847 58 718 q 491 977 285 977 q 665 945 591 977 q 772 855 739 913 l 672 755 q 594 827 642 802 q 492 852 547 852 q 282 758 361 852 q 203 490 203 663 q 530 111 203 111 q 724 152 629 111 l 755 33 q 507 -14 637 -14 m 240 1072 l 416 1248 l 533 1248 l 709 1072 l 559 1072 l 439 1211 l 511 1211 l 391 1072 l 240 1072 z "},"Ċ":{"ha":814,"x_min":58,"x_max":772,"o":"m 507 -14 q 58 483 58 -14 q 172 847 58 718 q 491 977 285 977 q 665 945 591 977 q 772 855 739 913 l 672 755 q 594 827 642 802 q 492 852 547 852 q 282 758 361 852 q 203 490 203 663 q 530 111 203 111 q 724 152 629 111 l 755 33 q 507 -14 637 -14 m 471 1072 q 407 1098 434 1072 q 380 1162 380 1125 q 407 1227 380 1200 q 471 1253 434 1253 q 536 1227 509 1253 q 562 1162 562 1200 q 536 1098 562 1125 q 471 1072 509 1072 z "},"Ȼ":{"ha":814,"x_min":58,"x_max":772,"o":"m 389 -224 l 296 -208 l 538 1164 l 630 1147 l 389 -224 m 507 -14 q 58 483 58 -14 q 172 847 58 718 q 491 977 285 977 q 665 945 591 977 q 772 855 739 913 l 672 755 q 594 827 642 802 q 492 852 547 852 q 282 758 361 852 q 203 490 203 663 q 530 111 203 111 q 724 152 629 111 l 755 33 q 507 -14 637 -14 z "},"D":{"ha":814,"x_min":95,"x_max":769,"o":"m 227 0 l 227 129 l 328 129 q 552 214 477 129 q 627 468 627 298 q 552 743 627 652 q 328 834 477 834 l 229 834 l 213 963 l 328 963 q 769 468 769 963 q 328 0 769 0 l 227 0 m 95 0 l 95 963 l 236 963 l 236 0 l 95 0 z "},"Ɖ":{"ha":814,"x_min":8,"x_max":769,"o":"m 8 415 l 8 544 l 441 544 l 441 415 l 8 415 m 227 0 l 227 129 l 328 129 q 552 214 477 129 q 627 468 627 298 q 552 743 627 652 q 328 834 477 834 l 229 834 l 213 963 l 328 963 q 769 468 769 963 q 328 0 769 0 l 227 0 m 95 0 l 95 963 l 236 963 l 236 0 l 95 0 z "},"Ð":{"ha":814,"x_min":8,"x_max":769,"o":"m 8 415 l 8 544 l 441 544 l 441 415 l 8 415 m 227 0 l 227 129 l 328 129 q 552 214 477 129 q 627 468 627 298 q 552 743 627 652 q 328 834 477 834 l 229 834 l 213 963 l 328 963 q 769 468 769 963 q 328 0 769 0 l 227 0 m 95 0 l 95 963 l 236 963 l 236 0 l 95 0 z "},"Ď":{"ha":814,"x_min":95,"x_max":769,"o":"m 227 0 l 227 129 l 328 129 q 552 214 477 129 q 627 468 627 298 q 552 743 627 652 q 328 834 477 834 l 229 834 l 213 963 l 328 963 q 769 468 769 963 q 328 0 769 0 l 227 0 m 95 0 l 95 963 l 236 963 l 236 0 l 95 0 m 301 1072 l 125 1248 l 275 1248 l 366 1142 l 353 1142 l 444 1248 l 594 1248 l 418 1072 l 301 1072 z "},"Đ":{"ha":814,"x_min":8,"x_max":769,"o":"m 8 415 l 8 544 l 441 544 l 441 415 l 8 415 m 227 0 l 227 129 l 328 129 q 552 214 477 129 q 627 468 627 298 q 552 743 627 652 q 328 834 477 834 l 229 834 l 213 963 l 328 963 q 769 468 769 963 q 328 0 769 0 l 227 0 m 95 0 l 95 963 l 236 963 l 236 0 l 95 0 z "},"E":{"ha":814,"x_min":109,"x_max":746,"o":"m 109 0 l 109 963 l 250 963 l 250 0 l 109 0 m 109 0 l 109 129 l 746 129 l 746 0 l 109 0 m 109 418 l 109 547 l 624 547 l 624 418 l 109 418 m 109 834 l 109 963 l 746 963 l 746 834 l 109 834 z "},"É":{"ha":814,"x_min":109,"x_max":746,"o":"m 109 0 l 109 963 l 250 963 l 250 0 l 109 0 m 109 0 l 109 129 l 746 129 l 746 0 l 109 0 m 109 418 l 109 547 l 624 547 l 624 418 l 109 418 m 109 834 l 109 963 l 746 963 l 746 834 l 109 834 m 338 1072 l 488 1241 l 679 1241 l 496 1072 l 338 1072 z "},"Ĕ":{"ha":814,"x_min":109,"x_max":746,"o":"m 109 0 l 109 963 l 250 963 l 250 0 l 109 0 m 109 0 l 109 129 l 746 129 l 746 0 l 109 0 m 109 418 l 109 547 l 624 547 l 624 418 l 109 418 m 109 834 l 109 963 l 746 963 l 746 834 l 109 834 m 427 1065 q 240 1116 307 1065 q 174 1261 174 1168 l 292 1261 q 328 1184 292 1212 q 427 1157 363 1157 q 527 1184 492 1157 q 562 1261 562 1212 l 681 1261 q 614 1116 681 1168 q 427 1065 548 1065 z "},"Ě":{"ha":814,"x_min":109,"x_max":746,"o":"m 109 0 l 109 963 l 250 963 l 250 0 l 109 0 m 109 0 l 109 129 l 746 129 l 746 0 l 109 0 m 109 418 l 109 547 l 624 547 l 624 418 l 109 418 m 109 834 l 109 963 l 746 963 l 746 834 l 109 834 m 369 1072 l 193 1248 l 343 1248 l 434 1142 l 420 1142 l 511 1248 l 662 1248 l 486 1072 l 369 1072 z "},"Ê":{"ha":814,"x_min":109,"x_max":746,"o":"m 109 0 l 109 963 l 250 963 l 250 0 l 109 0 m 109 0 l 109 129 l 746 129 l 746 0 l 109 0 m 109 418 l 109 547 l 624 547 l 624 418 l 109 418 m 109 834 l 109 963 l 746 963 l 746 834 l 109 834 m 196 1072 l 372 1248 l 489 1248 l 665 1072 l 515 1072 l 395 1211 l 467 1211 l 347 1072 l 196 1072 z "},"Ế":{"ha":814,"x_min":109,"x_max":917,"o":"m 109 0 l 109 963 l 250 963 l 250 0 l 109 0 m 109 0 l 109 129 l 746 129 l 746 0 l 109 0 m 109 418 l 109 547 l 624 547 l 624 418 l 109 418 m 109 834 l 109 963 l 746 963 l 746 834 l 109 834 m 196 1072 l 372 1248 l 489 1248 l 665 1072 l 515 1072 l 395 1211 l 467 1211 l 347 1072 l 196 1072 m 576 1240 l 726 1409 l 917 1409 l 734 1240 l 576 1240 z "},"Ệ":{"ha":814,"x_min":109,"x_max":746,"o":"m 109 0 l 109 963 l 250 963 l 250 0 l 109 0 m 109 0 l 109 129 l 746 129 l 746 0 l 109 0 m 109 418 l 109 547 l 624 547 l 624 418 l 109 418 m 109 834 l 109 963 l 746 963 l 746 834 l 109 834 m 427 -285 q 363 -258 390 -285 q 336 -194 336 -231 q 363 -130 336 -156 q 427 -103 390 -103 q 492 -130 465 -103 q 518 -194 518 -156 q 492 -258 518 -231 q 427 -285 465 -285 m 196 1072 l 372 1248 l 489 1248 l 665 1072 l 515 1072 l 395 1211 l 467 1211 l 347 1072 l 196 1072 z "},"Ề":{"ha":814,"x_min":109,"x_max":761,"o":"m 109 0 l 109 963 l 250 963 l 250 0 l 109 0 m 109 0 l 109 129 l 746 129 l 746 0 l 109 0 m 109 418 l 109 547 l 624 547 l 624 418 l 109 418 m 109 834 l 109 963 l 746 963 l 746 834 l 109 834 m 196 1072 l 372 1248 l 489 1248 l 665 1072 l 515 1072 l 395 1211 l 467 1211 l 347 1072 l 196 1072 m 604 1240 l 420 1409 l 612 1409 l 761 1240 l 604 1240 z "},"Ể":{"ha":814,"x_min":109,"x_max":825,"o":"m 109 0 l 109 963 l 250 963 l 250 0 l 109 0 m 109 0 l 109 129 l 746 129 l 746 0 l 109 0 m 109 418 l 109 547 l 624 547 l 624 418 l 109 418 m 109 834 l 109 963 l 746 963 l 746 834 l 109 834 m 196 1072 l 372 1248 l 489 1248 l 665 1072 l 515 1072 l 395 1211 l 467 1211 l 347 1072 l 196 1072 m 619 1205 l 619 1219 q 629 1243 619 1232 q 664 1272 640 1255 q 701 1300 690 1289 q 712 1322 712 1312 q 656 1357 712 1357 q 545 1328 591 1357 l 500 1409 q 671 1459 555 1459 q 825 1349 825 1459 q 806 1281 825 1308 q 744 1229 788 1255 q 729 1217 733 1223 q 724 1205 724 1212 l 619 1205 z "},"Ễ":{"ha":814,"x_min":109,"x_max":746,"o":"m 109 0 l 109 963 l 250 963 l 250 0 l 109 0 m 109 0 l 109 129 l 746 129 l 746 0 l 109 0 m 109 418 l 109 547 l 624 547 l 624 418 l 109 418 m 109 834 l 109 963 l 746 963 l 746 834 l 109 834 m 196 1072 l 372 1248 l 489 1248 l 665 1072 l 515 1072 l 395 1211 l 467 1211 l 347 1072 l 196 1072 m 173 1320 l 173 1354 q 209 1481 173 1438 q 315 1523 244 1523 q 373 1515 343 1523 q 443 1490 404 1506 q 504 1465 483 1474 q 542 1455 525 1455 q 578 1499 578 1455 l 578 1539 l 695 1539 l 695 1506 q 663 1383 695 1424 q 568 1343 631 1343 q 513 1352 545 1343 q 437 1380 481 1362 q 383 1401 408 1392 q 341 1411 359 1411 q 291 1360 291 1411 l 291 1320 l 173 1320 z "},"Ë":{"ha":814,"x_min":109,"x_max":746,"o":"m 109 0 l 109 963 l 250 963 l 250 0 l 109 0 m 109 0 l 109 129 l 746 129 l 746 0 l 109 0 m 109 418 l 109 547 l 624 547 l 624 418 l 109 418 m 109 834 l 109 963 l 746 963 l 746 834 l 109 834 m 568 1072 q 504 1098 531 1072 q 477 1162 477 1125 q 504 1227 477 1200 q 568 1253 531 1253 q 633 1227 606 1253 q 659 1162 659 1200 q 633 1098 659 1125 q 568 1072 606 1072 m 286 1072 q 222 1098 249 1072 q 195 1162 195 1125 q 222 1227 195 1200 q 286 1253 249 1253 q 351 1227 324 1253 q 377 1162 377 1200 q 351 1098 377 1125 q 286 1072 324 1072 z "},"Ė":{"ha":814,"x_min":109,"x_max":746,"o":"m 109 0 l 109 963 l 250 963 l 250 0 l 109 0 m 109 0 l 109 129 l 746 129 l 746 0 l 109 0 m 109 418 l 109 547 l 624 547 l 624 418 l 109 418 m 109 834 l 109 963 l 746 963 l 746 834 l 109 834 m 427 1072 q 363 1098 390 1072 q 336 1162 336 1125 q 363 1227 336 1200 q 427 1253 390 1253 q 492 1227 465 1253 q 518 1162 518 1200 q 492 1098 518 1125 q 427 1072 465 1072 z "},"Ẹ":{"ha":814,"x_min":109,"x_max":746,"o":"m 109 0 l 109 963 l 250 963 l 250 0 l 109 0 m 109 0 l 109 129 l 746 129 l 746 0 l 109 0 m 109 418 l 109 547 l 624 547 l 624 418 l 109 418 m 109 834 l 109 963 l 746 963 l 746 834 l 109 834 m 427 -285 q 363 -258 390 -285 q 336 -194 336 -231 q 363 -130 336 -156 q 427 -103 390 -103 q 492 -130 465 -103 q 518 -194 518 -156 q 492 -258 518 -231 q 427 -285 465 -285 z "},"È":{"ha":814,"x_min":109,"x_max":746,"o":"m 109 0 l 109 963 l 250 963 l 250 0 l 109 0 m 109 0 l 109 129 l 746 129 l 746 0 l 109 0 m 109 418 l 109 547 l 624 547 l 624 418 l 109 418 m 109 834 l 109 963 l 746 963 l 746 834 l 109 834 m 366 1072 l 182 1241 l 374 1241 l 523 1072 l 366 1072 z "},"Ẻ":{"ha":814,"x_min":109,"x_max":746,"o":"m 109 0 l 109 963 l 250 963 l 250 0 l 109 0 m 109 0 l 109 129 l 746 129 l 746 0 l 109 0 m 109 418 l 109 547 l 624 547 l 624 418 l 109 418 m 109 834 l 109 963 l 746 963 l 746 834 l 109 834 m 381 1037 l 381 1051 q 391 1075 381 1063 q 426 1104 401 1087 q 463 1132 452 1121 q 474 1154 474 1143 q 418 1189 474 1189 q 307 1160 353 1189 l 262 1240 q 433 1291 317 1291 q 587 1181 587 1291 q 568 1113 587 1140 q 506 1061 550 1086 q 491 1049 495 1055 q 486 1037 486 1044 l 381 1037 z "},"Ē":{"ha":814,"x_min":109,"x_max":746,"o":"m 109 0 l 109 963 l 250 963 l 250 0 l 109 0 m 109 0 l 109 129 l 746 129 l 746 0 l 109 0 m 109 418 l 109 547 l 624 547 l 624 418 l 109 418 m 109 834 l 109 963 l 746 963 l 746 834 l 109 834 m 165 1072 l 165 1199 l 690 1199 l 690 1072 l 165 1072 z "},"Ę":{"ha":814,"x_min":109,"x_max":746,"o":"m 655 -288 q 535 -250 577 -288 q 492 -144 492 -212 q 512 -60 492 -94 q 570 -14 532 -26 l 570 20 l 732 22 l 746 0 q 634 -30 674 0 q 594 -114 594 -60 q 673 -174 594 -174 q 728 -166 696 -174 l 716 -281 q 685 -286 701 -284 q 655 -288 669 -288 m 109 0 l 109 963 l 250 963 l 250 0 l 109 0 m 109 0 l 109 129 l 746 129 l 746 0 l 109 0 m 109 418 l 109 547 l 624 547 l 624 418 l 109 418 m 109 834 l 109 963 l 746 963 l 746 834 l 109 834 z "},"Ɛ":{"ha":814,"x_min":87,"x_max":763,"o":"m 468 977 q 653 945 578 977 q 763 855 728 913 l 663 755 q 583 827 633 803 q 469 852 532 852 q 311 813 359 852 q 263 718 263 774 q 334 610 263 646 q 568 570 404 575 l 553 442 l 452 442 q 290 400 351 442 q 228 281 228 359 q 288 156 228 201 q 454 111 348 111 q 549 115 509 111 q 628 126 589 118 q 715 151 666 135 l 746 33 q 662 5 703 15 q 573 -9 621 -5 q 457 -14 524 -14 q 260 21 343 -14 q 132 119 177 56 q 87 267 87 182 q 127 401 87 347 q 232 483 167 455 q 370 513 296 511 l 359 476 l 359 555 l 370 517 q 182 595 239 536 q 125 741 125 655 q 205 911 125 846 q 468 977 286 977 z "},"Ǝ":{"ha":814,"x_min":68,"x_max":705,"o":"m 705 0 l 564 0 l 564 963 l 705 963 l 705 0 m 705 0 l 68 0 l 68 129 l 705 129 l 705 0 m 705 418 l 190 418 l 190 547 l 705 547 l 705 418 m 705 834 l 68 834 l 68 963 l 705 963 l 705 834 z "},"Ʃ":{"ha":814,"x_min":102,"x_max":726,"o":"m 201 46 l 102 129 l 401 484 l 102 834 l 212 924 l 574 484 l 201 46 m 102 0 l 102 129 l 726 129 l 726 0 l 102 0 m 102 834 l 102 963 l 712 963 l 712 834 l 102 834 z "},"Ẽ":{"ha":814,"x_min":109,"x_max":746,"o":"m 109 0 l 109 963 l 250 963 l 250 0 l 109 0 m 109 0 l 109 129 l 746 129 l 746 0 l 109 0 m 109 418 l 109 547 l 624 547 l 624 418 l 109 418 m 109 834 l 109 963 l 746 963 l 746 834 l 109 834 m 173 1062 l 173 1096 q 209 1223 173 1181 q 315 1265 244 1265 q 373 1257 343 1265 q 443 1232 404 1249 q 504 1207 483 1216 q 542 1198 525 1198 q 578 1241 578 1198 l 578 1282 l 695 1282 l 695 1248 q 663 1126 695 1166 q 568 1085 631 1085 q 513 1095 545 1085 q 437 1122 481 1104 q 383 1144 408 1135 q 341 1153 359 1153 q 291 1103 291 1153 l 291 1062 l 173 1062 z "},"Ʒ":{"ha":814,"x_min":50,"x_max":734,"o":"m 377 -14 q 50 102 176 -14 l 148 198 q 223 148 188 167 q 295 120 258 129 q 380 111 332 111 q 536 155 480 111 q 593 275 593 198 q 522 409 593 361 q 321 456 451 456 l 230 456 l 216 540 l 570 878 l 570 837 l 111 837 l 111 963 l 689 963 l 689 827 l 376 531 l 376 560 q 640 484 547 557 q 734 277 734 410 q 690 124 734 189 q 567 22 647 58 q 377 -14 487 -14 z "},"F":{"ha":814,"x_min":122,"x_max":760,"o":"m 122 0 l 122 963 l 263 963 l 263 0 l 122 0 m 122 377 l 122 506 l 637 506 l 637 377 l 122 377 m 122 834 l 122 963 l 760 963 l 760 834 l 122 834 z "},"Ƒ":{"ha":814,"x_min":-31,"x_max":760,"o":"m -24 -323 l -31 -187 l 16 -180 q 95 -141 68 -172 q 122 -54 122 -111 l 122 125 l 263 125 l 263 -65 q 202 -242 263 -178 q 30 -317 141 -306 l -24 -323 m 122 0 l 122 963 l 263 963 l 263 0 l 122 0 m 122 377 l 122 506 l 637 506 l 637 377 l 122 377 m 122 834 l 122 963 l 760 963 l 760 834 l 122 834 z "},"G":{"ha":814,"x_min":45,"x_max":760,"o":"m 476 -14 q 153 111 260 -14 q 45 483 45 235 q 157 847 45 718 q 471 977 269 977 q 648 945 572 977 q 760 856 724 913 l 659 755 q 580 827 627 802 q 479 852 533 852 q 266 757 342 852 q 190 490 190 663 q 266 206 190 300 q 492 111 342 111 q 606 124 557 111 q 686 145 655 136 l 739 27 q 639 2 711 18 q 476 -14 568 -14 m 605 27 l 605 481 l 739 481 l 739 27 l 605 27 m 414 353 l 414 481 l 735 481 l 735 353 l 414 353 z "},"Ğ":{"ha":814,"x_min":45,"x_max":760,"o":"m 476 -14 q 153 111 260 -14 q 45 483 45 235 q 157 847 45 718 q 471 977 269 977 q 648 945 572 977 q 760 856 724 913 l 659 755 q 580 827 627 802 q 479 852 533 852 q 266 757 342 852 q 190 490 190 663 q 266 206 190 300 q 492 111 342 111 q 606 124 557 111 q 686 145 655 136 l 739 27 q 639 2 711 18 q 476 -14 568 -14 m 605 27 l 605 481 l 739 481 l 739 27 l 605 27 m 414 353 l 414 481 l 735 481 l 735 353 l 414 353 m 458 1065 q 271 1116 337 1065 q 204 1261 204 1168 l 323 1261 q 358 1184 323 1212 q 458 1157 394 1157 q 557 1184 522 1157 q 593 1261 593 1212 l 711 1261 q 645 1116 711 1168 q 458 1065 578 1065 z "},"Ǧ":{"ha":814,"x_min":45,"x_max":760,"o":"m 476 -14 q 153 111 260 -14 q 45 483 45 235 q 157 847 45 718 q 471 977 269 977 q 648 945 572 977 q 760 856 724 913 l 659 755 q 580 827 627 802 q 479 852 533 852 q 266 757 342 852 q 190 490 190 663 q 266 206 190 300 q 492 111 342 111 q 606 124 557 111 q 686 145 655 136 l 739 27 q 639 2 711 18 q 476 -14 568 -14 m 605 27 l 605 481 l 739 481 l 739 27 l 605 27 m 414 353 l 414 481 l 735 481 l 735 353 l 414 353 m 399 1072 l 223 1248 l 374 1248 l 465 1142 l 451 1142 l 542 1248 l 692 1248 l 516 1072 l 399 1072 z "},"Ĝ":{"ha":814,"x_min":45,"x_max":760,"o":"m 476 -14 q 153 111 260 -14 q 45 483 45 235 q 157 847 45 718 q 471 977 269 977 q 648 945 572 977 q 760 856 724 913 l 659 755 q 580 827 627 802 q 479 852 533 852 q 266 757 342 852 q 190 490 190 663 q 266 206 190 300 q 492 111 342 111 q 606 124 557 111 q 686 145 655 136 l 739 27 q 639 2 711 18 q 476 -14 568 -14 m 605 27 l 605 481 l 739 481 l 739 27 l 605 27 m 414 353 l 414 481 l 735 481 l 735 353 l 414 353 m 227 1072 l 403 1248 l 519 1248 l 696 1072 l 545 1072 l 425 1211 l 497 1211 l 377 1072 l 227 1072 z "},"Ģ":{"ha":814,"x_min":45,"x_max":760,"o":"m 476 -14 q 153 111 260 -14 q 45 483 45 235 q 157 847 45 718 q 471 977 269 977 q 648 945 572 977 q 760 856 724 913 l 659 755 q 580 827 627 802 q 479 852 533 852 q 266 757 342 852 q 190 490 190 663 q 266 206 190 300 q 492 111 342 111 q 606 124 557 111 q 686 145 655 136 l 739 27 q 639 2 711 18 q 476 -14 568 -14 m 605 27 l 605 481 l 739 481 l 739 27 l 605 27 m 414 353 l 414 481 l 735 481 l 735 353 l 414 353 z "},"Ġ":{"ha":814,"x_min":45,"x_max":760,"o":"m 476 -14 q 153 111 260 -14 q 45 483 45 235 q 157 847 45 718 q 471 977 269 977 q 648 945 572 977 q 760 856 724 913 l 659 755 q 580 827 627 802 q 479 852 533 852 q 266 757 342 852 q 190 490 190 663 q 266 206 190 300 q 492 111 342 111 q 606 124 557 111 q 686 145 655 136 l 739 27 q 639 2 711 18 q 476 -14 568 -14 m 605 27 l 605 481 l 739 481 l 739 27 l 605 27 m 414 353 l 414 481 l 735 481 l 735 353 l 414 353 m 458 1072 q 394 1098 420 1072 q 367 1162 367 1125 q 394 1227 367 1200 q 458 1253 420 1253 q 522 1227 496 1253 q 549 1162 549 1200 q 522 1098 549 1125 q 458 1072 496 1072 z "},"Ǥ":{"ha":814,"x_min":45,"x_max":814,"o":"m 476 -14 q 153 111 260 -14 q 45 483 45 235 q 157 847 45 718 q 471 977 269 977 q 648 945 572 977 q 760 856 724 913 l 659 755 q 580 827 627 802 q 479 852 533 852 q 266 757 342 852 q 190 490 190 663 q 266 206 190 300 q 492 111 342 111 q 598 124 552 111 q 673 145 644 136 l 726 27 q 631 2 699 18 q 476 -14 563 -14 m 591 27 l 591 481 l 726 481 l 726 27 l 591 27 m 434 251 l 434 380 l 814 380 l 814 251 l 434 251 z "},"H":{"ha":814,"x_min":95,"x_max":719,"o":"m 578 0 l 578 963 l 719 963 l 719 0 l 578 0 m 95 0 l 95 963 l 236 963 l 236 0 l 95 0 m 123 415 l 123 544 l 694 544 l 694 415 l 123 415 z "},"Ħ":{"ha":814,"x_min":28,"x_max":785,"o":"m 28 680 l 28 808 l 785 808 l 785 680 l 28 680 m 578 0 l 578 963 l 719 963 l 719 0 l 578 0 m 95 0 l 95 963 l 236 963 l 236 0 l 95 0 m 123 415 l 123 544 l 694 544 l 694 415 l 123 415 z "},"Ȟ":{"ha":814,"x_min":95,"x_max":719,"o":"m 578 0 l 578 963 l 719 963 l 719 0 l 578 0 m 95 0 l 95 963 l 236 963 l 236 0 l 95 0 m 123 415 l 123 544 l 694 544 l 694 415 l 123 415 m 349 1072 l 172 1248 l 323 1248 l 414 1142 l 400 1142 l 491 1248 l 642 1248 l 465 1072 l 349 1072 z "},"Ĥ":{"ha":814,"x_min":95,"x_max":719,"o":"m 578 0 l 578 963 l 719 963 l 719 0 l 578 0 m 95 0 l 95 963 l 236 963 l 236 0 l 95 0 m 123 415 l 123 544 l 694 544 l 694 415 l 123 415 m 176 1072 l 352 1248 l 469 1248 l 645 1072 l 494 1072 l 374 1211 l 446 1211 l 326 1072 l 176 1072 z "},"Ḥ":{"ha":814,"x_min":95,"x_max":719,"o":"m 578 0 l 578 963 l 719 963 l 719 0 l 578 0 m 95 0 l 95 963 l 236 963 l 236 0 l 95 0 m 123 415 l 123 544 l 694 544 l 694 415 l 123 415 m 407 -285 q 343 -258 370 -285 q 316 -194 316 -231 q 343 -130 316 -156 q 407 -103 370 -103 q 471 -130 445 -103 q 498 -194 498 -156 q 471 -258 498 -231 q 407 -285 445 -285 z "},"I":{"ha":814,"x_min":114,"x_max":700,"o":"m 336 0 l 336 963 l 477 963 l 477 0 l 336 0 m 114 0 l 114 129 l 700 129 l 700 0 l 114 0 m 114 834 l 114 963 l 700 963 l 700 834 l 114 834 z "},"Ĳ":{"ha":814,"x_min":37,"x_max":734,"o":"m 430 -14 q 220 50 290 -14 q 151 241 151 114 l 292 241 q 327 142 292 175 q 433 109 363 109 q 553 155 513 109 q 593 296 593 201 l 593 963 l 734 963 l 734 296 q 658 63 734 140 q 430 -14 583 -14 m 37 337 l 37 466 l 406 466 l 406 337 l 37 337 m 154 337 l 154 963 l 288 963 l 288 337 l 154 337 m 37 834 l 37 963 l 393 963 l 393 834 l 37 834 m 468 834 l 468 963 l 662 963 l 662 834 l 468 834 z "},"Í":{"ha":814,"x_min":114,"x_max":700,"o":"m 336 0 l 336 963 l 477 963 l 477 0 l 336 0 m 114 0 l 114 129 l 700 129 l 700 0 l 114 0 m 114 834 l 114 963 l 700 963 l 700 834 l 114 834 m 318 1072 l 467 1241 l 659 1241 l 475 1072 l 318 1072 z "},"Ĭ":{"ha":814,"x_min":114,"x_max":700,"o":"m 336 0 l 336 963 l 477 963 l 477 0 l 336 0 m 114 0 l 114 129 l 700 129 l 700 0 l 114 0 m 114 834 l 114 963 l 700 963 l 700 834 l 114 834 m 407 1065 q 220 1116 286 1065 q 153 1261 153 1168 l 272 1261 q 308 1184 272 1212 q 407 1157 343 1157 q 507 1184 471 1157 q 542 1261 542 1212 l 661 1261 q 594 1116 661 1168 q 407 1065 528 1065 z "},"Î":{"ha":814,"x_min":114,"x_max":700,"o":"m 336 0 l 336 963 l 477 963 l 477 0 l 336 0 m 114 0 l 114 129 l 700 129 l 700 0 l 114 0 m 114 834 l 114 963 l 700 963 l 700 834 l 114 834 m 176 1072 l 352 1248 l 469 1248 l 645 1072 l 494 1072 l 374 1211 l 446 1211 l 326 1072 l 176 1072 z "},"Ï":{"ha":814,"x_min":114,"x_max":700,"o":"m 336 0 l 336 963 l 477 963 l 477 0 l 336 0 m 114 0 l 114 129 l 700 129 l 700 0 l 114 0 m 114 834 l 114 963 l 700 963 l 700 834 l 114 834 m 548 1072 q 484 1098 511 1072 q 457 1162 457 1125 q 484 1227 457 1200 q 548 1253 511 1253 q 612 1227 586 1253 q 639 1162 639 1200 q 612 1098 639 1125 q 548 1072 586 1072 m 266 1072 q 202 1098 229 1072 q 175 1162 175 1125 q 202 1227 175 1200 q 266 1253 229 1253 q 330 1227 304 1253 q 357 1162 357 1200 q 330 1098 357 1125 q 266 1072 304 1072 z "},"İ":{"ha":814,"x_min":114,"x_max":700,"o":"m 336 0 l 336 963 l 477 963 l 477 0 l 336 0 m 114 0 l 114 129 l 700 129 l 700 0 l 114 0 m 114 834 l 114 963 l 700 963 l 700 834 l 114 834 m 407 1072 q 343 1098 370 1072 q 316 1162 316 1125 q 343 1227 316 1200 q 407 1253 370 1253 q 471 1227 445 1253 q 498 1162 498 1200 q 471 1098 498 1125 q 407 1072 445 1072 z "},"Ị":{"ha":814,"x_min":114,"x_max":700,"o":"m 336 0 l 336 963 l 477 963 l 477 0 l 336 0 m 114 0 l 114 129 l 700 129 l 700 0 l 114 0 m 114 834 l 114 963 l 700 963 l 700 834 l 114 834 m 407 -285 q 343 -258 370 -285 q 316 -194 316 -231 q 343 -130 316 -156 q 407 -103 370 -103 q 471 -130 445 -103 q 498 -194 498 -156 q 471 -258 498 -231 q 407 -285 445 -285 z "},"Ì":{"ha":814,"x_min":114,"x_max":700,"o":"m 336 0 l 336 963 l 477 963 l 477 0 l 336 0 m 114 0 l 114 129 l 700 129 l 700 0 l 114 0 m 114 834 l 114 963 l 700 963 l 700 834 l 114 834 m 345 1072 l 162 1241 l 353 1241 l 503 1072 l 345 1072 z "},"Ỉ":{"ha":814,"x_min":114,"x_max":700,"o":"m 336 0 l 336 963 l 477 963 l 477 0 l 336 0 m 114 0 l 114 129 l 700 129 l 700 0 l 114 0 m 114 834 l 114 963 l 700 963 l 700 834 l 114 834 m 361 1037 l 361 1051 q 371 1075 361 1063 q 406 1104 381 1087 q 443 1132 432 1121 q 454 1154 454 1143 q 398 1189 454 1189 q 287 1160 333 1189 l 241 1240 q 412 1291 296 1291 q 566 1181 566 1291 q 548 1113 566 1140 q 486 1061 530 1086 q 470 1049 475 1055 q 466 1037 466 1044 l 361 1037 z "},"Ī":{"ha":814,"x_min":114,"x_max":700,"o":"m 336 0 l 336 963 l 477 963 l 477 0 l 336 0 m 114 0 l 114 129 l 700 129 l 700 0 l 114 0 m 114 834 l 114 963 l 700 963 l 700 834 l 114 834 m 144 1072 l 144 1199 l 669 1199 l 669 1072 l 144 1072 z "},"Į":{"ha":814,"x_min":114,"x_max":700,"o":"m 431 -288 q 311 -250 353 -288 q 269 -144 269 -212 q 289 -60 269 -94 q 346 -14 309 -26 l 346 20 l 522 22 l 522 0 q 410 -30 450 0 q 370 -114 370 -60 q 391 -158 370 -142 q 449 -174 412 -174 q 505 -166 473 -174 l 492 -281 q 461 -286 477 -284 q 431 -288 445 -288 m 336 0 l 336 963 l 477 963 l 477 0 l 336 0 m 114 0 l 114 129 l 700 129 l 700 0 l 114 0 m 114 834 l 114 963 l 700 963 l 700 834 l 114 834 z "},"Ɩ":{"ha":814,"x_min":66,"x_max":728,"o":"m 514 -14 q 334 54 389 -14 q 278 271 278 122 l 278 1017 l 422 1017 l 422 278 q 433 185 422 221 q 475 132 444 149 q 568 115 507 115 q 712 141 625 115 l 728 15 q 623 -7 673 0 q 514 -14 572 -14 m 66 891 l 66 1017 l 290 1017 l 290 891 l 66 891 z "},"Ĩ":{"ha":814,"x_min":114,"x_max":700,"o":"m 336 0 l 336 963 l 477 963 l 477 0 l 336 0 m 114 0 l 114 129 l 700 129 l 700 0 l 114 0 m 114 834 l 114 963 l 700 963 l 700 834 l 114 834 m 153 1062 l 153 1096 q 188 1223 153 1181 q 295 1265 224 1265 q 353 1257 323 1265 q 422 1232 383 1249 q 484 1207 463 1216 q 522 1198 505 1198 q 558 1241 558 1198 l 558 1282 l 675 1282 l 675 1248 q 643 1126 675 1166 q 547 1085 611 1085 q 492 1095 524 1085 q 416 1122 460 1104 q 363 1144 387 1135 q 321 1153 338 1153 q 271 1103 271 1153 l 271 1062 l 153 1062 z "},"J":{"ha":814,"x_min":58,"x_max":720,"o":"m 389 -14 q 144 75 231 -14 q 58 323 58 163 l 199 323 q 250 165 199 221 q 393 109 300 109 q 531 164 482 109 q 579 323 579 220 l 579 963 l 720 963 l 720 323 q 633 75 720 163 q 389 -14 545 -14 m 332 834 l 332 963 l 648 963 l 648 834 l 332 834 z "},"Ĵ":{"ha":814,"x_min":58,"x_max":774,"o":"m 389 -14 q 144 75 231 -14 q 58 323 58 163 l 199 323 q 250 165 199 221 q 393 109 300 109 q 531 164 482 109 q 579 323 579 220 l 579 963 l 720 963 l 720 323 q 633 75 720 163 q 389 -14 545 -14 m 332 834 l 332 963 l 648 963 l 648 834 l 332 834 m 304 1072 l 481 1248 l 597 1248 l 774 1072 l 623 1072 l 503 1211 l 575 1211 l 455 1072 l 304 1072 z "},"K":{"ha":814,"x_min":102,"x_max":788,"o":"m 187 307 l 199 441 q 380 485 304 441 q 505 603 456 528 q 578 770 554 677 q 602 963 602 863 l 742 963 q 705 717 742 835 q 596 506 667 599 q 422 360 525 414 q 187 307 319 307 m 102 0 l 102 963 l 243 963 l 243 0 l 102 0 m 624 0 l 380 469 l 502 538 l 788 0 l 624 0 z "},"Ḱ":{"ha":814,"x_min":102,"x_max":788,"o":"m 187 307 l 199 441 q 380 485 304 441 q 505 603 456 528 q 578 770 554 677 q 602 963 602 863 l 742 963 q 705 717 742 835 q 596 506 667 599 q 422 360 525 414 q 187 307 319 307 m 102 0 l 102 963 l 243 963 l 243 0 l 102 0 m 624 0 l 380 469 l 502 538 l 788 0 l 624 0 m 332 1072 l 481 1241 l 672 1241 l 489 1072 l 332 1072 z "},"Ķ":{"ha":814,"x_min":102,"x_max":788,"o":"m 187 307 l 199 441 q 380 485 304 441 q 505 603 456 528 q 578 770 554 677 q 602 963 602 863 l 742 963 q 705 717 742 835 q 596 506 667 599 q 422 360 525 414 q 187 307 319 307 m 102 0 l 102 963 l 243 963 l 243 0 l 102 0 m 624 0 l 380 469 l 502 538 l 788 0 l 624 0 z "},"Ḳ":{"ha":814,"x_min":102,"x_max":788,"o":"m 187 307 l 199 441 q 380 485 304 441 q 505 603 456 528 q 578 770 554 677 q 602 963 602 863 l 742 963 q 705 717 742 835 q 596 506 667 599 q 422 360 525 414 q 187 307 319 307 m 102 0 l 102 963 l 243 963 l 243 0 l 102 0 m 624 0 l 380 469 l 502 538 l 788 0 l 624 0 m 420 -285 q 356 -258 383 -285 q 330 -194 330 -231 q 356 -130 330 -156 q 420 -103 383 -103 q 485 -130 458 -103 q 511 -194 511 -156 q 485 -258 511 -231 q 420 -285 458 -285 z "},"Ḵ":{"ha":814,"x_min":102,"x_max":788,"o":"m 187 307 l 199 441 q 380 485 304 441 q 505 603 456 528 q 578 770 554 677 q 602 963 602 863 l 742 963 q 705 717 742 835 q 596 506 667 599 q 422 360 525 414 q 187 307 319 307 m 102 0 l 102 963 l 243 963 l 243 0 l 102 0 m 624 0 l 380 469 l 502 538 l 788 0 l 624 0 m 129 -269 l 129 -141 l 712 -141 l 712 -269 l 129 -269 z "},"L":{"ha":814,"x_min":109,"x_max":746,"o":"m 109 0 l 109 963 l 250 963 l 250 0 l 109 0 m 109 0 l 109 129 l 746 129 l 746 0 l 109 0 z "},"Ĺ":{"ha":814,"x_min":90,"x_max":746,"o":"m 109 0 l 109 963 l 250 963 l 250 0 l 109 0 m 109 0 l 109 129 l 746 129 l 746 0 l 109 0 m 90 1072 l 239 1241 l 431 1241 l 248 1072 l 90 1072 z "},"Ƚ":{"ha":814,"x_min":-14,"x_max":746,"o":"m -14 439 l -14 568 l 553 568 l 553 439 l -14 439 m 109 0 l 109 963 l 250 963 l 250 0 l 109 0 m 109 0 l 109 129 l 746 129 l 746 0 l 109 0 z "},"Ľ":{"ha":814,"x_min":109,"x_max":746,"o":"m 517 806 l 551 1063 l 694 1063 l 633 806 l 517 806 m 109 0 l 109 963 l 250 963 l 250 0 l 109 0 m 109 0 l 109 129 l 746 129 l 746 0 l 109 0 z "},"Ļ":{"ha":814,"x_min":109,"x_max":746,"o":"m 109 0 l 109 963 l 250 963 l 250 0 l 109 0 m 109 0 l 109 129 l 746 129 l 746 0 l 109 0 z "},"Ŀ":{"ha":814,"x_min":109,"x_max":746,"o":"m 109 0 l 109 963 l 250 963 l 250 0 l 109 0 m 109 0 l 109 129 l 746 129 l 746 0 l 109 0 z "},"Ḷ":{"ha":814,"x_min":109,"x_max":746,"o":"m 109 0 l 109 963 l 250 963 l 250 0 l 109 0 m 109 0 l 109 129 l 746 129 l 746 0 l 109 0 m 420 -285 q 356 -258 383 -285 q 330 -194 330 -231 q 356 -130 330 -156 q 420 -103 383 -103 q 485 -130 458 -103 q 511 -194 511 -156 q 485 -258 511 -231 q 420 -285 458 -285 z "},"Ḻ":{"ha":814,"x_min":109,"x_max":746,"o":"m 109 0 l 109 963 l 250 963 l 250 0 l 109 0 m 109 0 l 109 129 l 746 129 l 746 0 l 109 0 m 129 -269 l 129 -141 l 712 -141 l 712 -269 l 129 -269 z "},"Ɫ":{"ha":814,"x_min":-1,"x_max":746,"o":"m -1 399 l -1 456 q 36 583 -1 543 q 153 622 73 622 q 238 607 198 622 q 314 574 278 591 q 376 541 350 555 q 433 527 403 527 q 473 578 473 527 l 473 640 l 596 640 l 596 583 q 564 457 596 496 q 459 418 531 418 q 375 433 415 418 q 300 466 335 448 q 235 499 263 486 q 174 513 207 513 q 123 462 123 513 l 123 399 l -1 399 m 224 0 l 224 129 l 746 129 l 746 0 l 224 0 m 224 0 l 224 963 l 365 963 l 365 0 l 224 0 z "},"Ł":{"ha":814,"x_min":39,"x_max":746,"o":"m 39 309 l 39 434 l 586 719 l 586 593 l 39 309 m 176 0 l 176 129 l 746 129 l 746 0 l 176 0 m 176 0 l 176 963 l 317 963 l 317 0 l 176 0 z "},"M":{"ha":814,"x_min":87,"x_max":727,"o":"m 384 393 l 404 549 l 412 549 l 517 963 l 613 963 l 613 792 l 574 792 l 469 393 l 384 393 m 87 0 l 87 963 l 222 963 l 222 0 l 87 0 m 345 393 l 240 792 l 201 792 l 201 963 l 297 963 l 401 549 l 407 549 l 420 393 l 345 393 m 591 0 l 591 963 l 727 963 l 727 0 l 591 0 z "},"N":{"ha":814,"x_min":100,"x_max":713,"o":"m 532 0 l 255 732 l 193 732 l 193 963 l 282 963 l 559 231 l 593 231 l 593 0 l 532 0 m 100 0 l 100 963 l 241 963 l 241 0 l 100 0 m 572 0 l 572 963 l 713 963 l 713 0 l 572 0 z "},"Ń":{"ha":814,"x_min":100,"x_max":713,"o":"m 532 0 l 255 732 l 193 732 l 193 963 l 282 963 l 559 231 l 593 231 l 593 0 l 532 0 m 100 0 l 100 963 l 241 963 l 241 0 l 100 0 m 572 0 l 572 963 l 713 963 l 713 0 l 572 0 m 318 1072 l 467 1241 l 659 1241 l 475 1072 l 318 1072 z "},"Ň":{"ha":814,"x_min":100,"x_max":713,"o":"m 532 0 l 255 732 l 193 732 l 193 963 l 282 963 l 559 231 l 593 231 l 593 0 l 532 0 m 100 0 l 100 963 l 241 963 l 241 0 l 100 0 m 572 0 l 572 963 l 713 963 l 713 0 l 572 0 m 349 1072 l 172 1248 l 323 1248 l 414 1142 l 400 1142 l 491 1248 l 642 1248 l 465 1072 l 349 1072 z "},"Ņ":{"ha":814,"x_min":100,"x_max":713,"o":"m 532 0 l 255 732 l 193 732 l 193 963 l 282 963 l 559 231 l 593 231 l 593 0 l 532 0 m 100 0 l 100 963 l 241 963 l 241 0 l 100 0 m 572 0 l 572 963 l 713 963 l 713 0 l 572 0 z "},"Ŋ":{"ha":814,"x_min":100,"x_max":713,"o":"m 402 -326 l 389 -190 l 470 -178 q 547 -142 521 -170 q 572 -58 572 -113 l 572 125 l 713 125 l 713 -65 q 687 -193 713 -138 q 611 -279 661 -247 q 490 -317 562 -311 l 402 -326 m 532 0 l 255 732 l 193 732 l 193 963 l 282 963 l 559 231 l 593 231 l 593 0 l 532 0 m 100 0 l 100 963 l 241 963 l 241 0 l 100 0 m 572 0 l 572 963 l 713 963 l 713 0 l 572 0 z "},"Ɲ":{"ha":814,"x_min":-53,"x_max":713,"o":"m -46 -323 l -53 -187 l -5 -180 q 74 -141 47 -172 q 100 -54 100 -111 l 100 125 l 241 125 l 241 -65 q 180 -242 241 -178 q 8 -317 119 -306 l -46 -323 m 532 0 l 255 732 l 193 732 l 193 963 l 282 963 l 559 231 l 593 231 l 593 0 l 532 0 m 100 0 l 100 963 l 241 963 l 241 0 l 100 0 m 572 0 l 572 963 l 713 963 l 713 0 l 572 0 z "},"Ṉ":{"ha":814,"x_min":100,"x_max":713,"o":"m 532 0 l 255 732 l 193 732 l 193 963 l 282 963 l 559 231 l 593 231 l 593 0 l 532 0 m 100 0 l 100 963 l 241 963 l 241 0 l 100 0 m 572 0 l 572 963 l 713 963 l 713 0 l 572 0 m 115 -269 l 115 -141 l 699 -141 l 699 -269 l 115 -269 z "},"Ñ":{"ha":814,"x_min":100,"x_max":713,"o":"m 532 0 l 255 732 l 193 732 l 193 963 l 282 963 l 559 231 l 593 231 l 593 0 l 532 0 m 100 0 l 100 963 l 241 963 l 241 0 l 100 0 m 572 0 l 572 963 l 713 963 l 713 0 l 572 0 m 153 1062 l 153 1096 q 188 1223 153 1181 q 295 1265 224 1265 q 353 1257 323 1265 q 422 1232 383 1249 q 484 1207 463 1216 q 522 1198 505 1198 q 558 1241 558 1198 l 558 1282 l 675 1282 l 675 1248 q 643 1126 675 1166 q 547 1085 611 1085 q 492 1095 524 1085 q 416 1122 460 1104 q 363 1144 387 1135 q 321 1153 338 1153 q 271 1103 271 1153 l 271 1062 l 153 1062 z "},"O":{"ha":814,"x_min":52,"x_max":762,"o":"m 407 -14 q 52 475 52 -14 q 407 977 52 977 q 762 475 762 977 q 407 -14 762 -14 m 407 111 q 617 475 617 111 q 407 852 617 852 q 197 475 197 852 q 407 111 197 111 z "},"Ó":{"ha":814,"x_min":52,"x_max":762,"o":"m 407 -14 q 52 475 52 -14 q 407 977 52 977 q 762 475 762 977 q 407 -14 762 -14 m 407 111 q 617 475 617 111 q 407 852 617 852 q 197 475 197 852 q 407 111 197 111 m 318 1072 l 467 1241 l 659 1241 l 475 1072 l 318 1072 z "},"Ŏ":{"ha":814,"x_min":52,"x_max":762,"o":"m 407 -14 q 52 475 52 -14 q 407 977 52 977 q 762 475 762 977 q 407 -14 762 -14 m 407 111 q 617 475 617 111 q 407 852 617 852 q 197 475 197 852 q 407 111 197 111 m 407 1065 q 220 1116 286 1065 q 153 1261 153 1168 l 272 1261 q 308 1184 272 1212 q 407 1157 343 1157 q 507 1184 471 1157 q 542 1261 542 1212 l 661 1261 q 594 1116 661 1168 q 407 1065 528 1065 z "},"Ô":{"ha":814,"x_min":52,"x_max":762,"o":"m 407 -14 q 52 475 52 -14 q 407 977 52 977 q 762 475 762 977 q 407 -14 762 -14 m 407 111 q 617 475 617 111 q 407 852 617 852 q 197 475 197 852 q 407 111 197 111 m 176 1072 l 352 1248 l 469 1248 l 645 1072 l 494 1072 l 374 1211 l 446 1211 l 326 1072 l 176 1072 z "},"Ố":{"ha":814,"x_min":52,"x_max":897,"o":"m 407 -14 q 52 475 52 -14 q 407 977 52 977 q 762 475 762 977 q 407 -14 762 -14 m 407 111 q 617 475 617 111 q 407 852 617 852 q 197 475 197 852 q 407 111 197 111 m 176 1072 l 352 1248 l 469 1248 l 645 1072 l 494 1072 l 374 1211 l 446 1211 l 326 1072 l 176 1072 m 556 1240 l 705 1409 l 897 1409 l 713 1240 l 556 1240 z "},"Ộ":{"ha":814,"x_min":52,"x_max":762,"o":"m 407 -14 q 52 475 52 -14 q 407 977 52 977 q 762 475 762 977 q 407 -14 762 -14 m 407 111 q 617 475 617 111 q 407 852 617 852 q 197 475 197 852 q 407 111 197 111 m 407 -285 q 343 -258 370 -285 q 316 -194 316 -231 q 343 -130 316 -156 q 407 -103 370 -103 q 471 -130 445 -103 q 498 -194 498 -156 q 471 -258 498 -231 q 407 -285 445 -285 m 176 1072 l 352 1248 l 469 1248 l 645 1072 l 494 1072 l 374 1211 l 446 1211 l 326 1072 l 176 1072 z "},"Ồ":{"ha":814,"x_min":52,"x_max":762,"o":"m 407 -14 q 52 475 52 -14 q 407 977 52 977 q 762 475 762 977 q 407 -14 762 -14 m 407 111 q 617 475 617 111 q 407 852 617 852 q 197 475 197 852 q 407 111 197 111 m 176 1072 l 352 1248 l 469 1248 l 645 1072 l 494 1072 l 374 1211 l 446 1211 l 326 1072 l 176 1072 m 583 1240 l 400 1409 l 591 1409 l 741 1240 l 583 1240 z "},"Ổ":{"ha":814,"x_min":52,"x_max":804,"o":"m 407 -14 q 52 475 52 -14 q 407 977 52 977 q 762 475 762 977 q 407 -14 762 -14 m 407 111 q 617 475 617 111 q 407 852 617 852 q 197 475 197 852 q 407 111 197 111 m 176 1072 l 352 1248 l 469 1248 l 645 1072 l 494 1072 l 374 1211 l 446 1211 l 326 1072 l 176 1072 m 599 1205 l 599 1219 q 609 1243 599 1232 q 644 1272 619 1255 q 681 1300 670 1289 q 692 1322 692 1312 q 636 1357 692 1357 q 525 1328 571 1357 l 479 1409 q 650 1459 534 1459 q 804 1349 804 1459 q 786 1281 804 1308 q 724 1229 768 1255 q 708 1217 713 1223 q 704 1205 704 1212 l 599 1205 z "},"Ỗ":{"ha":814,"x_min":52,"x_max":762,"o":"m 407 -14 q 52 475 52 -14 q 407 977 52 977 q 762 475 762 977 q 407 -14 762 -14 m 407 111 q 617 475 617 111 q 407 852 617 852 q 197 475 197 852 q 407 111 197 111 m 176 1072 l 352 1248 l 469 1248 l 645 1072 l 494 1072 l 374 1211 l 446 1211 l 326 1072 l 176 1072 m 153 1320 l 153 1354 q 188 1481 153 1438 q 295 1523 224 1523 q 353 1515 323 1523 q 422 1490 383 1506 q 484 1465 463 1474 q 522 1455 505 1455 q 558 1499 558 1455 l 558 1539 l 675 1539 l 675 1506 q 643 1383 675 1424 q 547 1343 611 1343 q 492 1352 524 1343 q 416 1380 460 1362 q 363 1401 387 1392 q 321 1411 338 1411 q 271 1360 271 1411 l 271 1320 l 153 1320 z "},"Ö":{"ha":814,"x_min":52,"x_max":762,"o":"m 407 -14 q 52 475 52 -14 q 407 977 52 977 q 762 475 762 977 q 407 -14 762 -14 m 407 111 q 617 475 617 111 q 407 852 617 852 q 197 475 197 852 q 407 111 197 111 m 548 1072 q 484 1098 511 1072 q 457 1162 457 1125 q 484 1227 457 1200 q 548 1253 511 1253 q 612 1227 586 1253 q 639 1162 639 1200 q 612 1098 639 1125 q 548 1072 586 1072 m 266 1072 q 202 1098 229 1072 q 175 1162 175 1125 q 202 1227 175 1200 q 266 1253 229 1253 q 330 1227 304 1253 q 357 1162 357 1200 q 330 1098 357 1125 q 266 1072 304 1072 z "},"Ọ":{"ha":814,"x_min":52,"x_max":762,"o":"m 407 -14 q 52 475 52 -14 q 407 977 52 977 q 762 475 762 977 q 407 -14 762 -14 m 407 111 q 617 475 617 111 q 407 852 617 852 q 197 475 197 852 q 407 111 197 111 m 407 -285 q 343 -258 370 -285 q 316 -194 316 -231 q 343 -130 316 -156 q 407 -103 370 -103 q 471 -130 445 -103 q 498 -194 498 -156 q 471 -258 498 -231 q 407 -285 445 -285 z "},"Ò":{"ha":814,"x_min":52,"x_max":762,"o":"m 407 -14 q 52 475 52 -14 q 407 977 52 977 q 762 475 762 977 q 407 -14 762 -14 m 407 111 q 617 475 617 111 q 407 852 617 852 q 197 475 197 852 q 407 111 197 111 m 345 1072 l 162 1241 l 353 1241 l 503 1072 l 345 1072 z "},"Ỏ":{"ha":814,"x_min":52,"x_max":762,"o":"m 407 -14 q 52 475 52 -14 q 407 977 52 977 q 762 475 762 977 q 407 -14 762 -14 m 407 111 q 617 475 617 111 q 407 852 617 852 q 197 475 197 852 q 407 111 197 111 m 361 1037 l 361 1051 q 371 1075 361 1063 q 406 1104 381 1087 q 443 1132 432 1121 q 454 1154 454 1143 q 398 1189 454 1189 q 287 1160 333 1189 l 241 1240 q 412 1291 296 1291 q 566 1181 566 1291 q 548 1113 566 1140 q 486 1061 530 1086 q 470 1049 475 1055 q 466 1037 466 1044 l 361 1037 z "},"Ơ":{"ha":814,"x_min":52,"x_max":846,"o":"m 407 -14 q 52 475 52 -14 q 407 977 52 977 q 762 475 762 977 q 407 -14 762 -14 m 407 111 q 617 475 617 111 q 407 852 617 852 q 197 475 197 852 q 407 111 197 111 m 570 817 l 536 929 l 577 936 q 682 994 647 947 q 716 1121 716 1040 l 846 1121 q 788 918 846 992 q 611 824 729 844 l 570 817 z "},"Ớ":{"ha":814,"x_min":52,"x_max":846,"o":"m 407 -14 q 52 475 52 -14 q 407 977 52 977 q 762 475 762 977 q 407 -14 762 -14 m 407 111 q 617 475 617 111 q 407 852 617 852 q 197 475 197 852 q 407 111 197 111 m 570 817 l 536 929 l 577 936 q 682 994 647 947 q 716 1121 716 1040 l 846 1121 q 788 918 846 992 q 611 824 729 844 l 570 817 m 318 1072 l 467 1241 l 659 1241 l 475 1072 l 318 1072 z "},"Ợ":{"ha":814,"x_min":52,"x_max":846,"o":"m 407 -14 q 52 475 52 -14 q 407 977 52 977 q 762 475 762 977 q 407 -14 762 -14 m 407 111 q 617 475 617 111 q 407 852 617 852 q 197 475 197 852 q 407 111 197 111 m 570 817 l 536 929 l 577 936 q 682 994 647 947 q 716 1121 716 1040 l 846 1121 q 788 918 846 992 q 611 824 729 844 l 570 817 m 407 -285 q 343 -258 370 -285 q 316 -194 316 -231 q 343 -130 316 -156 q 407 -103 370 -103 q 471 -130 445 -103 q 498 -194 498 -156 q 471 -258 498 -231 q 407 -285 445 -285 z "},"Ờ":{"ha":814,"x_min":52,"x_max":846,"o":"m 407 -14 q 52 475 52 -14 q 407 977 52 977 q 762 475 762 977 q 407 -14 762 -14 m 407 111 q 617 475 617 111 q 407 852 617 852 q 197 475 197 852 q 407 111 197 111 m 570 817 l 536 929 l 577 936 q 682 994 647 947 q 716 1121 716 1040 l 846 1121 q 788 918 846 992 q 611 824 729 844 l 570 817 m 345 1072 l 162 1241 l 353 1241 l 503 1072 l 345 1072 z "},"Ở":{"ha":814,"x_min":52,"x_max":846,"o":"m 407 -14 q 52 475 52 -14 q 407 977 52 977 q 762 475 762 977 q 407 -14 762 -14 m 407 111 q 617 475 617 111 q 407 852 617 852 q 197 475 197 852 q 407 111 197 111 m 570 817 l 536 929 l 577 936 q 682 994 647 947 q 716 1121 716 1040 l 846 1121 q 788 918 846 992 q 611 824 729 844 l 570 817 m 361 1037 l 361 1051 q 371 1075 361 1063 q 406 1104 381 1087 q 443 1132 432 1121 q 454 1154 454 1143 q 398 1189 454 1189 q 287 1160 333 1189 l 241 1240 q 412 1291 296 1291 q 566 1181 566 1291 q 548 1113 566 1140 q 486 1061 530 1086 q 470 1049 475 1055 q 466 1037 466 1044 l 361 1037 z "},"Ỡ":{"ha":814,"x_min":52,"x_max":846,"o":"m 407 -14 q 52 475 52 -14 q 407 977 52 977 q 762 475 762 977 q 407 -14 762 -14 m 407 111 q 617 475 617 111 q 407 852 617 852 q 197 475 197 852 q 407 111 197 111 m 570 817 l 536 929 l 577 936 q 682 994 647 947 q 716 1121 716 1040 l 846 1121 q 788 918 846 992 q 611 824 729 844 l 570 817 m 153 1062 l 153 1096 q 188 1223 153 1181 q 295 1265 224 1265 q 353 1257 323 1265 q 422 1232 383 1249 q 484 1207 463 1216 q 522 1198 505 1198 q 558 1241 558 1198 l 558 1282 l 675 1282 l 675 1248 q 643 1126 675 1166 q 547 1085 611 1085 q 492 1095 524 1085 q 416 1122 460 1104 q 363 1144 387 1135 q 321 1153 338 1153 q 271 1103 271 1153 l 271 1062 l 153 1062 z "},"Ő":{"ha":814,"x_min":52,"x_max":762,"o":"m 407 -14 q 52 475 52 -14 q 407 977 52 977 q 762 475 762 977 q 407 -14 762 -14 m 407 111 q 617 475 617 111 q 407 852 617 852 q 197 475 197 852 q 407 111 197 111 m 447 1072 l 555 1241 l 747 1241 l 611 1072 l 447 1072 m 169 1072 l 277 1241 l 469 1241 l 333 1072 l 169 1072 z "},"Ō":{"ha":814,"x_min":52,"x_max":762,"o":"m 407 -14 q 52 475 52 -14 q 407 977 52 977 q 762 475 762 977 q 407 -14 762 -14 m 407 111 q 617 475 617 111 q 407 852 617 852 q 197 475 197 852 q 407 111 197 111 m 144 1072 l 144 1199 l 669 1199 l 669 1072 l 144 1072 z "},"Ṓ":{"ha":814,"x_min":52,"x_max":762,"o":"m 407 -14 q 52 475 52 -14 q 407 977 52 977 q 762 475 762 977 q 407 -14 762 -14 m 407 111 q 617 475 617 111 q 407 852 617 852 q 197 475 197 852 q 407 111 197 111 m 144 1072 l 144 1199 l 669 1199 l 669 1072 l 144 1072 m 318 1280 l 467 1450 l 659 1450 l 475 1280 l 318 1280 z "},"Ṑ":{"ha":814,"x_min":52,"x_max":762,"o":"m 407 -14 q 52 475 52 -14 q 407 977 52 977 q 762 475 762 977 q 407 -14 762 -14 m 407 111 q 617 475 617 111 q 407 852 617 852 q 197 475 197 852 q 407 111 197 111 m 144 1072 l 144 1199 l 669 1199 l 669 1072 l 144 1072 m 345 1280 l 162 1450 l 353 1450 l 503 1280 l 345 1280 z "},"Ǫ":{"ha":814,"x_min":52,"x_max":762,"o":"m 446 -288 q 326 -253 368 -288 q 283 -157 283 -219 q 361 -27 283 -53 l 361 20 l 503 27 l 533 5 q 466 -19 500 -6 q 408 -54 431 -32 q 385 -114 385 -76 q 401 -153 385 -132 q 464 -174 416 -174 q 519 -166 489 -174 l 507 -281 q 475 -286 490 -284 q 446 -288 460 -288 m 407 -14 q 52 475 52 -14 q 407 977 52 977 q 762 475 762 977 q 407 -14 762 -14 m 407 111 q 617 475 617 111 q 407 852 617 852 q 197 475 197 852 q 407 111 197 111 z "},"Ɔ":{"ha":814,"x_min":32,"x_max":769,"o":"m 343 -14 q 172 16 252 -14 q 32 102 92 45 l 130 198 q 203 146 170 165 q 272 119 237 127 q 351 111 307 111 q 555 209 482 111 q 629 478 629 307 q 547 754 629 656 q 306 852 466 852 q 110 811 205 852 l 79 930 q 329 977 197 977 q 657 850 546 977 q 769 484 769 723 q 663 119 769 251 q 343 -14 556 -14 z "},"Ø":{"ha":814,"x_min":45,"x_max":762,"o":"m 136 -91 l 45 -40 l 664 1039 l 755 988 l 136 -91 m 407 -14 q 52 475 52 -14 q 407 977 52 977 q 762 475 762 977 q 407 -14 762 -14 m 407 111 q 617 475 617 111 q 407 852 617 852 q 197 475 197 852 q 407 111 197 111 z "},"Ǿ":{"ha":814,"x_min":45,"x_max":762,"o":"m 136 -91 l 45 -40 l 664 1039 l 755 988 l 136 -91 m 407 -14 q 52 475 52 -14 q 407 977 52 977 q 762 475 762 977 q 407 -14 762 -14 m 407 111 q 617 475 617 111 q 407 852 617 852 q 197 475 197 852 q 407 111 197 111 m 318 1072 l 467 1241 l 659 1241 l 475 1072 l 318 1072 z "},"Õ":{"ha":814,"x_min":52,"x_max":762,"o":"m 407 -14 q 52 475 52 -14 q 407 977 52 977 q 762 475 762 977 q 407 -14 762 -14 m 407 111 q 617 475 617 111 q 407 852 617 852 q 197 475 197 852 q 407 111 197 111 m 153 1062 l 153 1096 q 188 1223 153 1181 q 295 1265 224 1265 q 353 1257 323 1265 q 422 1232 383 1249 q 484 1207 463 1216 q 522 1198 505 1198 q 558 1241 558 1198 l 558 1282 l 675 1282 l 675 1248 q 643 1126 675 1166 q 547 1085 611 1085 q 492 1095 524 1085 q 416 1122 460 1104 q 363 1144 387 1135 q 321 1153 338 1153 q 271 1103 271 1153 l 271 1062 l 153 1062 z "},"Œ":{"ha":814,"x_min":52,"x_max":746,"o":"m 353 -14 q 131 114 210 -14 q 52 475 52 242 q 131 845 52 714 q 353 977 210 977 q 412 970 387 977 q 468 963 437 963 l 536 963 l 536 0 l 475 0 q 421 -7 451 0 q 353 -14 391 -14 m 434 0 l 434 122 l 746 122 l 746 0 l 434 0 m 359 111 q 393 115 378 111 l 393 837 q 353 852 376 852 q 235 753 277 852 q 194 475 194 654 q 237 206 194 301 q 359 111 281 111 m 454 421 l 454 543 l 705 543 l 705 421 l 454 421 m 427 841 l 427 963 l 746 963 l 746 841 l 427 841 z "},"P":{"ha":814,"x_min":109,"x_max":760,"o":"m 233 298 l 233 427 l 392 427 q 560 483 503 427 q 617 644 617 538 q 560 786 617 738 q 392 834 503 834 l 236 834 l 236 963 l 392 963 q 666 882 573 963 q 760 644 760 802 q 666 386 760 474 q 392 298 573 298 l 233 298 m 109 0 l 109 963 l 250 963 l 250 0 l 109 0 z "},"Þ":{"ha":814,"x_min":109,"x_max":760,"o":"m 233 149 l 233 278 l 392 278 q 558 332 499 278 q 617 481 617 385 q 558 632 617 579 q 392 685 499 685 l 236 685 l 236 814 l 392 814 q 663 727 567 814 q 760 481 760 640 q 663 236 760 323 q 392 149 567 149 l 233 149 m 109 0 l 109 963 l 250 963 l 250 0 l 109 0 z "},"Q":{"ha":814,"x_min":52,"x_max":762,"o":"m 631 -312 q 410 -237 484 -312 q 336 -14 336 -163 l 336 42 l 471 42 l 471 -15 q 511 -146 471 -102 q 631 -190 551 -190 l 700 -190 l 686 -312 l 631 -312 m 407 -14 q 52 475 52 -14 q 407 977 52 977 q 762 475 762 977 q 407 -14 762 -14 m 407 111 q 617 475 617 111 q 407 852 617 852 q 197 475 197 852 q 407 111 197 111 z "},"R":{"ha":814,"x_min":95,"x_max":774,"o":"m 227 366 l 227 495 l 426 495 q 552 538 507 495 q 597 658 597 581 q 552 788 597 743 q 426 834 507 834 l 229 834 l 213 963 l 426 963 q 657 887 576 963 q 739 671 739 811 q 657 446 739 526 q 426 366 576 366 l 227 366 m 95 0 l 95 963 l 236 963 l 236 0 l 95 0 m 612 0 l 396 453 l 545 453 l 774 0 l 612 0 z "},"Ŕ":{"ha":814,"x_min":95,"x_max":774,"o":"m 227 366 l 227 495 l 426 495 q 552 538 507 495 q 597 658 597 581 q 552 788 597 743 q 426 834 507 834 l 229 834 l 213 963 l 426 963 q 657 887 576 963 q 739 671 739 811 q 657 446 739 526 q 426 366 576 366 l 227 366 m 95 0 l 95 963 l 236 963 l 236 0 l 95 0 m 612 0 l 396 453 l 545 453 l 774 0 l 612 0 m 291 1072 l 440 1241 l 631 1241 l 448 1072 l 291 1072 z "},"Ř":{"ha":814,"x_min":95,"x_max":774,"o":"m 227 366 l 227 495 l 426 495 q 552 538 507 495 q 597 658 597 581 q 552 788 597 743 q 426 834 507 834 l 229 834 l 213 963 l 426 963 q 657 887 576 963 q 739 671 739 811 q 657 446 739 526 q 426 366 576 366 l 227 366 m 95 0 l 95 963 l 236 963 l 236 0 l 95 0 m 612 0 l 396 453 l 545 453 l 774 0 l 612 0 m 321 1072 l 145 1248 l 296 1248 l 387 1142 l 373 1142 l 464 1248 l 614 1248 l 438 1072 l 321 1072 z "},"Ŗ":{"ha":814,"x_min":95,"x_max":774,"o":"m 227 366 l 227 495 l 426 495 q 552 538 507 495 q 597 658 597 581 q 552 788 597 743 q 426 834 507 834 l 229 834 l 213 963 l 426 963 q 657 887 576 963 q 739 671 739 811 q 657 446 739 526 q 426 366 576 366 l 227 366 m 95 0 l 95 963 l 236 963 l 236 0 l 95 0 m 612 0 l 396 453 l 545 453 l 774 0 l 612 0 z "},"Ṛ":{"ha":814,"x_min":95,"x_max":774,"o":"m 227 366 l 227 495 l 426 495 q 552 538 507 495 q 597 658 597 581 q 552 788 597 743 q 426 834 507 834 l 229 834 l 213 963 l 426 963 q 657 887 576 963 q 739 671 739 811 q 657 446 739 526 q 426 366 576 366 l 227 366 m 95 0 l 95 963 l 236 963 l 236 0 l 95 0 m 612 0 l 396 453 l 545 453 l 774 0 l 612 0 m 414 -285 q 350 -258 376 -285 q 323 -194 323 -231 q 350 -130 323 -156 q 414 -103 376 -103 q 478 -130 452 -103 q 505 -194 505 -156 q 478 -258 505 -231 q 414 -285 452 -285 z "},"S":{"ha":814,"x_min":87,"x_max":720,"o":"m 374 -14 q 220 0 292 -14 q 87 39 149 13 l 105 176 q 249 128 180 144 q 385 111 319 111 q 526 144 479 111 q 572 245 572 178 q 484 372 572 332 l 317 448 q 166 555 218 492 q 113 712 113 618 q 189 907 113 838 q 404 977 265 977 q 576 948 501 977 q 720 855 650 920 l 625 759 q 513 830 565 808 q 405 852 461 852 q 297 818 335 852 q 258 719 258 785 q 283 643 258 672 q 357 590 309 613 l 498 524 q 661 410 606 473 q 717 248 717 347 q 632 52 717 117 q 374 -14 547 -14 z "},"Ś":{"ha":814,"x_min":87,"x_max":720,"o":"m 374 -14 q 220 0 292 -14 q 87 39 149 13 l 105 176 q 249 128 180 144 q 385 111 319 111 q 526 144 479 111 q 572 245 572 178 q 484 372 572 332 l 317 448 q 166 555 218 492 q 113 712 113 618 q 189 907 113 838 q 404 977 265 977 q 576 948 501 977 q 720 855 650 920 l 625 759 q 513 830 565 808 q 405 852 461 852 q 297 818 335 852 q 258 719 258 785 q 283 643 258 672 q 357 590 309 613 l 498 524 q 661 410 606 473 q 717 248 717 347 q 632 52 717 117 q 374 -14 547 -14 m 332 1072 l 481 1241 l 672 1241 l 489 1072 l 332 1072 z "},"Š":{"ha":814,"x_min":87,"x_max":720,"o":"m 374 -14 q 220 0 292 -14 q 87 39 149 13 l 105 176 q 249 128 180 144 q 385 111 319 111 q 526 144 479 111 q 572 245 572 178 q 484 372 572 332 l 317 448 q 166 555 218 492 q 113 712 113 618 q 189 907 113 838 q 404 977 265 977 q 576 948 501 977 q 720 855 650 920 l 625 759 q 513 830 565 808 q 405 852 461 852 q 297 818 335 852 q 258 719 258 785 q 283 643 258 672 q 357 590 309 613 l 498 524 q 661 410 606 473 q 717 248 717 347 q 632 52 717 117 q 374 -14 547 -14 m 362 1072 l 186 1248 l 336 1248 l 427 1142 l 414 1142 l 505 1248 l 655 1248 l 479 1072 l 362 1072 z "},"Ş":{"ha":814,"x_min":87,"x_max":720,"o":"m 374 -14 q 220 0 292 -14 q 87 39 149 13 l 105 176 q 249 128 180 144 q 385 111 319 111 q 526 144 479 111 q 572 245 572 178 q 484 372 572 332 l 317 448 q 166 555 218 492 q 113 712 113 618 q 189 907 113 838 q 404 977 265 977 q 576 948 501 977 q 720 855 650 920 l 625 759 q 513 830 565 808 q 405 852 461 852 q 297 818 335 852 q 258 719 258 785 q 283 643 258 672 q 357 590 309 613 l 498 524 q 661 410 606 473 q 717 248 717 347 q 632 52 717 117 q 374 -14 547 -14 m 304 -326 l 304 -224 q 400 -212 369 -224 q 432 -175 432 -199 q 405 -140 432 -151 q 322 -129 378 -129 l 369 4 l 461 -3 l 444 -68 q 532 -108 503 -80 q 561 -181 561 -136 q 497 -289 561 -253 q 304 -326 433 -326 z "},"Ŝ":{"ha":814,"x_min":87,"x_max":720,"o":"m 374 -14 q 220 0 292 -14 q 87 39 149 13 l 105 176 q 249 128 180 144 q 385 111 319 111 q 526 144 479 111 q 572 245 572 178 q 484 372 572 332 l 317 448 q 166 555 218 492 q 113 712 113 618 q 189 907 113 838 q 404 977 265 977 q 576 948 501 977 q 720 855 650 920 l 625 759 q 513 830 565 808 q 405 852 461 852 q 297 818 335 852 q 258 719 258 785 q 283 643 258 672 q 357 590 309 613 l 498 524 q 661 410 606 473 q 717 248 717 347 q 632 52 717 117 q 374 -14 547 -14 m 189 1072 l 366 1248 l 482 1248 l 659 1072 l 508 1072 l 388 1211 l 460 1211 l 340 1072 l 189 1072 z "},"Ș":{"ha":814,"x_min":87,"x_max":720,"o":"m 374 -14 q 220 0 292 -14 q 87 39 149 13 l 105 176 q 249 128 180 144 q 385 111 319 111 q 526 144 479 111 q 572 245 572 178 q 484 372 572 332 l 317 448 q 166 555 218 492 q 113 712 113 618 q 189 907 113 838 q 404 977 265 977 q 576 948 501 977 q 720 855 650 920 l 625 759 q 513 830 565 808 q 405 852 461 852 q 297 818 335 852 q 258 719 258 785 q 283 643 258 672 q 357 590 309 613 l 498 524 q 661 410 606 473 q 717 248 717 347 q 632 52 717 117 q 374 -14 547 -14 z "},"Ṣ":{"ha":814,"x_min":87,"x_max":720,"o":"m 374 -14 q 220 0 292 -14 q 87 39 149 13 l 105 176 q 249 128 180 144 q 385 111 319 111 q 526 144 479 111 q 572 245 572 178 q 484 372 572 332 l 317 448 q 166 555 218 492 q 113 712 113 618 q 189 907 113 838 q 404 977 265 977 q 576 948 501 977 q 720 855 650 920 l 625 759 q 513 830 565 808 q 405 852 461 852 q 297 818 335 852 q 258 719 258 785 q 283 643 258 672 q 357 590 309 613 l 498 524 q 661 410 606 473 q 717 248 717 347 q 632 52 717 117 q 374 -14 547 -14 m 414 -285 q 350 -258 376 -285 q 323 -194 323 -231 q 350 -130 323 -156 q 414 -103 376 -103 q 478 -130 452 -103 q 505 -194 505 -156 q 478 -258 505 -231 q 414 -285 452 -285 z "},"ẞ":{"ha":814,"x_min":95,"x_max":785,"o":"m 95 0 l 95 631 q 178 895 95 813 q 445 977 261 977 q 607 948 532 977 q 749 861 683 920 l 633 766 q 539 827 585 807 q 445 848 492 848 q 286 797 335 848 q 236 631 236 745 l 236 0 l 95 0 m 448 -14 q 311 2 367 -14 l 329 129 q 394 120 359 123 q 459 117 428 117 q 592 163 545 117 q 640 293 640 209 q 601 407 640 358 q 489 477 562 456 l 370 511 l 596 861 l 749 861 l 557 568 l 531 594 q 719 497 652 573 q 785 302 785 420 q 696 69 785 152 q 448 -14 608 -14 z "},"Ə":{"ha":814,"x_min":52,"x_max":762,"o":"m 407 -14 q 52 461 52 -14 q 52 502 52 482 q 54 541 53 522 l 196 530 q 194 461 194 497 q 407 111 194 111 q 620 475 620 111 q 339 852 620 852 q 133 825 229 852 l 114 945 q 339 977 220 977 q 762 475 762 977 q 407 -14 762 -14 m 54 412 l 54 541 l 692 541 l 692 412 l 54 412 z "},"T":{"ha":814,"x_min":54,"x_max":760,"o":"m 336 0 l 336 963 l 477 963 l 477 0 l 336 0 m 54 834 l 54 963 l 760 963 l 760 834 l 54 834 z "},"Ŧ":{"ha":814,"x_min":54,"x_max":760,"o":"m 130 398 l 130 527 l 684 527 l 684 398 l 130 398 m 336 0 l 336 963 l 477 963 l 477 0 l 336 0 m 54 834 l 54 963 l 760 963 l 760 834 l 54 834 z "},"Ť":{"ha":814,"x_min":54,"x_max":760,"o":"m 336 0 l 336 963 l 477 963 l 477 0 l 336 0 m 54 834 l 54 963 l 760 963 l 760 834 l 54 834 m 349 1072 l 172 1248 l 323 1248 l 414 1142 l 400 1142 l 491 1248 l 642 1248 l 465 1072 l 349 1072 z "},"Ţ":{"ha":814,"x_min":54,"x_max":760,"o":"m 336 0 l 336 963 l 477 963 l 477 0 l 336 0 m 54 834 l 54 963 l 760 963 l 760 834 l 54 834 m 294 -326 l 294 -224 q 390 -212 359 -224 q 422 -175 422 -199 q 395 -140 422 -151 q 312 -129 368 -129 l 359 4 l 451 -3 l 434 -68 q 522 -108 492 -80 q 551 -181 551 -136 q 487 -289 551 -253 q 294 -326 423 -326 z "},"Ț":{"ha":814,"x_min":54,"x_max":760,"o":"m 336 0 l 336 963 l 477 963 l 477 0 l 336 0 m 54 834 l 54 963 l 760 963 l 760 834 l 54 834 z "},"Ⱦ":{"ha":814,"x_min":54,"x_max":760,"o":"m 243 -237 l 161 -208 l 673 1164 l 755 1134 l 243 -237 m 336 0 l 336 963 l 477 963 l 477 0 l 336 0 m 54 834 l 54 963 l 760 963 l 760 834 l 54 834 z "},"Ṯ":{"ha":814,"x_min":54,"x_max":760,"o":"m 336 0 l 336 963 l 477 963 l 477 0 l 336 0 m 54 834 l 54 963 l 760 963 l 760 834 l 54 834 m 112 -269 l 112 -141 l 695 -141 l 695 -269 l 112 -269 z "},"U":{"ha":814,"x_min":95,"x_max":719,"o":"m 404 -14 q 95 309 95 -14 l 95 963 l 236 963 l 236 309 q 277 164 236 213 q 407 115 319 115 q 578 309 578 115 l 578 963 l 719 963 l 719 309 q 639 67 719 148 q 404 -14 559 -14 z "},"Ú":{"ha":814,"x_min":95,"x_max":719,"o":"m 404 -14 q 95 309 95 -14 l 95 963 l 236 963 l 236 309 q 277 164 236 213 q 407 115 319 115 q 578 309 578 115 l 578 963 l 719 963 l 719 309 q 639 67 719 148 q 404 -14 559 -14 m 318 1072 l 467 1241 l 659 1241 l 475 1072 l 318 1072 z "},"Ŭ":{"ha":814,"x_min":95,"x_max":719,"o":"m 404 -14 q 95 309 95 -14 l 95 963 l 236 963 l 236 309 q 277 164 236 213 q 407 115 319 115 q 578 309 578 115 l 578 963 l 719 963 l 719 309 q 639 67 719 148 q 404 -14 559 -14 m 407 1065 q 220 1116 286 1065 q 153 1261 153 1168 l 272 1261 q 308 1184 272 1212 q 407 1157 343 1157 q 507 1184 471 1157 q 542 1261 542 1212 l 661 1261 q 594 1116 661 1168 q 407 1065 528 1065 z "},"Û":{"ha":814,"x_min":95,"x_max":719,"o":"m 404 -14 q 95 309 95 -14 l 95 963 l 236 963 l 236 309 q 277 164 236 213 q 407 115 319 115 q 578 309 578 115 l 578 963 l 719 963 l 719 309 q 639 67 719 148 q 404 -14 559 -14 m 176 1072 l 352 1248 l 469 1248 l 645 1072 l 494 1072 l 374 1211 l 446 1211 l 326 1072 l 176 1072 z "},"Ü":{"ha":814,"x_min":95,"x_max":719,"o":"m 404 -14 q 95 309 95 -14 l 95 963 l 236 963 l 236 309 q 277 164 236 213 q 407 115 319 115 q 578 309 578 115 l 578 963 l 719 963 l 719 309 q 639 67 719 148 q 404 -14 559 -14 m 548 1072 q 484 1098 511 1072 q 457 1162 457 1125 q 484 1227 457 1200 q 548 1253 511 1253 q 612 1227 586 1253 q 639 1162 639 1200 q 612 1098 639 1125 q 548 1072 586 1072 m 266 1072 q 202 1098 229 1072 q 175 1162 175 1125 q 202 1227 175 1200 q 266 1253 229 1253 q 330 1227 304 1253 q 357 1162 357 1200 q 330 1098 357 1125 q 266 1072 304 1072 z "},"Ụ":{"ha":814,"x_min":95,"x_max":719,"o":"m 404 -14 q 95 309 95 -14 l 95 963 l 236 963 l 236 309 q 277 164 236 213 q 407 115 319 115 q 578 309 578 115 l 578 963 l 719 963 l 719 309 q 639 67 719 148 q 404 -14 559 -14 m 407 -285 q 343 -258 370 -285 q 316 -194 316 -231 q 343 -130 316 -156 q 407 -103 370 -103 q 471 -130 445 -103 q 498 -194 498 -156 q 471 -258 498 -231 q 407 -285 445 -285 z "},"Ù":{"ha":814,"x_min":95,"x_max":719,"o":"m 404 -14 q 95 309 95 -14 l 95 963 l 236 963 l 236 309 q 277 164 236 213 q 407 115 319 115 q 578 309 578 115 l 578 963 l 719 963 l 719 309 q 639 67 719 148 q 404 -14 559 -14 m 345 1072 l 162 1241 l 353 1241 l 503 1072 l 345 1072 z "},"Ủ":{"ha":814,"x_min":95,"x_max":719,"o":"m 404 -14 q 95 309 95 -14 l 95 963 l 236 963 l 236 309 q 277 164 236 213 q 407 115 319 115 q 578 309 578 115 l 578 963 l 719 963 l 719 309 q 639 67 719 148 q 404 -14 559 -14 m 361 1037 l 361 1051 q 371 1075 361 1063 q 406 1104 381 1087 q 443 1132 432 1121 q 454 1154 454 1143 q 398 1189 454 1189 q 287 1160 333 1189 l 241 1240 q 412 1291 296 1291 q 566 1181 566 1291 q 548 1113 566 1140 q 486 1061 530 1086 q 470 1049 475 1055 q 466 1037 466 1044 l 361 1037 z "},"Ư":{"ha":814,"x_min":95,"x_max":880,"o":"m 618 851 l 583 963 l 625 970 q 719 1018 688 980 q 750 1121 750 1055 l 880 1121 q 825 941 880 1006 q 659 858 770 876 l 618 851 m 404 -14 q 95 309 95 -14 l 95 963 l 236 963 l 236 309 q 277 164 236 213 q 407 115 319 115 q 578 309 578 115 l 578 963 l 719 963 l 719 309 q 639 67 719 148 q 404 -14 559 -14 z "},"Ứ":{"ha":814,"x_min":95,"x_max":880,"o":"m 618 851 l 583 963 l 625 970 q 719 1018 688 980 q 750 1121 750 1055 l 880 1121 q 825 941 880 1006 q 659 858 770 876 l 618 851 m 404 -14 q 95 309 95 -14 l 95 963 l 236 963 l 236 309 q 277 164 236 213 q 407 115 319 115 q 578 309 578 115 l 578 963 l 719 963 l 719 309 q 639 67 719 148 q 404 -14 559 -14 m 318 1072 l 467 1241 l 659 1241 l 475 1072 l 318 1072 z "},"Ự":{"ha":814,"x_min":95,"x_max":880,"o":"m 618 851 l 583 963 l 625 970 q 719 1018 688 980 q 750 1121 750 1055 l 880 1121 q 825 941 880 1006 q 659 858 770 876 l 618 851 m 404 -14 q 95 309 95 -14 l 95 963 l 236 963 l 236 309 q 277 164 236 213 q 407 115 319 115 q 578 309 578 115 l 578 963 l 719 963 l 719 309 q 639 67 719 148 q 404 -14 559 -14 m 407 -285 q 343 -258 370 -285 q 316 -194 316 -231 q 343 -130 316 -156 q 407 -103 370 -103 q 471 -130 445 -103 q 498 -194 498 -156 q 471 -258 498 -231 q 407 -285 445 -285 z "},"Ừ":{"ha":814,"x_min":95,"x_max":880,"o":"m 618 851 l 583 963 l 625 970 q 719 1018 688 980 q 750 1121 750 1055 l 880 1121 q 825 941 880 1006 q 659 858 770 876 l 618 851 m 404 -14 q 95 309 95 -14 l 95 963 l 236 963 l 236 309 q 277 164 236 213 q 407 115 319 115 q 578 309 578 115 l 578 963 l 719 963 l 719 309 q 639 67 719 148 q 404 -14 559 -14 m 345 1072 l 162 1241 l 353 1241 l 503 1072 l 345 1072 z "},"Ử":{"ha":814,"x_min":95,"x_max":880,"o":"m 618 851 l 583 963 l 625 970 q 719 1018 688 980 q 750 1121 750 1055 l 880 1121 q 825 941 880 1006 q 659 858 770 876 l 618 851 m 404 -14 q 95 309 95 -14 l 95 963 l 236 963 l 236 309 q 277 164 236 213 q 407 115 319 115 q 578 309 578 115 l 578 963 l 719 963 l 719 309 q 639 67 719 148 q 404 -14 559 -14 m 361 1037 l 361 1051 q 371 1075 361 1063 q 406 1104 381 1087 q 443 1132 432 1121 q 454 1154 454 1143 q 398 1189 454 1189 q 287 1160 333 1189 l 241 1240 q 412 1291 296 1291 q 566 1181 566 1291 q 548 1113 566 1140 q 486 1061 530 1086 q 470 1049 475 1055 q 466 1037 466 1044 l 361 1037 z "},"Ữ":{"ha":814,"x_min":95,"x_max":880,"o":"m 618 851 l 583 963 l 625 970 q 719 1018 688 980 q 750 1121 750 1055 l 880 1121 q 825 941 880 1006 q 659 858 770 876 l 618 851 m 404 -14 q 95 309 95 -14 l 95 963 l 236 963 l 236 309 q 277 164 236 213 q 407 115 319 115 q 578 309 578 115 l 578 963 l 719 963 l 719 309 q 639 67 719 148 q 404 -14 559 -14 m 153 1062 l 153 1096 q 188 1223 153 1181 q 295 1265 224 1265 q 353 1257 323 1265 q 422 1232 383 1249 q 484 1207 463 1216 q 522 1198 505 1198 q 558 1241 558 1198 l 558 1282 l 675 1282 l 675 1248 q 643 1126 675 1166 q 547 1085 611 1085 q 492 1095 524 1085 q 416 1122 460 1104 q 363 1144 387 1135 q 321 1153 338 1153 q 271 1103 271 1153 l 271 1062 l 153 1062 z "},"Ű":{"ha":814,"x_min":95,"x_max":747,"o":"m 404 -14 q 95 309 95 -14 l 95 963 l 236 963 l 236 309 q 277 164 236 213 q 407 115 319 115 q 578 309 578 115 l 578 963 l 719 963 l 719 309 q 639 67 719 148 q 404 -14 559 -14 m 447 1072 l 555 1241 l 747 1241 l 611 1072 l 447 1072 m 169 1072 l 277 1241 l 469 1241 l 333 1072 l 169 1072 z "},"Ū":{"ha":814,"x_min":95,"x_max":719,"o":"m 404 -14 q 95 309 95 -14 l 95 963 l 236 963 l 236 309 q 277 164 236 213 q 407 115 319 115 q 578 309 578 115 l 578 963 l 719 963 l 719 309 q 639 67 719 148 q 404 -14 559 -14 m 144 1072 l 144 1199 l 669 1199 l 669 1072 l 144 1072 z "},"Ų":{"ha":814,"x_min":95,"x_max":719,"o":"m 453 -288 q 333 -253 375 -288 q 290 -157 290 -219 q 368 -27 290 -53 l 368 20 l 517 27 l 547 9 q 476 -16 511 -3 q 416 -52 440 -29 q 392 -114 392 -75 q 408 -153 392 -132 q 471 -174 423 -174 q 496 -172 482 -174 q 526 -166 509 -170 l 514 -281 q 482 -286 497 -284 q 453 -288 467 -288 m 404 -14 q 95 309 95 -14 l 95 963 l 236 963 l 236 309 q 277 164 236 213 q 407 115 319 115 q 578 309 578 115 l 578 963 l 719 963 l 719 309 q 639 67 719 148 q 404 -14 559 -14 z "},"Ʊ":{"ha":814,"x_min":52,"x_max":762,"o":"m 237 877 l 359 837 q 235 705 277 806 q 194 434 194 604 q 250 196 194 280 q 407 111 305 111 q 564 196 509 111 q 620 434 620 280 q 583 708 620 608 q 471 837 545 809 l 593 871 l 593 823 q 687 756 650 806 q 744 626 725 707 q 762 434 762 546 q 669 103 762 220 q 407 -14 576 -14 q 144 103 237 -14 q 52 434 52 220 q 72 625 52 545 q 134 755 93 705 q 237 825 176 805 l 237 877 m 71 963 l 359 963 l 359 837 l 71 837 l 71 963 m 471 963 l 743 963 l 743 837 l 471 837 l 471 963 z "},"Ů":{"ha":814,"x_min":95,"x_max":719,"o":"m 404 -14 q 95 309 95 -14 l 95 963 l 236 963 l 236 309 q 277 164 236 213 q 407 115 319 115 q 578 309 578 115 l 578 963 l 719 963 l 719 309 q 639 67 719 148 q 404 -14 559 -14 m 407 1009 q 288 1046 330 1009 q 245 1149 245 1082 q 288 1252 245 1215 q 407 1289 330 1289 q 526 1252 484 1289 q 568 1149 568 1215 q 526 1046 568 1082 q 407 1009 484 1009 m 407 1088 q 455 1104 439 1088 q 472 1149 472 1120 q 455 1195 472 1179 q 407 1211 439 1211 q 359 1195 376 1211 q 342 1149 342 1179 q 359 1104 342 1120 q 407 1088 376 1088 z "},"Ũ":{"ha":814,"x_min":95,"x_max":719,"o":"m 404 -14 q 95 309 95 -14 l 95 963 l 236 963 l 236 309 q 277 164 236 213 q 407 115 319 115 q 578 309 578 115 l 578 963 l 719 963 l 719 309 q 639 67 719 148 q 404 -14 559 -14 m 153 1062 l 153 1096 q 188 1223 153 1181 q 295 1265 224 1265 q 353 1257 323 1265 q 422 1232 383 1249 q 484 1207 463 1216 q 522 1198 505 1198 q 558 1241 558 1198 l 558 1282 l 675 1282 l 675 1248 q 643 1126 675 1166 q 547 1085 611 1085 q 492 1095 524 1085 q 416 1122 460 1104 q 363 1144 387 1135 q 321 1153 338 1153 q 271 1103 271 1153 l 271 1062 l 153 1062 z "},"V":{"ha":814,"x_min":31,"x_max":783,"o":"m 302 0 l 31 963 l 176 963 l 401 115 l 413 115 l 638 963 l 783 963 l 512 0 l 302 0 z "},"Ɣ":{"ha":814,"x_min":31,"x_max":783,"o":"m 407 -313 l 407 -191 q 466 -170 446 -191 q 486 -110 486 -149 q 464 -51 486 -83 q 384 45 443 -18 l 482 75 q 592 -36 562 16 q 621 -140 621 -88 q 565 -268 621 -223 q 407 -313 509 -313 m 407 -313 q 249 -268 305 -313 q 193 -140 193 -223 q 222 -36 193 -88 q 332 75 252 16 l 430 45 q 350 -51 371 -18 q 328 -110 328 -83 q 348 -170 328 -149 q 407 -191 368 -191 l 407 -313 m 302 0 l 31 963 l 176 963 l 401 115 l 413 115 l 638 963 l 783 963 l 512 0 l 406 38 l 302 0 z "},"Ʋ":{"ha":814,"x_min":95,"x_max":719,"o":"m 426 963 l 513 963 q 673 918 627 963 q 719 760 719 872 l 719 309 q 639 67 719 148 q 404 -14 559 -14 q 95 309 95 -14 l 95 963 l 236 963 l 236 309 q 277 164 236 213 q 407 115 319 115 q 578 309 578 115 l 578 726 q 556 810 578 786 q 480 834 534 834 l 426 834 l 426 963 z "},"Ʌ":{"ha":814,"x_min":31,"x_max":783,"o":"m 31 0 l 309 963 l 505 963 l 783 0 l 634 0 l 413 846 l 401 846 l 180 0 l 31 0 z "},"W":{"ha":814,"x_min":14,"x_max":800,"o":"m 122 0 l 14 963 l 156 963 l 237 109 l 251 109 l 340 719 l 475 719 l 430 585 l 403 585 l 332 0 l 122 0 m 482 0 l 411 585 l 384 585 l 340 719 l 475 719 l 563 109 l 576 109 l 658 963 l 800 963 l 692 0 l 482 0 z "},"Ẃ":{"ha":814,"x_min":14,"x_max":800,"o":"m 122 0 l 14 963 l 156 963 l 237 109 l 251 109 l 340 719 l 475 719 l 430 585 l 403 585 l 332 0 l 122 0 m 482 0 l 411 585 l 384 585 l 340 719 l 475 719 l 563 109 l 576 109 l 658 963 l 800 963 l 692 0 l 482 0 m 318 1072 l 467 1241 l 659 1241 l 475 1072 l 318 1072 z "},"Ŵ":{"ha":814,"x_min":14,"x_max":800,"o":"m 122 0 l 14 963 l 156 963 l 237 109 l 251 109 l 340 719 l 475 719 l 430 585 l 403 585 l 332 0 l 122 0 m 482 0 l 411 585 l 384 585 l 340 719 l 475 719 l 563 109 l 576 109 l 658 963 l 800 963 l 692 0 l 482 0 m 176 1072 l 352 1248 l 469 1248 l 645 1072 l 494 1072 l 374 1211 l 446 1211 l 326 1072 l 176 1072 z "},"Ẅ":{"ha":814,"x_min":14,"x_max":800,"o":"m 122 0 l 14 963 l 156 963 l 237 109 l 251 109 l 340 719 l 475 719 l 430 585 l 403 585 l 332 0 l 122 0 m 482 0 l 411 585 l 384 585 l 340 719 l 475 719 l 563 109 l 576 109 l 658 963 l 800 963 l 692 0 l 482 0 m 548 1072 q 484 1098 511 1072 q 457 1162 457 1125 q 484 1227 457 1200 q 548 1253 511 1253 q 612 1227 586 1253 q 639 1162 639 1200 q 612 1098 639 1125 q 548 1072 586 1072 m 266 1072 q 202 1098 229 1072 q 175 1162 175 1125 q 202 1227 175 1200 q 266 1253 229 1253 q 330 1227 304 1253 q 357 1162 357 1200 q 330 1098 357 1125 q 266 1072 304 1072 z "},"Ẁ":{"ha":814,"x_min":14,"x_max":800,"o":"m 122 0 l 14 963 l 156 963 l 237 109 l 251 109 l 340 719 l 475 719 l 430 585 l 403 585 l 332 0 l 122 0 m 482 0 l 411 585 l 384 585 l 340 719 l 475 719 l 563 109 l 576 109 l 658 963 l 800 963 l 692 0 l 482 0 m 345 1072 l 162 1241 l 353 1241 l 503 1072 l 345 1072 z "},"X":{"ha":814,"x_min":44,"x_max":770,"o":"m 614 0 l 367 431 l 44 963 l 200 963 l 456 506 l 770 0 l 614 0 m 44 0 l 357 506 l 614 963 l 770 963 l 447 431 l 200 0 l 44 0 z "},"Y":{"ha":814,"x_min":17,"x_max":797,"o":"m 349 321 l 17 963 l 166 963 l 401 481 l 413 481 l 648 963 l 797 963 l 465 321 l 349 321 m 336 0 l 336 475 l 477 475 l 477 0 l 336 0 z "},"Ý":{"ha":814,"x_min":17,"x_max":797,"o":"m 349 321 l 17 963 l 166 963 l 401 481 l 413 481 l 648 963 l 797 963 l 465 321 l 349 321 m 336 0 l 336 475 l 477 475 l 477 0 l 336 0 m 318 1072 l 467 1241 l 659 1241 l 475 1072 l 318 1072 z "},"Ŷ":{"ha":814,"x_min":17,"x_max":797,"o":"m 349 321 l 17 963 l 166 963 l 401 481 l 413 481 l 648 963 l 797 963 l 465 321 l 349 321 m 336 0 l 336 475 l 477 475 l 477 0 l 336 0 m 176 1072 l 352 1248 l 469 1248 l 645 1072 l 494 1072 l 374 1211 l 446 1211 l 326 1072 l 176 1072 z "},"Ÿ":{"ha":814,"x_min":17,"x_max":797,"o":"m 349 321 l 17 963 l 166 963 l 401 481 l 413 481 l 648 963 l 797 963 l 465 321 l 349 321 m 336 0 l 336 475 l 477 475 l 477 0 l 336 0 m 548 1072 q 484 1098 511 1072 q 457 1162 457 1125 q 484 1227 457 1200 q 548 1253 511 1253 q 612 1227 586 1253 q 639 1162 639 1200 q 612 1098 639 1125 q 548 1072 586 1072 m 266 1072 q 202 1098 229 1072 q 175 1162 175 1125 q 202 1227 175 1200 q 266 1253 229 1253 q 330 1227 304 1253 q 357 1162 357 1200 q 330 1098 357 1125 q 266 1072 304 1072 z "},"Ỵ":{"ha":814,"x_min":17,"x_max":797,"o":"m 349 321 l 17 963 l 166 963 l 401 481 l 413 481 l 648 963 l 797 963 l 465 321 l 349 321 m 336 0 l 336 475 l 477 475 l 477 0 l 336 0 m 407 -285 q 343 -258 370 -285 q 316 -194 316 -231 q 343 -130 316 -156 q 407 -103 370 -103 q 471 -130 445 -103 q 498 -194 498 -156 q 471 -258 498 -231 q 407 -285 445 -285 z "},"Ỳ":{"ha":814,"x_min":17,"x_max":797,"o":"m 349 321 l 17 963 l 166 963 l 401 481 l 413 481 l 648 963 l 797 963 l 465 321 l 349 321 m 336 0 l 336 475 l 477 475 l 477 0 l 336 0 m 345 1072 l 162 1241 l 353 1241 l 503 1072 l 345 1072 z "},"Ỷ":{"ha":814,"x_min":17,"x_max":797,"o":"m 349 321 l 17 963 l 166 963 l 401 481 l 413 481 l 648 963 l 797 963 l 465 321 l 349 321 m 336 0 l 336 475 l 477 475 l 477 0 l 336 0 m 361 1037 l 361 1051 q 371 1075 361 1063 q 406 1104 381 1087 q 443 1132 432 1121 q 454 1154 454 1143 q 398 1189 454 1189 q 287 1160 333 1189 l 241 1240 q 412 1291 296 1291 q 566 1181 566 1291 q 548 1113 566 1140 q 486 1061 530 1086 q 470 1049 475 1055 q 466 1037 466 1044 l 361 1037 z "},"Ȳ":{"ha":814,"x_min":17,"x_max":797,"o":"m 349 321 l 17 963 l 166 963 l 401 481 l 413 481 l 648 963 l 797 963 l 465 321 l 349 321 m 336 0 l 336 475 l 477 475 l 477 0 l 336 0 m 144 1072 l 144 1199 l 669 1199 l 669 1072 l 144 1072 z "},"Ỹ":{"ha":814,"x_min":17,"x_max":797,"o":"m 349 321 l 17 963 l 166 963 l 401 481 l 413 481 l 648 963 l 797 963 l 465 321 l 349 321 m 336 0 l 336 475 l 477 475 l 477 0 l 336 0 m 153 1062 l 153 1096 q 188 1223 153 1181 q 295 1265 224 1265 q 353 1257 323 1265 q 422 1232 383 1249 q 484 1207 463 1216 q 522 1198 505 1198 q 558 1241 558 1198 l 558 1282 l 675 1282 l 675 1248 q 643 1126 675 1166 q 547 1085 611 1085 q 492 1095 524 1085 q 416 1122 460 1104 q 363 1144 387 1135 q 321 1153 338 1153 q 271 1103 271 1153 l 271 1062 l 153 1062 z "},"Z":{"ha":814,"x_min":102,"x_max":726,"o":"m 205 46 l 102 129 l 609 924 l 712 834 l 205 46 m 102 0 l 102 129 l 726 129 l 726 0 l 102 0 m 102 834 l 102 963 l 712 963 l 712 834 l 102 834 z "},"Ź":{"ha":814,"x_min":102,"x_max":726,"o":"m 205 46 l 102 129 l 609 924 l 712 834 l 205 46 m 102 0 l 102 129 l 726 129 l 726 0 l 102 0 m 102 834 l 102 963 l 712 963 l 712 834 l 102 834 m 318 1072 l 467 1241 l 659 1241 l 475 1072 l 318 1072 z "},"Ž":{"ha":814,"x_min":102,"x_max":726,"o":"m 205 46 l 102 129 l 609 924 l 712 834 l 205 46 m 102 0 l 102 129 l 726 129 l 726 0 l 102 0 m 102 834 l 102 963 l 712 963 l 712 834 l 102 834 m 349 1072 l 172 1248 l 323 1248 l 414 1142 l 400 1142 l 491 1248 l 642 1248 l 465 1072 l 349 1072 z "},"Ż":{"ha":814,"x_min":102,"x_max":726,"o":"m 205 46 l 102 129 l 609 924 l 712 834 l 205 46 m 102 0 l 102 129 l 726 129 l 726 0 l 102 0 m 102 834 l 102 963 l 712 963 l 712 834 l 102 834 m 407 1072 q 343 1098 370 1072 q 316 1162 316 1125 q 343 1227 316 1200 q 407 1253 370 1253 q 471 1227 445 1253 q 498 1162 498 1200 q 471 1098 498 1125 q 407 1072 445 1072 z "},"ᴀ":{"ha":814,"x_min":31,"x_max":782,"o":"m 31 0 l 318 732 l 495 732 l 782 0 l 638 0 l 412 600 l 401 600 l 175 0 l 31 0 m 159 155 l 159 267 l 648 267 l 648 155 l 159 155 z "},"ɢ":{"ha":814,"x_min":58,"x_max":761,"o":"m 463 -10 q 159 84 260 -10 q 58 367 58 178 q 170 644 58 545 q 484 742 282 742 q 652 725 578 742 q 761 675 726 707 l 692 559 q 603 599 653 585 q 492 613 553 613 q 282 550 357 613 q 207 372 207 488 q 275 182 207 245 q 479 119 344 119 q 608 128 553 119 q 700 144 664 138 l 754 20 q 644 2 723 14 q 463 -10 565 -10 m 610 20 l 610 387 l 754 387 l 754 20 l 610 20 m 441 258 l 441 387 l 750 387 l 750 258 l 441 258 z "},"ɪ":{"ha":814,"x_min":114,"x_max":700,"o":"m 335 0 l 335 719 l 479 719 l 479 0 l 335 0 m 114 0 l 114 118 l 700 118 l 700 0 l 114 0 m 114 601 l 114 719 l 700 719 l 700 601 l 114 601 z "},"ʟ":{"ha":814,"x_min":108,"x_max":747,"o":"m 108 0 l 108 732 l 252 732 l 252 0 l 108 0 m 108 0 l 108 118 l 747 118 l 747 0 l 108 0 z "},"a":{"ha":814,"x_min":65,"x_max":785,"o":"m 555 -7 l 545 206 l 526 266 l 526 452 q 476 557 526 524 q 326 593 425 591 l 153 598 l 167 726 l 312 724 q 577 647 490 721 q 663 430 663 572 l 663 130 l 785 115 l 785 0 l 555 -7 m 301 -14 q 127 41 189 -14 q 65 194 65 95 q 150 369 65 308 q 391 430 235 430 q 506 422 455 430 q 595 399 556 414 l 566 301 q 477 313 520 311 q 388 315 433 315 q 201 201 201 315 q 233 127 201 153 q 324 102 265 102 q 436 125 391 102 q 504 184 481 148 q 526 258 526 220 l 526 336 l 568 152 l 511 152 l 534 174 q 506 70 534 111 q 425 7 477 28 q 301 -14 372 -14 z "},"á":{"ha":814,"x_min":65,"x_max":785,"o":"m 555 -7 l 545 206 l 526 266 l 526 452 q 476 557 526 524 q 326 593 425 591 l 153 598 l 167 726 l 312 724 q 577 647 490 721 q 663 430 663 572 l 663 130 l 785 115 l 785 0 l 555 -7 m 301 -14 q 127 41 189 -14 q 65 194 65 95 q 150 369 65 308 q 391 430 235 430 q 506 422 455 430 q 595 399 556 414 l 566 301 q 477 313 520 311 q 388 315 433 315 q 201 201 201 315 q 233 127 201 153 q 324 102 265 102 q 436 125 391 102 q 504 184 481 148 q 526 258 526 220 l 526 336 l 568 152 l 511 152 l 534 174 q 506 70 534 111 q 425 7 477 28 q 301 -14 372 -14 m 325 846 l 440 1104 l 584 1104 l 455 846 l 325 846 z "},"ă":{"ha":814,"x_min":65,"x_max":785,"o":"m 555 -7 l 545 206 l 526 266 l 526 452 q 476 557 526 524 q 326 593 425 591 l 153 598 l 167 726 l 312 724 q 577 647 490 721 q 663 430 663 572 l 663 130 l 785 115 l 785 0 l 555 -7 m 301 -14 q 127 41 189 -14 q 65 194 65 95 q 150 369 65 308 q 391 430 235 430 q 506 422 455 430 q 595 399 556 414 l 566 301 q 477 313 520 311 q 388 315 433 315 q 201 201 201 315 q 233 127 201 153 q 324 102 265 102 q 436 125 391 102 q 504 184 481 148 q 526 258 526 220 l 526 336 l 568 152 l 511 152 l 534 174 q 506 70 534 111 q 425 7 477 28 q 301 -14 372 -14 m 393 840 q 219 897 281 840 q 157 1058 157 954 l 157 1087 l 275 1087 l 275 1058 q 306 965 275 998 q 393 932 336 932 q 481 965 450 932 q 511 1058 511 998 l 511 1087 l 630 1087 l 630 1058 q 568 897 630 954 q 393 840 507 840 z "},"ắ":{"ha":814,"x_min":65,"x_max":785,"o":"m 555 -7 l 545 206 l 526 266 l 526 452 q 476 557 526 524 q 326 593 425 591 l 153 598 l 167 726 l 312 724 q 577 647 490 721 q 663 430 663 572 l 663 130 l 785 115 l 785 0 l 555 -7 m 301 -14 q 127 41 189 -14 q 65 194 65 95 q 150 369 65 308 q 391 430 235 430 q 506 422 455 430 q 595 399 556 414 l 566 301 q 477 313 520 311 q 388 315 433 315 q 201 201 201 315 q 233 127 201 153 q 324 102 265 102 q 436 125 391 102 q 504 184 481 148 q 526 258 526 220 l 526 336 l 568 152 l 511 152 l 534 174 q 506 70 534 111 q 425 7 477 28 q 301 -14 372 -14 m 393 840 q 219 897 281 840 q 157 1058 157 954 l 157 1087 l 275 1087 l 275 1058 q 306 965 275 998 q 393 932 336 932 q 481 965 450 932 q 511 1058 511 998 l 511 1087 l 630 1087 l 630 1058 q 568 897 630 954 q 393 840 507 840 m 325 1172 l 440 1430 l 584 1430 l 455 1172 l 325 1172 z "},"ặ":{"ha":814,"x_min":65,"x_max":785,"o":"m 555 -7 l 545 206 l 526 266 l 526 452 q 476 557 526 524 q 326 593 425 591 l 153 598 l 167 726 l 312 724 q 577 647 490 721 q 663 430 663 572 l 663 130 l 785 115 l 785 0 l 555 -7 m 301 -14 q 127 41 189 -14 q 65 194 65 95 q 150 369 65 308 q 391 430 235 430 q 506 422 455 430 q 595 399 556 414 l 566 301 q 477 313 520 311 q 388 315 433 315 q 201 201 201 315 q 233 127 201 153 q 324 102 265 102 q 436 125 391 102 q 504 184 481 148 q 526 258 526 220 l 526 336 l 568 152 l 511 152 l 534 174 q 506 70 534 111 q 425 7 477 28 q 301 -14 372 -14 m 407 -285 q 343 -258 370 -285 q 316 -194 316 -231 q 343 -130 316 -156 q 407 -103 370 -103 q 471 -130 445 -103 q 498 -194 498 -156 q 471 -258 498 -231 q 407 -285 445 -285 m 393 840 q 219 897 281 840 q 157 1058 157 954 l 157 1087 l 275 1087 l 275 1058 q 306 965 275 998 q 393 932 336 932 q 481 965 450 932 q 511 1058 511 998 l 511 1087 l 630 1087 l 630 1058 q 568 897 630 954 q 393 840 507 840 z "},"ằ":{"ha":814,"x_min":65,"x_max":785,"o":"m 555 -7 l 545 206 l 526 266 l 526 452 q 476 557 526 524 q 326 593 425 591 l 153 598 l 167 726 l 312 724 q 577 647 490 721 q 663 430 663 572 l 663 130 l 785 115 l 785 0 l 555 -7 m 301 -14 q 127 41 189 -14 q 65 194 65 95 q 150 369 65 308 q 391 430 235 430 q 506 422 455 430 q 595 399 556 414 l 566 301 q 477 313 520 311 q 388 315 433 315 q 201 201 201 315 q 233 127 201 153 q 324 102 265 102 q 436 125 391 102 q 504 184 481 148 q 526 258 526 220 l 526 336 l 568 152 l 511 152 l 534 174 q 506 70 534 111 q 425 7 477 28 q 301 -14 372 -14 m 393 840 q 219 897 281 840 q 157 1058 157 954 l 157 1087 l 275 1087 l 275 1058 q 306 965 275 998 q 393 932 336 932 q 481 965 450 932 q 511 1058 511 998 l 511 1087 l 630 1087 l 630 1058 q 568 897 630 954 q 393 840 507 840 m 342 1172 l 213 1430 l 357 1430 l 472 1172 l 342 1172 z "},"ẳ":{"ha":814,"x_min":65,"x_max":785,"o":"m 555 -7 l 545 206 l 526 266 l 526 452 q 476 557 526 524 q 326 593 425 591 l 153 598 l 167 726 l 312 724 q 577 647 490 721 q 663 430 663 572 l 663 130 l 785 115 l 785 0 l 555 -7 m 301 -14 q 127 41 189 -14 q 65 194 65 95 q 150 369 65 308 q 391 430 235 430 q 506 422 455 430 q 595 399 556 414 l 566 301 q 477 313 520 311 q 388 315 433 315 q 201 201 201 315 q 233 127 201 153 q 324 102 265 102 q 436 125 391 102 q 504 184 481 148 q 526 258 526 220 l 526 336 l 568 152 l 511 152 l 534 174 q 506 70 534 111 q 425 7 477 28 q 301 -14 372 -14 m 393 840 q 219 897 281 840 q 157 1058 157 954 l 157 1087 l 275 1087 l 275 1058 q 306 965 275 998 q 393 932 336 932 q 481 965 450 932 q 511 1058 511 998 l 511 1087 l 630 1087 l 630 1058 q 568 897 630 954 q 393 840 507 840 m 340 1172 l 340 1196 q 351 1241 340 1223 q 377 1274 362 1260 q 402 1302 391 1289 q 413 1333 413 1316 q 401 1360 413 1350 q 371 1371 390 1371 l 385 1473 q 487 1437 449 1473 q 526 1342 526 1401 q 513 1290 526 1310 q 486 1254 501 1270 q 458 1222 470 1239 q 446 1178 446 1204 l 446 1172 l 340 1172 m 287 1341 l 241 1422 q 302 1459 262 1445 q 385 1473 341 1473 l 371 1371 q 287 1341 321 1371 z "},"ẵ":{"ha":814,"x_min":65,"x_max":785,"o":"m 555 -7 l 545 206 l 526 266 l 526 452 q 476 557 526 524 q 326 593 425 591 l 153 598 l 167 726 l 312 724 q 577 647 490 721 q 663 430 663 572 l 663 130 l 785 115 l 785 0 l 555 -7 m 301 -14 q 127 41 189 -14 q 65 194 65 95 q 150 369 65 308 q 391 430 235 430 q 506 422 455 430 q 595 399 556 414 l 566 301 q 477 313 520 311 q 388 315 433 315 q 201 201 201 315 q 233 127 201 153 q 324 102 265 102 q 436 125 391 102 q 504 184 481 148 q 526 258 526 220 l 526 336 l 568 152 l 511 152 l 534 174 q 506 70 534 111 q 425 7 477 28 q 301 -14 372 -14 m 393 840 q 219 897 281 840 q 157 1058 157 954 l 157 1087 l 275 1087 l 275 1058 q 306 965 275 998 q 393 932 336 932 q 481 965 450 932 q 511 1058 511 998 l 511 1087 l 630 1087 l 630 1058 q 568 897 630 954 q 393 840 507 840 m 156 1177 l 156 1204 q 298 1374 156 1374 q 349 1365 326 1374 q 399 1344 373 1357 q 457 1317 433 1327 q 498 1306 481 1306 q 534 1350 534 1306 l 534 1411 l 651 1411 l 651 1356 q 619 1234 651 1275 q 524 1194 587 1194 q 477 1202 505 1194 q 413 1227 449 1210 q 368 1250 391 1239 q 324 1261 346 1261 q 287 1249 299 1261 q 274 1211 274 1237 l 274 1177 l 156 1177 z "},"ǎ":{"ha":814,"x_min":65,"x_max":785,"o":"m 555 -7 l 545 206 l 526 266 l 526 452 q 476 557 526 524 q 326 593 425 591 l 153 598 l 167 726 l 312 724 q 577 647 490 721 q 663 430 663 572 l 663 130 l 785 115 l 785 0 l 555 -7 m 301 -14 q 127 41 189 -14 q 65 194 65 95 q 150 369 65 308 q 391 430 235 430 q 506 422 455 430 q 595 399 556 414 l 566 301 q 477 313 520 311 q 388 315 433 315 q 201 201 201 315 q 233 127 201 153 q 324 102 265 102 q 436 125 391 102 q 504 184 481 148 q 526 258 526 220 l 526 336 l 568 152 l 511 152 l 534 174 q 506 70 534 111 q 425 7 477 28 q 301 -14 372 -14 m 335 821 l 172 1078 l 316 1078 l 400 911 l 387 911 l 471 1078 l 614 1078 l 452 821 l 335 821 z "},"â":{"ha":814,"x_min":65,"x_max":785,"o":"m 555 -7 l 545 206 l 526 266 l 526 452 q 476 557 526 524 q 326 593 425 591 l 153 598 l 167 726 l 312 724 q 577 647 490 721 q 663 430 663 572 l 663 130 l 785 115 l 785 0 l 555 -7 m 301 -14 q 127 41 189 -14 q 65 194 65 95 q 150 369 65 308 q 391 430 235 430 q 506 422 455 430 q 595 399 556 414 l 566 301 q 477 313 520 311 q 388 315 433 315 q 201 201 201 315 q 233 127 201 153 q 324 102 265 102 q 436 125 391 102 q 504 184 481 148 q 526 258 526 220 l 526 336 l 568 152 l 511 152 l 534 174 q 506 70 534 111 q 425 7 477 28 q 301 -14 372 -14 m 172 846 l 335 1104 l 452 1104 l 614 846 l 471 846 l 387 1013 l 400 1013 l 316 846 l 172 846 z "},"ấ":{"ha":814,"x_min":65,"x_max":826,"o":"m 555 -7 l 545 206 l 526 266 l 526 452 q 476 557 526 524 q 326 593 425 591 l 153 598 l 167 726 l 312 724 q 577 647 490 721 q 663 430 663 572 l 663 130 l 785 115 l 785 0 l 555 -7 m 301 -14 q 127 41 189 -14 q 65 194 65 95 q 150 369 65 308 q 391 430 235 430 q 506 422 455 430 q 595 399 556 414 l 566 301 q 477 313 520 311 q 388 315 433 315 q 201 201 201 315 q 233 127 201 153 q 324 102 265 102 q 436 125 391 102 q 504 184 481 148 q 526 258 526 220 l 526 336 l 568 152 l 511 152 l 534 174 q 506 70 534 111 q 425 7 477 28 q 301 -14 372 -14 m 172 846 l 335 1104 l 452 1104 l 614 846 l 471 846 l 387 1013 l 400 1013 l 316 846 l 172 846 m 567 1077 l 682 1335 l 826 1335 l 697 1077 l 567 1077 z "},"ậ":{"ha":814,"x_min":65,"x_max":785,"o":"m 555 -7 l 545 206 l 526 266 l 526 452 q 476 557 526 524 q 326 593 425 591 l 153 598 l 167 726 l 312 724 q 577 647 490 721 q 663 430 663 572 l 663 130 l 785 115 l 785 0 l 555 -7 m 301 -14 q 127 41 189 -14 q 65 194 65 95 q 150 369 65 308 q 391 430 235 430 q 506 422 455 430 q 595 399 556 414 l 566 301 q 477 313 520 311 q 388 315 433 315 q 201 201 201 315 q 233 127 201 153 q 324 102 265 102 q 436 125 391 102 q 504 184 481 148 q 526 258 526 220 l 526 336 l 568 152 l 511 152 l 534 174 q 506 70 534 111 q 425 7 477 28 q 301 -14 372 -14 m 407 -285 q 343 -258 370 -285 q 316 -194 316 -231 q 343 -130 316 -156 q 407 -103 370 -103 q 471 -130 445 -103 q 498 -194 498 -156 q 471 -258 498 -231 q 407 -285 445 -285 m 172 846 l 335 1104 l 452 1104 l 614 846 l 471 846 l 387 1013 l 400 1013 l 316 846 l 172 846 z "},"ầ":{"ha":814,"x_min":65,"x_max":785,"o":"m 555 -7 l 545 206 l 526 266 l 526 452 q 476 557 526 524 q 326 593 425 591 l 153 598 l 167 726 l 312 724 q 577 647 490 721 q 663 430 663 572 l 663 130 l 785 115 l 785 0 l 555 -7 m 301 -14 q 127 41 189 -14 q 65 194 65 95 q 150 369 65 308 q 391 430 235 430 q 506 422 455 430 q 595 399 556 414 l 566 301 q 477 313 520 311 q 388 315 433 315 q 201 201 201 315 q 233 127 201 153 q 324 102 265 102 q 436 125 391 102 q 504 184 481 148 q 526 258 526 220 l 526 336 l 568 152 l 511 152 l 534 174 q 506 70 534 111 q 425 7 477 28 q 301 -14 372 -14 m 172 846 l 335 1104 l 452 1104 l 614 846 l 471 846 l 387 1013 l 400 1013 l 316 846 l 172 846 m 584 1077 l 455 1335 l 599 1335 l 714 1077 l 584 1077 z "},"ẩ":{"ha":814,"x_min":65,"x_max":785,"o":"m 555 -7 l 545 206 l 526 266 l 526 452 q 476 557 526 524 q 326 593 425 591 l 153 598 l 167 726 l 312 724 q 577 647 490 721 q 663 430 663 572 l 663 130 l 785 115 l 785 0 l 555 -7 m 301 -14 q 127 41 189 -14 q 65 194 65 95 q 150 369 65 308 q 391 430 235 430 q 506 422 455 430 q 595 399 556 414 l 566 301 q 477 313 520 311 q 388 315 433 315 q 201 201 201 315 q 233 127 201 153 q 324 102 265 102 q 436 125 391 102 q 504 184 481 148 q 526 258 526 220 l 526 336 l 568 152 l 511 152 l 534 174 q 506 70 534 111 q 425 7 477 28 q 301 -14 372 -14 m 172 846 l 335 1104 l 452 1104 l 614 846 l 471 846 l 387 1013 l 400 1013 l 316 846 l 172 846 m 583 1077 l 583 1101 q 593 1146 583 1128 q 619 1179 604 1165 q 644 1207 633 1194 q 655 1238 655 1221 q 644 1265 655 1255 q 613 1276 632 1276 l 627 1378 q 729 1342 691 1378 q 768 1247 768 1306 q 755 1195 768 1215 q 728 1159 743 1175 q 700 1127 712 1144 q 688 1083 688 1109 l 688 1077 l 583 1077 m 529 1246 l 484 1327 q 544 1364 505 1350 q 627 1378 583 1378 l 613 1276 q 529 1246 564 1276 z "},"ẫ":{"ha":814,"x_min":65,"x_max":785,"o":"m 555 -7 l 545 206 l 526 266 l 526 452 q 476 557 526 524 q 326 593 425 591 l 153 598 l 167 726 l 312 724 q 577 647 490 721 q 663 430 663 572 l 663 130 l 785 115 l 785 0 l 555 -7 m 301 -14 q 127 41 189 -14 q 65 194 65 95 q 150 369 65 308 q 391 430 235 430 q 506 422 455 430 q 595 399 556 414 l 566 301 q 477 313 520 311 q 388 315 433 315 q 201 201 201 315 q 233 127 201 153 q 324 102 265 102 q 436 125 391 102 q 504 184 481 148 q 526 258 526 220 l 526 336 l 568 152 l 511 152 l 534 174 q 506 70 534 111 q 425 7 477 28 q 301 -14 372 -14 m 172 846 l 335 1104 l 452 1104 l 614 846 l 471 846 l 387 1013 l 400 1013 l 316 846 l 172 846 m 156 1204 l 156 1232 q 298 1401 156 1401 q 349 1393 326 1401 q 399 1371 373 1384 q 457 1344 433 1354 q 498 1333 481 1333 q 534 1377 534 1333 l 534 1438 l 651 1438 l 651 1383 q 619 1261 651 1302 q 524 1221 587 1221 q 477 1229 505 1221 q 413 1255 449 1237 q 368 1277 391 1266 q 324 1289 346 1289 q 287 1276 299 1289 q 274 1238 274 1264 l 274 1204 l 156 1204 z "},"ä":{"ha":814,"x_min":65,"x_max":785,"o":"m 555 -7 l 545 206 l 526 266 l 526 452 q 476 557 526 524 q 326 593 425 591 l 153 598 l 167 726 l 312 724 q 577 647 490 721 q 663 430 663 572 l 663 130 l 785 115 l 785 0 l 555 -7 m 301 -14 q 127 41 189 -14 q 65 194 65 95 q 150 369 65 308 q 391 430 235 430 q 506 422 455 430 q 595 399 556 414 l 566 301 q 477 313 520 311 q 388 315 433 315 q 201 201 201 315 q 233 127 201 153 q 324 102 265 102 q 436 125 391 102 q 504 184 481 148 q 526 258 526 220 l 526 336 l 568 152 l 511 152 l 534 174 q 506 70 534 111 q 425 7 477 28 q 301 -14 372 -14 m 537 840 q 473 866 500 840 q 446 930 446 893 q 473 995 446 968 q 537 1021 500 1021 q 602 995 575 1021 q 628 930 628 968 q 602 866 628 893 q 537 840 575 840 m 252 840 q 188 866 215 840 q 161 930 161 893 q 188 995 161 968 q 252 1021 215 1021 q 317 995 290 1021 q 343 930 343 968 q 317 866 343 893 q 252 840 290 840 z "},"ạ":{"ha":814,"x_min":65,"x_max":785,"o":"m 555 -7 l 545 206 l 526 266 l 526 452 q 476 557 526 524 q 326 593 425 591 l 153 598 l 167 726 l 312 724 q 577 647 490 721 q 663 430 663 572 l 663 130 l 785 115 l 785 0 l 555 -7 m 301 -14 q 127 41 189 -14 q 65 194 65 95 q 150 369 65 308 q 391 430 235 430 q 506 422 455 430 q 595 399 556 414 l 566 301 q 477 313 520 311 q 388 315 433 315 q 201 201 201 315 q 233 127 201 153 q 324 102 265 102 q 436 125 391 102 q 504 184 481 148 q 526 258 526 220 l 526 336 l 568 152 l 511 152 l 534 174 q 506 70 534 111 q 425 7 477 28 q 301 -14 372 -14 m 407 -285 q 343 -258 370 -285 q 316 -194 316 -231 q 343 -130 316 -156 q 407 -103 370 -103 q 471 -130 445 -103 q 498 -194 498 -156 q 471 -258 498 -231 q 407 -285 445 -285 z "},"à":{"ha":814,"x_min":65,"x_max":785,"o":"m 555 -7 l 545 206 l 526 266 l 526 452 q 476 557 526 524 q 326 593 425 591 l 153 598 l 167 726 l 312 724 q 577 647 490 721 q 663 430 663 572 l 663 130 l 785 115 l 785 0 l 555 -7 m 301 -14 q 127 41 189 -14 q 65 194 65 95 q 150 369 65 308 q 391 430 235 430 q 506 422 455 430 q 595 399 556 414 l 566 301 q 477 313 520 311 q 388 315 433 315 q 201 201 201 315 q 233 127 201 153 q 324 102 265 102 q 436 125 391 102 q 504 184 481 148 q 526 258 526 220 l 526 336 l 568 152 l 511 152 l 534 174 q 506 70 534 111 q 425 7 477 28 q 301 -14 372 -14 m 342 846 l 213 1104 l 357 1104 l 472 846 l 342 846 z "},"ả":{"ha":814,"x_min":65,"x_max":785,"o":"m 555 -7 l 545 206 l 526 266 l 526 452 q 476 557 526 524 q 326 593 425 591 l 153 598 l 167 726 l 312 724 q 577 647 490 721 q 663 430 663 572 l 663 130 l 785 115 l 785 0 l 555 -7 m 301 -14 q 127 41 189 -14 q 65 194 65 95 q 150 369 65 308 q 391 430 235 430 q 506 422 455 430 q 595 399 556 414 l 566 301 q 477 313 520 311 q 388 315 433 315 q 201 201 201 315 q 233 127 201 153 q 324 102 265 102 q 436 125 391 102 q 504 184 481 148 q 526 258 526 220 l 526 336 l 568 152 l 511 152 l 534 174 q 506 70 534 111 q 425 7 477 28 q 301 -14 372 -14 m 340 846 l 340 871 q 351 916 340 897 q 377 949 362 935 q 402 977 391 963 q 413 1007 413 990 q 401 1035 413 1025 q 371 1045 390 1045 l 385 1147 q 487 1112 449 1147 q 526 1017 526 1076 q 513 964 526 984 q 486 929 501 944 q 458 896 470 913 q 446 852 446 879 l 446 846 l 340 846 m 287 1016 l 241 1097 q 302 1134 262 1120 q 385 1147 341 1147 l 371 1045 q 287 1016 321 1045 z "},"ɑ":{"ha":814,"x_min":52,"x_max":785,"o":"m 338 -14 q 126 81 201 -14 q 52 353 52 176 q 129 633 52 534 q 346 732 205 732 q 475 697 429 732 q 529 589 520 661 l 585 589 l 543 407 q 499 557 543 503 q 380 610 456 610 q 242 543 291 610 q 194 353 194 476 q 373 109 194 109 q 498 162 453 109 q 543 312 543 216 l 543 350 l 591 130 l 529 130 q 499 51 524 83 q 433 2 474 18 q 338 -14 392 -14 m 555 -7 l 543 165 l 543 332 l 686 292 l 686 130 l 785 115 l 785 0 l 555 -7 m 543 203 l 543 719 l 686 719 l 686 244 l 543 203 z "},"ā":{"ha":814,"x_min":65,"x_max":785,"o":"m 555 -7 l 545 206 l 526 266 l 526 452 q 476 557 526 524 q 326 593 425 591 l 153 598 l 167 726 l 312 724 q 577 647 490 721 q 663 430 663 572 l 663 130 l 785 115 l 785 0 l 555 -7 m 301 -14 q 127 41 189 -14 q 65 194 65 95 q 150 369 65 308 q 391 430 235 430 q 506 422 455 430 q 595 399 556 414 l 566 301 q 477 313 520 311 q 388 315 433 315 q 201 201 201 315 q 233 127 201 153 q 324 102 265 102 q 436 125 391 102 q 504 184 481 148 q 526 258 526 220 l 526 336 l 568 152 l 511 152 l 534 174 q 506 70 534 111 q 425 7 477 28 q 301 -14 372 -14 m 102 846 l 102 974 l 685 974 l 685 846 l 102 846 z "},"ą":{"ha":814,"x_min":65,"x_max":785,"o":"m 692 -288 q 571 -250 614 -288 q 529 -144 529 -212 q 549 -66 529 -98 q 606 -24 569 -35 l 606 20 l 769 22 l 783 0 q 671 -30 711 0 q 631 -114 631 -60 q 651 -158 631 -142 q 709 -174 672 -174 q 765 -166 733 -174 l 753 -281 q 721 -286 737 -284 q 692 -288 705 -288 m 555 -7 l 545 206 l 526 266 l 526 452 q 476 557 526 524 q 326 593 425 591 l 153 598 l 167 726 l 312 724 q 577 647 490 721 q 663 430 663 572 l 663 130 l 785 115 l 785 0 l 555 -7 m 301 -14 q 127 41 189 -14 q 65 194 65 95 q 150 369 65 308 q 391 430 235 430 q 506 422 455 430 q 595 399 556 414 l 566 301 q 477 313 520 311 q 388 315 433 315 q 201 201 201 315 q 233 127 201 153 q 324 102 265 102 q 436 125 391 102 q 504 184 481 148 q 526 258 526 220 l 526 336 l 568 152 l 511 152 l 534 174 q 506 70 534 111 q 425 7 477 28 q 301 -14 372 -14 z "},"å":{"ha":814,"x_min":65,"x_max":785,"o":"m 555 -7 l 545 206 l 526 266 l 526 452 q 476 557 526 524 q 326 593 425 591 l 153 598 l 167 726 l 312 724 q 577 647 490 721 q 663 430 663 572 l 663 130 l 785 115 l 785 0 l 555 -7 m 301 -14 q 127 41 189 -14 q 65 194 65 95 q 150 369 65 308 q 391 430 235 430 q 506 422 455 430 q 595 399 556 414 l 566 301 q 477 313 520 311 q 388 315 433 315 q 201 201 201 315 q 233 127 201 153 q 324 102 265 102 q 436 125 391 102 q 504 184 481 148 q 526 258 526 220 l 526 336 l 568 152 l 511 152 l 534 174 q 506 70 534 111 q 425 7 477 28 q 301 -14 372 -14 m 393 812 q 274 851 317 812 q 232 959 232 889 q 274 1067 232 1029 q 393 1105 317 1105 q 512 1067 470 1105 q 555 959 555 1029 q 512 851 555 889 q 393 812 470 812 m 393 891 q 458 959 458 891 q 393 1027 458 1027 q 328 959 328 1027 q 393 891 328 891 z "},"ǻ":{"ha":814,"x_min":65,"x_max":785,"o":"m 555 -7 l 545 206 l 526 266 l 526 452 q 476 557 526 524 q 326 593 425 591 l 153 598 l 167 726 l 312 724 q 577 647 490 721 q 663 430 663 572 l 663 130 l 785 115 l 785 0 l 555 -7 m 301 -14 q 127 41 189 -14 q 65 194 65 95 q 150 369 65 308 q 391 430 235 430 q 506 422 455 430 q 595 399 556 414 l 566 301 q 477 313 520 311 q 388 315 433 315 q 201 201 201 315 q 233 127 201 153 q 324 102 265 102 q 436 125 391 102 q 504 184 481 148 q 526 258 526 220 l 526 336 l 568 152 l 511 152 l 534 174 q 506 70 534 111 q 425 7 477 28 q 301 -14 372 -14 m 393 812 q 274 851 317 812 q 232 959 232 889 q 274 1067 232 1029 q 393 1105 317 1105 q 512 1067 470 1105 q 555 959 555 1029 q 512 851 555 889 q 393 812 470 812 m 393 891 q 458 959 458 891 q 393 1027 458 1027 q 328 959 328 1027 q 393 891 328 891 m 304 1036 l 420 1294 l 564 1294 l 435 1036 l 304 1036 z "},"ã":{"ha":814,"x_min":65,"x_max":785,"o":"m 555 -7 l 545 206 l 526 266 l 526 452 q 476 557 526 524 q 326 593 425 591 l 153 598 l 167 726 l 312 724 q 577 647 490 721 q 663 430 663 572 l 663 130 l 785 115 l 785 0 l 555 -7 m 301 -14 q 127 41 189 -14 q 65 194 65 95 q 150 369 65 308 q 391 430 235 430 q 506 422 455 430 q 595 399 556 414 l 566 301 q 477 313 520 311 q 388 315 433 315 q 201 201 201 315 q 233 127 201 153 q 324 102 265 102 q 436 125 391 102 q 504 184 481 148 q 526 258 526 220 l 526 336 l 568 152 l 511 152 l 534 174 q 506 70 534 111 q 425 7 477 28 q 301 -14 372 -14 m 156 852 l 156 879 q 298 1048 156 1048 q 349 1040 326 1048 q 399 1019 373 1031 q 457 991 433 1002 q 498 981 481 981 q 534 1024 534 981 l 534 1085 l 651 1085 l 651 1031 q 619 909 651 949 q 524 868 587 868 q 477 876 505 868 q 413 902 449 884 q 368 925 391 913 q 324 936 346 936 q 287 924 299 936 q 274 886 274 911 l 274 852 l 156 852 z "},"æ":{"ha":814,"x_min":14,"x_max":797,"o":"m 203 -14 q 66 43 118 -14 q 14 194 14 100 q 83 365 14 300 q 265 430 153 430 q 347 424 309 430 q 409 406 384 417 l 379 301 q 331 319 361 317 q 262 321 300 321 q 176 288 209 321 q 143 201 143 255 q 170 129 143 156 q 239 102 196 102 q 323 143 294 102 q 353 258 353 184 l 353 377 l 456 152 l 345 152 l 402 167 q 345 34 391 81 q 203 -14 298 -14 m 353 210 l 353 266 l 353 452 q 300 558 353 519 q 153 600 248 597 l 89 602 l 102 726 l 166 724 q 380 643 304 719 q 456 430 456 566 l 456 210 l 353 210 m 653 -14 q 450 82 522 -14 q 378 361 378 177 q 434 635 378 538 q 590 732 490 732 q 743 642 689 732 q 797 388 797 552 q 796 340 797 365 q 793 296 795 316 l 465 296 l 465 399 l 667 399 q 646 557 667 508 q 578 606 625 606 q 501 550 526 606 q 477 368 477 493 q 527 181 477 248 q 669 115 578 115 q 751 124 708 115 l 768 -1 q 711 -10 741 -7 q 653 -14 681 -14 z "},"ǽ":{"ha":814,"x_min":14,"x_max":797,"o":"m 203 -14 q 66 43 118 -14 q 14 194 14 100 q 83 365 14 300 q 265 430 153 430 q 347 424 309 430 q 409 406 384 417 l 379 301 q 331 319 361 317 q 262 321 300 321 q 176 288 209 321 q 143 201 143 255 q 170 129 143 156 q 239 102 196 102 q 323 143 294 102 q 353 258 353 184 l 353 377 l 456 152 l 345 152 l 402 167 q 345 34 391 81 q 203 -14 298 -14 m 353 210 l 353 266 l 353 452 q 300 558 353 519 q 153 600 248 597 l 89 602 l 102 726 l 166 724 q 380 643 304 719 q 456 430 456 566 l 456 210 l 353 210 m 653 -14 q 450 82 522 -14 q 378 361 378 177 q 434 635 378 538 q 590 732 490 732 q 743 642 689 732 q 797 388 797 552 q 796 340 797 365 q 793 296 795 316 l 465 296 l 465 399 l 667 399 q 646 557 667 508 q 578 606 625 606 q 501 550 526 606 q 477 368 477 493 q 527 181 477 248 q 669 115 578 115 q 751 124 708 115 l 768 -1 q 711 -10 741 -7 q 653 -14 681 -14 m 338 846 l 454 1104 l 597 1104 l 469 846 l 338 846 z "},"b":{"ha":814,"x_min":111,"x_max":745,"o":"m 303 -14 q 207 -10 254 -14 q 111 0 159 -6 l 166 132 q 245 112 202 115 q 332 109 289 109 q 532 186 461 109 q 603 407 603 264 q 560 557 603 505 q 437 610 517 610 q 254 404 254 610 l 212 589 l 268 589 q 444 732 278 732 q 667 648 588 732 q 745 407 745 563 q 630 97 745 207 q 303 -14 514 -14 m 111 0 l 111 1017 l 254 1017 l 254 12 l 111 0 z "},"c":{"ha":814,"x_min":92,"x_max":744,"o":"m 476 -14 q 192 83 292 -14 q 92 361 92 180 q 187 635 92 537 q 457 732 281 732 q 637 693 562 732 q 744 583 712 654 l 633 500 q 555 576 603 549 q 452 604 508 604 q 294 542 350 604 q 237 368 237 481 q 303 180 237 245 q 492 115 370 115 q 593 120 543 115 q 690 133 643 125 l 707 7 q 592 -9 651 -5 q 476 -14 532 -14 z "},"ć":{"ha":814,"x_min":92,"x_max":744,"o":"m 476 -14 q 192 83 292 -14 q 92 361 92 180 q 187 635 92 537 q 457 732 281 732 q 637 693 562 732 q 744 583 712 654 l 633 500 q 555 576 603 549 q 452 604 508 604 q 294 542 350 604 q 237 368 237 481 q 303 180 237 245 q 492 115 370 115 q 593 120 543 115 q 690 133 643 125 l 707 7 q 592 -9 651 -5 q 476 -14 532 -14 m 372 846 l 488 1104 l 631 1104 l 503 846 l 372 846 z "},"č":{"ha":814,"x_min":92,"x_max":744,"o":"m 476 -14 q 192 83 292 -14 q 92 361 92 180 q 187 635 92 537 q 457 732 281 732 q 637 693 562 732 q 744 583 712 654 l 633 500 q 555 576 603 549 q 452 604 508 604 q 294 542 350 604 q 237 368 237 481 q 303 180 237 245 q 492 115 370 115 q 593 120 543 115 q 690 133 643 125 l 707 7 q 592 -9 651 -5 q 476 -14 532 -14 m 382 821 l 220 1078 l 363 1078 l 448 911 l 434 911 l 518 1078 l 662 1078 l 499 821 l 382 821 z "},"ç":{"ha":814,"x_min":92,"x_max":744,"o":"m 476 -14 q 192 83 292 -14 q 92 361 92 180 q 187 635 92 537 q 457 732 281 732 q 637 693 562 732 q 744 583 712 654 l 633 500 q 555 576 603 549 q 452 604 508 604 q 294 542 350 604 q 237 368 237 481 q 303 180 237 245 q 492 115 370 115 q 593 120 543 115 q 690 133 643 125 l 707 7 q 592 -9 651 -5 q 476 -14 532 -14 m 332 -326 l 332 -224 q 428 -212 396 -224 q 459 -175 459 -199 q 432 -140 459 -151 q 349 -129 405 -129 l 396 4 l 488 -3 l 471 -68 q 559 -108 530 -80 q 588 -181 588 -136 q 524 -289 588 -253 q 332 -326 460 -326 z "},"ĉ":{"ha":814,"x_min":92,"x_max":744,"o":"m 476 -14 q 192 83 292 -14 q 92 361 92 180 q 187 635 92 537 q 457 732 281 732 q 637 693 562 732 q 744 583 712 654 l 633 500 q 555 576 603 549 q 452 604 508 604 q 294 542 350 604 q 237 368 237 481 q 303 180 237 245 q 492 115 370 115 q 593 120 543 115 q 690 133 643 125 l 707 7 q 592 -9 651 -5 q 476 -14 532 -14 m 220 846 l 382 1104 l 499 1104 l 662 846 l 518 846 l 434 1013 l 448 1013 l 363 846 l 220 846 z "},"ċ":{"ha":814,"x_min":92,"x_max":744,"o":"m 476 -14 q 192 83 292 -14 q 92 361 92 180 q 187 635 92 537 q 457 732 281 732 q 637 693 562 732 q 744 583 712 654 l 633 500 q 555 576 603 549 q 452 604 508 604 q 294 542 350 604 q 237 368 237 481 q 303 180 237 245 q 492 115 370 115 q 593 120 543 115 q 690 133 643 125 l 707 7 q 592 -9 651 -5 q 476 -14 532 -14 m 439 840 q 375 866 402 840 q 349 930 349 893 q 375 995 349 968 q 439 1021 402 1021 q 504 995 477 1021 q 530 930 530 968 q 504 866 530 893 q 439 840 477 840 z "},"d":{"ha":814,"x_min":65,"x_max":700,"o":"m 352 -14 q 138 79 211 -14 q 65 353 65 172 q 138 636 65 540 q 352 732 211 732 q 483 694 433 732 q 543 589 534 656 l 598 589 l 556 384 q 512 553 556 495 q 384 610 469 610 q 252 545 297 610 q 208 353 208 480 q 252 170 208 232 q 384 109 297 109 q 512 166 469 109 q 556 335 556 224 l 605 130 l 543 130 q 485 24 536 62 q 352 -14 435 -14 m 571 -7 l 556 134 l 556 1017 l 700 1017 l 700 0 l 571 -7 z "},"ð":{"ha":814,"x_min":77,"x_max":745,"o":"m 581 184 l 581 452 q 497 771 581 650 q 226 960 413 892 l 260 1028 q 529 895 425 978 q 683 688 633 812 q 732 389 732 564 l 732 357 l 581 184 m 401 111 q 533 162 486 111 q 581 305 581 214 q 533 448 581 397 q 401 499 486 499 q 269 448 317 499 q 222 305 222 397 q 269 162 222 214 q 401 111 317 111 m 393 -14 q 159 70 241 -14 q 77 305 77 154 q 151 541 77 457 q 360 624 224 624 q 495 586 440 624 q 569 480 551 549 l 619 480 l 619 277 l 732 357 q 644 83 732 180 q 393 -14 555 -14 m 185 676 l 158 795 l 718 958 l 745 839 l 185 676 z "},"ď":{"ha":814,"x_min":65,"x_max":939,"o":"m 761 806 l 795 1063 l 939 1063 l 878 806 l 761 806 m 352 -14 q 138 79 211 -14 q 65 353 65 172 q 138 636 65 540 q 352 732 211 732 q 483 694 433 732 q 543 589 534 656 l 598 589 l 556 384 q 512 553 556 495 q 384 610 469 610 q 252 545 297 610 q 208 353 208 480 q 252 170 208 232 q 384 109 297 109 q 512 166 469 109 q 556 335 556 224 l 605 130 l 543 130 q 485 24 536 62 q 352 -14 435 -14 m 571 -7 l 556 134 l 556 1017 l 700 1017 l 700 0 l 571 -7 z "},"đ":{"ha":814,"x_min":65,"x_max":772,"o":"m 313 826 l 313 944 l 772 944 l 772 826 l 313 826 m 352 -14 q 138 79 211 -14 q 65 353 65 172 q 138 636 65 540 q 352 732 211 732 q 483 694 433 732 q 543 589 534 656 l 598 589 l 556 384 q 512 553 556 495 q 384 610 469 610 q 252 545 297 610 q 208 353 208 480 q 252 170 208 232 q 384 109 297 109 q 512 166 469 109 q 556 335 556 224 l 605 130 l 543 130 q 485 24 536 62 q 352 -14 435 -14 m 571 -7 l 556 134 l 556 1017 l 700 1017 l 700 0 l 571 -7 z "},"ɖ":{"ha":814,"x_min":65,"x_max":892,"o":"m 352 -14 q 138 79 211 -14 q 65 353 65 172 q 138 636 65 540 q 352 732 211 732 q 483 694 433 732 q 543 589 534 656 l 598 589 l 556 384 q 512 553 556 495 q 384 610 469 610 q 252 545 297 610 q 208 353 208 480 q 252 170 208 232 q 384 109 297 109 q 512 166 469 109 q 556 335 556 224 l 605 130 l 539 130 q 483 24 532 62 q 352 -14 433 -14 m 885 -318 l 873 -317 q 692 -270 762 -311 q 589 -146 622 -229 q 556 64 556 -64 l 556 301 l 700 301 l 700 42 q 738 -121 700 -68 q 860 -186 776 -173 l 892 -191 l 885 -318 m 556 203 l 556 1017 l 700 1017 l 700 203 l 556 203 z "},"e":{"ha":814,"x_min":85,"x_max":715,"o":"m 469 -14 q 185 83 286 -14 q 85 361 85 180 q 170 635 85 537 q 410 732 255 732 q 635 644 555 732 q 715 388 715 556 q 711 296 715 338 l 206 296 l 206 406 l 585 406 q 538 554 585 503 q 411 606 492 606 q 269 544 319 606 q 218 368 218 481 q 288 178 218 243 q 486 113 357 113 q 574 118 530 113 q 662 132 617 123 l 680 5 q 563 -10 616 -7 q 469 -14 510 -14 z "},"é":{"ha":814,"x_min":85,"x_max":715,"o":"m 469 -14 q 185 83 286 -14 q 85 361 85 180 q 170 635 85 537 q 410 732 255 732 q 635 644 555 732 q 715 388 715 556 q 711 296 715 338 l 206 296 l 206 406 l 585 406 q 538 554 585 503 q 411 606 492 606 q 269 544 319 606 q 218 368 218 481 q 288 178 218 243 q 486 113 357 113 q 574 118 530 113 q 662 132 617 123 l 680 5 q 563 -10 616 -7 q 469 -14 510 -14 m 338 846 l 454 1104 l 597 1104 l 469 846 l 338 846 z "},"ĕ":{"ha":814,"x_min":85,"x_max":715,"o":"m 469 -14 q 185 83 286 -14 q 85 361 85 180 q 170 635 85 537 q 410 732 255 732 q 635 644 555 732 q 715 388 715 556 q 711 296 715 338 l 206 296 l 206 406 l 585 406 q 538 554 585 503 q 411 606 492 606 q 269 544 319 606 q 218 368 218 481 q 288 178 218 243 q 486 113 357 113 q 574 118 530 113 q 662 132 617 123 l 680 5 q 563 -10 616 -7 q 469 -14 510 -14 m 407 840 q 232 897 294 840 q 170 1058 170 954 l 170 1087 l 289 1087 l 289 1058 q 319 965 289 998 q 407 932 350 932 q 494 965 464 932 q 525 1058 525 998 l 525 1087 l 644 1087 l 644 1058 q 582 897 644 954 q 407 840 520 840 z "},"ě":{"ha":814,"x_min":85,"x_max":715,"o":"m 469 -14 q 185 83 286 -14 q 85 361 85 180 q 170 635 85 537 q 410 732 255 732 q 635 644 555 732 q 715 388 715 556 q 711 296 715 338 l 206 296 l 206 406 l 585 406 q 538 554 585 503 q 411 606 492 606 q 269 544 319 606 q 218 368 218 481 q 288 178 218 243 q 486 113 357 113 q 574 118 530 113 q 662 132 617 123 l 680 5 q 563 -10 616 -7 q 469 -14 510 -14 m 349 821 l 186 1078 l 330 1078 l 414 911 l 400 911 l 484 1078 l 628 1078 l 465 821 l 349 821 z "},"ê":{"ha":814,"x_min":85,"x_max":715,"o":"m 469 -14 q 185 83 286 -14 q 85 361 85 180 q 170 635 85 537 q 410 732 255 732 q 635 644 555 732 q 715 388 715 556 q 711 296 715 338 l 206 296 l 206 406 l 585 406 q 538 554 585 503 q 411 606 492 606 q 269 544 319 606 q 218 368 218 481 q 288 178 218 243 q 486 113 357 113 q 574 118 530 113 q 662 132 617 123 l 680 5 q 563 -10 616 -7 q 469 -14 510 -14 m 186 846 l 349 1104 l 465 1104 l 628 846 l 484 846 l 400 1013 l 414 1013 l 330 846 l 186 846 z "},"ế":{"ha":814,"x_min":85,"x_max":840,"o":"m 469 -14 q 185 83 286 -14 q 85 361 85 180 q 170 635 85 537 q 410 732 255 732 q 635 644 555 732 q 715 388 715 556 q 711 296 715 338 l 206 296 l 206 406 l 585 406 q 538 554 585 503 q 411 606 492 606 q 269 544 319 606 q 218 368 218 481 q 288 178 218 243 q 486 113 357 113 q 574 118 530 113 q 662 132 617 123 l 680 5 q 563 -10 616 -7 q 469 -14 510 -14 m 186 846 l 349 1104 l 465 1104 l 628 846 l 484 846 l 400 1013 l 414 1013 l 330 846 l 186 846 m 581 1077 l 696 1335 l 840 1335 l 711 1077 l 581 1077 z "},"ệ":{"ha":814,"x_min":85,"x_max":715,"o":"m 469 -14 q 185 83 286 -14 q 85 361 85 180 q 170 635 85 537 q 410 732 255 732 q 635 644 555 732 q 715 388 715 556 q 711 296 715 338 l 206 296 l 206 406 l 585 406 q 538 554 585 503 q 411 606 492 606 q 269 544 319 606 q 218 368 218 481 q 288 178 218 243 q 486 113 357 113 q 574 118 530 113 q 662 132 617 123 l 680 5 q 563 -10 616 -7 q 469 -14 510 -14 m 420 -285 q 356 -258 383 -285 q 330 -194 330 -231 q 356 -130 330 -156 q 420 -103 383 -103 q 485 -130 458 -103 q 511 -194 511 -156 q 485 -258 511 -231 q 420 -285 458 -285 m 186 846 l 349 1104 l 465 1104 l 628 846 l 484 846 l 400 1013 l 414 1013 l 330 846 l 186 846 z "},"ề":{"ha":814,"x_min":85,"x_max":728,"o":"m 469 -14 q 185 83 286 -14 q 85 361 85 180 q 170 635 85 537 q 410 732 255 732 q 635 644 555 732 q 715 388 715 556 q 711 296 715 338 l 206 296 l 206 406 l 585 406 q 538 554 585 503 q 411 606 492 606 q 269 544 319 606 q 218 368 218 481 q 288 178 218 243 q 486 113 357 113 q 574 118 530 113 q 662 132 617 123 l 680 5 q 563 -10 616 -7 q 469 -14 510 -14 m 186 846 l 349 1104 l 465 1104 l 628 846 l 484 846 l 400 1013 l 414 1013 l 330 846 l 186 846 m 597 1077 l 469 1335 l 612 1335 l 728 1077 l 597 1077 z "},"ể":{"ha":814,"x_min":85,"x_max":781,"o":"m 469 -14 q 185 83 286 -14 q 85 361 85 180 q 170 635 85 537 q 410 732 255 732 q 635 644 555 732 q 715 388 715 556 q 711 296 715 338 l 206 296 l 206 406 l 585 406 q 538 554 585 503 q 411 606 492 606 q 269 544 319 606 q 218 368 218 481 q 288 178 218 243 q 486 113 357 113 q 574 118 530 113 q 662 132 617 123 l 680 5 q 563 -10 616 -7 q 469 -14 510 -14 m 186 846 l 349 1104 l 465 1104 l 628 846 l 484 846 l 400 1013 l 414 1013 l 330 846 l 186 846 m 596 1077 l 596 1101 q 607 1146 596 1128 q 632 1179 618 1165 q 658 1207 647 1194 q 669 1238 669 1221 q 657 1265 669 1255 q 627 1276 646 1276 l 641 1378 q 743 1342 705 1378 q 781 1247 781 1306 q 769 1195 781 1215 q 741 1159 757 1175 q 713 1127 726 1144 q 701 1083 701 1109 l 701 1077 l 596 1077 m 543 1246 l 497 1327 q 557 1364 518 1350 q 641 1378 597 1378 l 627 1276 q 543 1246 577 1276 z "},"ễ":{"ha":814,"x_min":85,"x_max":715,"o":"m 469 -14 q 185 83 286 -14 q 85 361 85 180 q 170 635 85 537 q 410 732 255 732 q 635 644 555 732 q 715 388 715 556 q 711 296 715 338 l 206 296 l 206 406 l 585 406 q 538 554 585 503 q 411 606 492 606 q 269 544 319 606 q 218 368 218 481 q 288 178 218 243 q 486 113 357 113 q 574 118 530 113 q 662 132 617 123 l 680 5 q 563 -10 616 -7 q 469 -14 510 -14 m 186 846 l 349 1104 l 465 1104 l 628 846 l 484 846 l 400 1013 l 414 1013 l 330 846 l 186 846 m 170 1204 l 170 1232 q 312 1401 170 1401 q 363 1393 339 1401 q 412 1371 387 1384 q 470 1344 446 1354 q 511 1333 494 1333 q 548 1377 548 1333 l 548 1438 l 665 1438 l 665 1383 q 633 1261 665 1302 q 537 1221 601 1221 q 490 1229 518 1221 q 427 1255 463 1237 q 382 1277 404 1266 q 338 1289 359 1289 q 300 1276 313 1289 q 288 1238 288 1264 l 288 1204 l 170 1204 z "},"ë":{"ha":814,"x_min":85,"x_max":715,"o":"m 469 -14 q 185 83 286 -14 q 85 361 85 180 q 170 635 85 537 q 410 732 255 732 q 635 644 555 732 q 715 388 715 556 q 711 296 715 338 l 206 296 l 206 406 l 585 406 q 538 554 585 503 q 411 606 492 606 q 269 544 319 606 q 218 368 218 481 q 288 178 218 243 q 486 113 357 113 q 574 118 530 113 q 662 132 617 123 l 680 5 q 563 -10 616 -7 q 469 -14 510 -14 m 551 840 q 487 866 513 840 q 460 930 460 893 q 487 995 460 968 q 551 1021 513 1021 q 615 995 589 1021 q 642 930 642 968 q 615 866 642 893 q 551 840 589 840 m 266 840 q 202 866 229 840 q 175 930 175 893 q 202 995 175 968 q 266 1021 229 1021 q 330 995 304 1021 q 357 930 357 968 q 330 866 357 893 q 266 840 304 840 z "},"ė":{"ha":814,"x_min":85,"x_max":715,"o":"m 469 -14 q 185 83 286 -14 q 85 361 85 180 q 170 635 85 537 q 410 732 255 732 q 635 644 555 732 q 715 388 715 556 q 711 296 715 338 l 206 296 l 206 406 l 585 406 q 538 554 585 503 q 411 606 492 606 q 269 544 319 606 q 218 368 218 481 q 288 178 218 243 q 486 113 357 113 q 574 118 530 113 q 662 132 617 123 l 680 5 q 563 -10 616 -7 q 469 -14 510 -14 m 406 840 q 341 866 368 840 q 315 930 315 893 q 341 995 315 968 q 406 1021 368 1021 q 470 995 444 1021 q 496 930 496 968 q 470 866 496 893 q 406 840 444 840 z "},"ẹ":{"ha":814,"x_min":85,"x_max":715,"o":"m 469 -14 q 185 83 286 -14 q 85 361 85 180 q 170 635 85 537 q 410 732 255 732 q 635 644 555 732 q 715 388 715 556 q 711 296 715 338 l 206 296 l 206 406 l 585 406 q 538 554 585 503 q 411 606 492 606 q 269 544 319 606 q 218 368 218 481 q 288 178 218 243 q 486 113 357 113 q 574 118 530 113 q 662 132 617 123 l 680 5 q 563 -10 616 -7 q 469 -14 510 -14 m 420 -285 q 356 -258 383 -285 q 330 -194 330 -231 q 356 -130 330 -156 q 420 -103 383 -103 q 485 -130 458 -103 q 511 -194 511 -156 q 485 -258 511 -231 q 420 -285 458 -285 z "},"è":{"ha":814,"x_min":85,"x_max":715,"o":"m 469 -14 q 185 83 286 -14 q 85 361 85 180 q 170 635 85 537 q 410 732 255 732 q 635 644 555 732 q 715 388 715 556 q 711 296 715 338 l 206 296 l 206 406 l 585 406 q 538 554 585 503 q 411 606 492 606 q 269 544 319 606 q 218 368 218 481 q 288 178 218 243 q 486 113 357 113 q 574 118 530 113 q 662 132 617 123 l 680 5 q 563 -10 616 -7 q 469 -14 510 -14 m 355 846 l 227 1104 l 370 1104 l 486 846 l 355 846 z "},"ẻ":{"ha":814,"x_min":85,"x_max":715,"o":"m 469 -14 q 185 83 286 -14 q 85 361 85 180 q 170 635 85 537 q 410 732 255 732 q 635 644 555 732 q 715 388 715 556 q 711 296 715 338 l 206 296 l 206 406 l 585 406 q 538 554 585 503 q 411 606 492 606 q 269 544 319 606 q 218 368 218 481 q 288 178 218 243 q 486 113 357 113 q 574 118 530 113 q 662 132 617 123 l 680 5 q 563 -10 616 -7 q 469 -14 510 -14 m 354 846 l 354 871 q 365 916 354 897 q 390 949 376 935 q 416 977 405 963 q 427 1007 427 990 q 415 1035 427 1025 q 385 1045 404 1045 l 399 1147 q 501 1112 463 1147 q 539 1017 539 1076 q 527 964 539 984 q 499 929 515 944 q 471 896 484 913 q 459 852 459 879 l 459 846 l 354 846 m 300 1016 l 255 1097 q 315 1134 276 1120 q 399 1147 355 1147 l 385 1045 q 300 1016 335 1045 z "},"ē":{"ha":814,"x_min":85,"x_max":715,"o":"m 469 -14 q 185 83 286 -14 q 85 361 85 180 q 170 635 85 537 q 410 732 255 732 q 635 644 555 732 q 715 388 715 556 q 711 296 715 338 l 206 296 l 206 406 l 585 406 q 538 554 585 503 q 411 606 492 606 q 269 544 319 606 q 218 368 218 481 q 288 178 218 243 q 486 113 357 113 q 574 118 530 113 q 662 132 617 123 l 680 5 q 563 -10 616 -7 q 469 -14 510 -14 m 115 846 l 115 974 l 699 974 l 699 846 l 115 846 z "},"ę":{"ha":814,"x_min":85,"x_max":715,"o":"m 589 -288 q 468 -253 511 -288 q 426 -157 426 -219 q 446 -73 426 -107 q 503 -27 467 -39 l 503 20 l 666 27 l 680 5 q 610 -16 645 -3 q 551 -53 575 -29 q 528 -114 528 -76 q 543 -153 528 -132 q 606 -174 559 -174 q 631 -172 618 -174 q 662 -166 645 -170 l 650 -281 q 617 -286 633 -284 q 589 -288 602 -288 m 469 -14 q 185 83 286 -14 q 85 361 85 180 q 170 635 85 537 q 410 732 255 732 q 635 644 555 732 q 715 388 715 556 q 711 296 715 338 l 206 296 l 206 406 l 585 406 q 538 554 585 503 q 411 606 492 606 q 269 544 319 606 q 218 368 218 481 q 288 178 218 243 q 486 113 357 113 q 574 118 530 113 q 662 132 617 123 l 680 5 q 563 -10 616 -7 q 469 -14 510 -14 z "},"ɛ":{"ha":814,"x_min":113,"x_max":712,"o":"m 425 -14 q 113 190 113 -14 q 358 363 113 343 l 566 418 l 549 295 l 528 295 q 262 197 262 295 q 430 111 262 111 q 569 124 514 111 q 668 149 625 137 l 705 19 q 580 -5 651 4 q 425 -14 509 -14 m 320 295 l 320 373 q 133 557 133 420 q 435 732 133 732 q 712 693 627 732 l 668 570 q 450 608 574 608 q 283 524 283 608 q 566 418 283 429 l 549 295 l 320 295 z "},"ʃ":{"ha":814,"x_min":73,"x_max":789,"o":"m 300 353 l 300 658 q 640 1031 300 1031 q 789 1017 718 1031 l 774 892 q 699 900 732 898 q 636 902 667 902 q 444 665 444 902 l 444 353 l 300 353 m 80 -323 l 73 -196 l 146 -186 q 263 -121 227 -174 q 300 42 300 -68 l 300 369 l 444 369 l 444 64 q 415 -143 444 -63 q 328 -264 387 -223 q 174 -314 268 -304 l 80 -323 z "},"ẽ":{"ha":814,"x_min":85,"x_max":715,"o":"m 469 -14 q 185 83 286 -14 q 85 361 85 180 q 170 635 85 537 q 410 732 255 732 q 635 644 555 732 q 715 388 715 556 q 711 296 715 338 l 206 296 l 206 406 l 585 406 q 538 554 585 503 q 411 606 492 606 q 269 544 319 606 q 218 368 218 481 q 288 178 218 243 q 486 113 357 113 q 574 118 530 113 q 662 132 617 123 l 680 5 q 563 -10 616 -7 q 469 -14 510 -14 m 170 852 l 170 879 q 312 1048 170 1048 q 363 1040 339 1048 q 412 1019 387 1031 q 470 991 446 1002 q 511 981 494 981 q 548 1024 548 981 l 548 1085 l 665 1085 l 665 1031 q 633 909 665 949 q 537 868 601 868 q 490 876 518 868 q 427 902 463 884 q 382 925 404 913 q 338 936 359 936 q 300 924 313 936 q 288 886 288 911 l 288 852 l 170 852 z "},"ǝ":{"ha":814,"x_min":92,"x_max":722,"o":"m 397 -14 q 172 75 252 -14 q 92 331 92 163 q 96 423 92 380 l 601 423 l 601 313 l 222 313 q 269 165 222 217 q 396 113 315 113 q 538 175 488 113 q 589 351 589 237 q 519 542 589 477 q 321 606 450 606 q 233 600 277 606 q 145 581 190 593 l 127 700 q 244 727 192 721 q 338 732 297 732 q 622 636 522 732 q 722 358 722 539 q 637 84 722 182 q 397 -14 552 -14 z "},"ə":{"ha":814,"x_min":92,"x_max":722,"o":"m 397 -14 q 172 75 252 -14 q 92 331 92 163 q 96 423 92 380 l 601 423 l 601 313 l 222 313 q 269 165 222 217 q 396 113 315 113 q 538 175 488 113 q 589 351 589 237 q 519 542 589 477 q 321 606 450 606 q 233 600 277 606 q 145 581 190 593 l 127 700 q 244 727 192 721 q 338 732 297 732 q 622 636 522 732 q 722 358 722 539 q 637 84 722 182 q 397 -14 552 -14 z "},"ʒ":{"ha":814,"x_min":54,"x_max":720,"o":"m 367 -312 q 54 -191 171 -312 l 149 -90 q 253 -161 203 -139 q 374 -183 303 -183 q 520 -135 468 -183 q 572 -6 572 -87 q 513 135 572 85 q 347 185 454 185 l 271 185 l 266 289 l 388 289 q 633 210 546 286 q 720 -2 720 134 q 678 -163 720 -93 q 558 -272 637 -233 q 367 -312 479 -312 m 317 185 l 230 185 l 216 269 l 553 628 l 570 595 l 117 595 l 117 713 l 675 713 l 675 576 l 379 260 l 317 185 z "},"f":{"ha":814,"x_min":46,"x_max":762,"o":"m 273 0 l 273 658 q 613 1031 273 1031 q 762 1017 690 1031 l 747 892 q 672 900 705 898 q 609 902 640 902 q 416 665 416 902 l 416 0 l 273 0 m 46 434 l 46 560 l 711 560 l 711 434 l 46 434 z "},"g":{"ha":814,"x_min":65,"x_max":700,"o":"m 123 -324 l 117 -193 l 347 -186 q 506 -125 456 -182 q 556 42 555 -68 l 556 567 l 570 719 l 700 719 l 700 64 q 612 -220 700 -128 q 334 -317 525 -311 l 123 -324 m 352 -14 q 138 79 211 -14 q 65 353 65 172 q 138 636 65 540 q 352 732 211 732 q 488 694 436 732 q 549 589 541 656 l 605 589 l 556 384 q 512 553 556 495 q 384 610 469 610 q 252 545 297 610 q 208 353 208 480 q 252 170 208 232 q 384 109 297 109 q 512 166 469 109 q 556 335 556 224 l 605 130 l 543 130 q 485 24 536 62 q 352 -14 435 -14 z "},"ɣ":{"ha":814,"x_min":54,"x_max":760,"o":"m 311 0 l 54 719 l 208 719 l 401 122 l 413 122 l 606 719 l 760 719 l 503 0 l 406 41 l 311 0 m 407 -313 l 407 -184 q 466 -165 446 -184 q 486 -110 486 -145 q 464 -51 486 -83 q 384 45 443 -18 l 482 75 q 597 -36 566 16 q 628 -140 628 -88 q 570 -268 628 -223 q 407 -313 512 -313 m 407 -313 q 244 -268 302 -313 q 186 -140 186 -223 q 217 -36 186 -88 q 332 75 248 16 l 430 45 q 350 -51 371 -18 q 328 -110 328 -83 q 348 -165 328 -145 q 407 -184 368 -184 l 407 -313 z "},"ğ":{"ha":814,"x_min":65,"x_max":700,"o":"m 123 -324 l 117 -193 l 347 -186 q 506 -125 456 -182 q 556 42 555 -68 l 556 567 l 570 719 l 700 719 l 700 64 q 612 -220 700 -128 q 334 -317 525 -311 l 123 -324 m 352 -14 q 138 79 211 -14 q 65 353 65 172 q 138 636 65 540 q 352 732 211 732 q 488 694 436 732 q 549 589 541 656 l 605 589 l 556 384 q 512 553 556 495 q 384 610 469 610 q 252 545 297 610 q 208 353 208 480 q 252 170 208 232 q 384 109 297 109 q 512 166 469 109 q 556 335 556 224 l 605 130 l 543 130 q 485 24 536 62 q 352 -14 435 -14 m 380 840 q 205 897 267 840 q 143 1058 143 954 l 143 1087 l 262 1087 l 262 1058 q 292 965 262 998 q 380 932 323 932 q 467 965 437 932 q 498 1058 498 998 l 498 1087 l 616 1087 l 616 1058 q 555 897 616 954 q 380 840 493 840 z "},"ǧ":{"ha":814,"x_min":65,"x_max":700,"o":"m 123 -324 l 117 -193 l 347 -186 q 506 -125 456 -182 q 556 42 555 -68 l 556 567 l 570 719 l 700 719 l 700 64 q 612 -220 700 -128 q 334 -317 525 -311 l 123 -324 m 352 -14 q 138 79 211 -14 q 65 353 65 172 q 138 636 65 540 q 352 732 211 732 q 488 694 436 732 q 549 589 541 656 l 605 589 l 556 384 q 512 553 556 495 q 384 610 469 610 q 252 545 297 610 q 208 353 208 480 q 252 170 208 232 q 384 109 297 109 q 512 166 469 109 q 556 335 556 224 l 605 130 l 543 130 q 485 24 536 62 q 352 -14 435 -14 m 321 821 l 159 1078 l 302 1078 l 387 911 l 373 911 l 457 1078 l 601 1078 l 438 821 l 321 821 z "},"ĝ":{"ha":814,"x_min":65,"x_max":700,"o":"m 123 -324 l 117 -193 l 347 -186 q 506 -125 456 -182 q 556 42 555 -68 l 556 567 l 570 719 l 700 719 l 700 64 q 612 -220 700 -128 q 334 -317 525 -311 l 123 -324 m 352 -14 q 138 79 211 -14 q 65 353 65 172 q 138 636 65 540 q 352 732 211 732 q 488 694 436 732 q 549 589 541 656 l 605 589 l 556 384 q 512 553 556 495 q 384 610 469 610 q 252 545 297 610 q 208 353 208 480 q 252 170 208 232 q 384 109 297 109 q 512 166 469 109 q 556 335 556 224 l 605 130 l 543 130 q 485 24 536 62 q 352 -14 435 -14 m 159 846 l 321 1104 l 438 1104 l 601 846 l 457 846 l 373 1013 l 387 1013 l 302 846 l 159 846 z "},"ģ":{"ha":814,"x_min":65,"x_max":700,"o":"m 123 -324 l 117 -193 l 347 -186 q 506 -125 456 -182 q 556 42 555 -68 l 556 567 l 570 719 l 700 719 l 700 64 q 612 -220 700 -128 q 334 -317 525 -311 l 123 -324 m 352 -14 q 138 79 211 -14 q 65 353 65 172 q 138 636 65 540 q 352 732 211 732 q 488 694 436 732 q 549 589 541 656 l 605 589 l 556 384 q 512 553 556 495 q 384 610 469 610 q 252 545 297 610 q 208 353 208 480 q 252 170 208 232 q 384 109 297 109 q 512 166 469 109 q 556 335 556 224 l 605 130 l 543 130 q 485 24 536 62 q 352 -14 435 -14 m 385 1122 l 466 1055 q 395 989 418 1017 q 372 942 372 962 q 422 916 372 916 l 466 916 l 466 814 l 415 814 q 300 842 337 814 q 262 928 262 869 q 292 1015 262 967 q 385 1122 322 1062 z "},"ġ":{"ha":814,"x_min":65,"x_max":700,"o":"m 123 -324 l 117 -193 l 347 -186 q 506 -125 456 -182 q 556 42 555 -68 l 556 567 l 570 719 l 700 719 l 700 64 q 612 -220 700 -128 q 334 -317 525 -311 l 123 -324 m 352 -14 q 138 79 211 -14 q 65 353 65 172 q 138 636 65 540 q 352 732 211 732 q 488 694 436 732 q 549 589 541 656 l 605 589 l 556 384 q 512 553 556 495 q 384 610 469 610 q 252 545 297 610 q 208 353 208 480 q 252 170 208 232 q 384 109 297 109 q 512 166 469 109 q 556 335 556 224 l 605 130 l 543 130 q 485 24 536 62 q 352 -14 435 -14 m 378 840 q 314 866 341 840 q 288 930 288 893 q 314 995 288 968 q 378 1021 341 1021 q 443 995 416 1021 q 469 930 469 968 q 443 866 469 893 q 378 840 416 840 z "},"ʔ":{"ha":814,"x_min":85,"x_max":689,"o":"m 315 0 l 315 259 q 351 426 315 352 q 457 579 387 499 q 520 666 500 628 q 540 754 540 703 q 498 863 540 825 q 382 902 457 902 l 384 1031 q 609 960 529 1031 q 689 761 689 889 q 675 666 689 708 q 633 585 661 624 q 566 500 606 546 q 480 369 504 431 q 456 250 456 308 l 456 0 l 315 0 m 179 785 l 85 882 q 210 990 129 949 q 384 1031 290 1031 l 382 902 q 272 870 327 902 q 179 785 217 838 z "},"ʕ":{"ha":814,"x_min":125,"x_max":728,"o":"m 358 0 l 358 243 q 334 363 358 301 q 248 500 311 425 q 182 586 210 547 q 140 667 155 625 q 125 761 125 708 q 205 960 125 889 q 430 1031 285 1031 l 431 902 q 315 863 357 902 q 274 754 274 825 q 294 666 274 703 q 357 579 313 628 q 463 426 427 499 q 499 259 499 352 l 499 0 l 358 0 m 635 785 q 542 870 597 838 q 431 902 488 902 l 430 1031 q 604 990 524 1031 q 728 882 685 949 l 635 785 z "},"ǥ":{"ha":814,"x_min":30,"x_max":784,"o":"m 30 -131 l 30 -58 l 784 -58 l 784 -131 l 30 -131 m 123 -324 l 117 -193 l 347 -186 q 506 -125 456 -182 q 556 42 555 -68 l 556 567 l 570 719 l 700 719 l 700 64 q 612 -220 700 -128 q 334 -317 525 -311 l 123 -324 m 352 -14 q 138 79 211 -14 q 65 353 65 172 q 138 636 65 540 q 352 732 211 732 q 488 694 436 732 q 549 589 541 656 l 605 589 l 556 384 q 512 553 556 495 q 384 610 469 610 q 252 545 297 610 q 208 353 208 480 q 252 170 208 232 q 384 109 297 109 q 512 166 469 109 q 556 335 556 224 l 605 130 l 543 130 q 485 24 536 62 q 352 -14 435 -14 z "},"h":{"ha":814,"x_min":114,"x_max":700,"o":"m 556 0 l 556 468 q 522 573 556 536 q 427 610 488 610 q 258 404 258 610 l 216 589 l 271 589 q 324 697 277 661 q 461 732 371 732 q 637 663 575 732 q 700 468 700 594 l 700 0 l 556 0 m 114 0 l 114 1017 l 258 1017 l 258 0 l 114 0 z "},"ħ":{"ha":814,"x_min":15,"x_max":700,"o":"m 15 826 l 15 944 l 500 944 l 500 826 l 15 826 m 556 0 l 556 468 q 522 573 556 536 q 427 610 488 610 q 258 404 258 610 l 216 589 l 271 589 q 324 697 277 661 q 461 732 371 732 q 637 663 575 732 q 700 468 700 594 l 700 0 l 556 0 m 114 0 l 114 1017 l 258 1017 l 258 0 l 114 0 z "},"ȟ":{"ha":814,"x_min":-49,"x_max":700,"o":"m 556 0 l 556 468 q 522 573 556 536 q 427 610 488 610 q 258 404 258 610 l 216 589 l 271 589 q 324 697 277 661 q 461 732 371 732 q 637 663 575 732 q 700 468 700 594 l 700 0 l 556 0 m 114 0 l 114 1017 l 258 1017 l 258 0 l 114 0 m 127 1126 l -49 1302 l 102 1302 l 193 1196 l 179 1196 l 270 1302 l 420 1302 l 244 1126 l 127 1126 z "},"ĥ":{"ha":814,"x_min":-45,"x_max":700,"o":"m 556 0 l 556 468 q 522 573 556 536 q 427 610 488 610 q 258 404 258 610 l 216 589 l 271 589 q 324 697 277 661 q 461 732 371 732 q 637 663 575 732 q 700 468 700 594 l 700 0 l 556 0 m 114 0 l 114 1017 l 258 1017 l 258 0 l 114 0 m -45 1126 l 131 1302 l 248 1302 l 424 1126 l 273 1126 l 153 1265 l 225 1265 l 105 1126 l -45 1126 z "},"ḥ":{"ha":814,"x_min":114,"x_max":700,"o":"m 556 0 l 556 468 q 522 573 556 536 q 427 610 488 610 q 258 404 258 610 l 216 589 l 271 589 q 324 697 277 661 q 461 732 371 732 q 637 663 575 732 q 700 468 700 594 l 700 0 l 556 0 m 114 0 l 114 1017 l 258 1017 l 258 0 l 114 0 m 407 -285 q 343 -258 370 -285 q 316 -194 316 -231 q 343 -130 316 -156 q 407 -103 370 -103 q 471 -130 445 -103 q 498 -194 498 -156 q 471 -258 498 -231 q 407 -285 445 -285 z "},"i":{"ha":814,"x_min":109,"x_max":747,"o":"m 382 0 l 382 678 l 526 678 l 526 0 l 382 0 m 109 0 l 109 126 l 396 126 l 396 0 l 109 0 m 513 0 l 513 126 l 747 126 l 747 0 l 513 0 m 149 593 l 149 719 l 526 719 l 526 593 l 149 593 m 450 833 q 379 862 408 833 q 349 933 349 892 q 379 1004 349 975 q 450 1034 408 1034 q 521 1004 492 1034 q 550 933 550 975 q 521 862 550 892 q 450 833 492 833 z "},"ı":{"ha":814,"x_min":109,"x_max":747,"o":"m 382 0 l 382 678 l 526 678 l 526 0 l 382 0 m 109 0 l 109 126 l 396 126 l 396 0 l 109 0 m 513 0 l 513 126 l 747 126 l 747 0 l 513 0 m 149 593 l 149 719 l 526 719 l 526 593 l 149 593 z "},"í":{"ha":814,"x_min":109,"x_max":747,"o":"m 382 0 l 382 678 l 526 678 l 526 0 l 382 0 m 109 0 l 109 126 l 396 126 l 396 0 l 109 0 m 513 0 l 513 126 l 747 126 l 747 0 l 513 0 m 149 593 l 149 719 l 526 719 l 526 593 l 149 593 m 372 846 l 488 1104 l 631 1104 l 503 846 l 372 846 z "},"ĭ":{"ha":814,"x_min":109,"x_max":747,"o":"m 382 0 l 382 678 l 526 678 l 526 0 l 382 0 m 109 0 l 109 126 l 396 126 l 396 0 l 109 0 m 513 0 l 513 126 l 747 126 l 747 0 l 513 0 m 149 593 l 149 719 l 526 719 l 526 593 l 149 593 m 441 840 q 266 897 328 840 q 204 1058 204 954 l 204 1087 l 323 1087 l 323 1058 q 353 965 323 998 q 441 932 384 932 q 528 965 498 932 q 559 1058 559 998 l 559 1087 l 677 1087 l 677 1058 q 616 897 677 954 q 441 840 554 840 z "},"î":{"ha":814,"x_min":109,"x_max":747,"o":"m 382 0 l 382 678 l 526 678 l 526 0 l 382 0 m 109 0 l 109 126 l 396 126 l 396 0 l 109 0 m 513 0 l 513 126 l 747 126 l 747 0 l 513 0 m 149 593 l 149 719 l 526 719 l 526 593 l 149 593 m 220 846 l 382 1104 l 499 1104 l 662 846 l 518 846 l 434 1013 l 448 1013 l 363 846 l 220 846 z "},"ï":{"ha":814,"x_min":109,"x_max":747,"o":"m 382 0 l 382 678 l 526 678 l 526 0 l 382 0 m 109 0 l 109 126 l 396 126 l 396 0 l 109 0 m 513 0 l 513 126 l 747 126 l 747 0 l 513 0 m 149 593 l 149 719 l 526 719 l 526 593 l 149 593 m 585 840 q 520 866 547 840 q 494 930 494 893 q 520 995 494 968 q 585 1021 547 1021 q 649 995 623 1021 q 675 930 675 968 q 649 866 675 893 q 585 840 623 840 m 300 840 q 236 866 262 840 q 209 930 209 893 q 236 995 209 968 q 300 1021 262 1021 q 364 995 338 1021 q 391 930 391 968 q 364 866 391 893 q 300 840 338 840 z "},"ị":{"ha":814,"x_min":109,"x_max":747,"o":"m 382 0 l 382 678 l 526 678 l 526 0 l 382 0 m 109 0 l 109 126 l 396 126 l 396 0 l 109 0 m 513 0 l 513 126 l 747 126 l 747 0 l 513 0 m 149 593 l 149 719 l 526 719 l 526 593 l 149 593 m 450 833 q 379 862 408 833 q 349 933 349 892 q 379 1004 349 975 q 450 1034 408 1034 q 521 1004 492 1034 q 550 933 550 975 q 521 862 550 892 q 450 833 492 833 m 454 -285 q 390 -258 417 -285 q 363 -194 363 -231 q 390 -130 363 -156 q 454 -103 417 -103 q 519 -130 492 -103 q 545 -194 545 -156 q 519 -258 545 -231 q 454 -285 492 -285 z "},"ì":{"ha":814,"x_min":109,"x_max":747,"o":"m 382 0 l 382 678 l 526 678 l 526 0 l 382 0 m 109 0 l 109 126 l 396 126 l 396 0 l 109 0 m 513 0 l 513 126 l 747 126 l 747 0 l 513 0 m 149 593 l 149 719 l 526 719 l 526 593 l 149 593 m 389 846 l 260 1104 l 404 1104 l 519 846 l 389 846 z "},"ỉ":{"ha":814,"x_min":109,"x_max":747,"o":"m 382 0 l 382 678 l 526 678 l 526 0 l 382 0 m 109 0 l 109 126 l 396 126 l 396 0 l 109 0 m 513 0 l 513 126 l 747 126 l 747 0 l 513 0 m 149 593 l 149 719 l 526 719 l 526 593 l 149 593 m 388 846 l 388 871 q 399 916 388 897 q 424 949 410 935 q 450 977 439 963 q 460 1007 460 990 q 449 1035 460 1025 q 418 1045 437 1045 l 433 1147 q 535 1112 496 1147 q 573 1017 573 1076 q 561 964 573 984 q 533 929 549 944 q 505 896 517 913 q 493 852 493 879 l 493 846 l 388 846 m 334 1016 l 289 1097 q 349 1134 310 1120 q 433 1147 389 1147 l 418 1045 q 334 1016 369 1045 z "},"ĳ":{"ha":814,"x_min":136,"x_max":678,"o":"m 171 -326 l 164 -198 l 300 -186 q 458 -122 409 -176 q 507 42 507 -68 l 507 260 l 651 260 l 651 64 q 564 -216 651 -128 q 286 -317 477 -304 l 171 -326 m 165 0 l 165 719 l 309 719 l 309 0 l 165 0 m 507 237 l 507 719 l 651 719 l 651 237 l 507 237 m 236 833 q 165 862 195 833 q 136 933 136 892 q 165 1004 136 975 q 236 1034 195 1034 q 307 1004 278 1034 q 336 933 336 975 q 307 862 336 892 q 236 833 278 833 m 578 833 q 507 862 536 833 q 477 933 477 892 q 507 1004 477 975 q 578 1034 536 1034 q 649 1004 620 1034 q 678 933 678 975 q 649 862 678 892 q 578 833 620 833 z "},"ī":{"ha":814,"x_min":109,"x_max":747,"o":"m 382 0 l 382 678 l 526 678 l 526 0 l 382 0 m 109 0 l 109 126 l 396 126 l 396 0 l 109 0 m 513 0 l 513 126 l 747 126 l 747 0 l 513 0 m 149 593 l 149 719 l 526 719 l 526 593 l 149 593 m 149 846 l 149 974 l 732 974 l 732 846 l 149 846 z "},"į":{"ha":814,"x_min":109,"x_max":747,"o":"m 454 -288 q 334 -250 376 -288 q 292 -144 292 -212 q 312 -60 292 -94 q 369 -14 332 -26 l 369 20 l 532 22 l 545 0 q 433 -30 473 0 q 393 -114 393 -60 q 414 -158 393 -142 q 472 -174 435 -174 q 528 -166 496 -174 l 515 -281 q 484 -286 500 -284 q 454 -288 468 -288 m 382 0 l 382 678 l 526 678 l 526 0 l 382 0 m 109 0 l 109 126 l 396 126 l 396 0 l 109 0 m 513 0 l 513 126 l 747 126 l 747 0 l 513 0 m 149 593 l 149 719 l 526 719 l 526 593 l 149 593 m 450 833 q 379 862 408 833 q 349 933 349 892 q 379 1004 349 975 q 450 1034 408 1034 q 521 1004 492 1034 q 550 933 550 975 q 521 862 550 892 q 450 833 492 833 z "},"ɩ":{"ha":814,"x_min":88,"x_max":722,"o":"m 518 -14 q 345 54 398 -14 q 292 271 292 122 l 292 719 l 435 719 l 435 278 q 461 154 435 193 q 572 115 486 115 q 705 141 625 115 l 722 15 q 621 -7 669 0 q 518 -14 573 -14 m 88 600 l 88 719 l 304 719 l 304 600 l 88 600 z "},"ĩ":{"ha":814,"x_min":109,"x_max":747,"o":"m 382 0 l 382 678 l 526 678 l 526 0 l 382 0 m 109 0 l 109 126 l 396 126 l 396 0 l 109 0 m 513 0 l 513 126 l 747 126 l 747 0 l 513 0 m 149 593 l 149 719 l 526 719 l 526 593 l 149 593 m 203 852 l 203 879 q 346 1048 203 1048 q 397 1040 373 1048 q 446 1019 420 1031 q 504 991 480 1002 q 545 981 528 981 q 582 1024 582 981 l 582 1085 l 699 1085 l 699 1031 q 667 909 699 949 q 571 868 635 868 q 524 876 552 868 q 460 902 496 884 q 416 925 438 913 q 372 936 393 936 q 334 924 347 936 q 321 886 321 911 l 321 852 l 203 852 z "},"j":{"ha":814,"x_min":115,"x_max":616,"o":"m 122 -326 l 115 -198 l 251 -186 q 409 -122 360 -176 q 458 42 458 -68 l 458 260 l 602 260 l 602 64 q 564 -145 602 -64 q 446 -267 526 -226 q 237 -317 365 -308 l 122 -326 m 179 593 l 179 719 l 469 719 l 469 593 l 179 593 m 458 237 l 458 719 l 602 719 l 602 237 l 458 237 m 515 833 q 445 862 474 833 q 415 933 415 892 q 445 1004 415 975 q 515 1034 474 1034 q 587 1004 557 1034 q 616 933 616 975 q 587 862 616 892 q 515 833 557 833 z "},"ȷ":{"ha":814,"x_min":115,"x_max":602,"o":"m 122 -326 l 115 -198 l 251 -186 q 409 -122 360 -176 q 458 42 458 -68 l 458 260 l 602 260 l 602 64 q 515 -216 602 -128 q 237 -317 429 -304 l 122 -326 m 179 601 l 179 719 l 469 719 l 469 601 l 179 601 m 458 237 l 458 719 l 602 719 l 602 237 l 458 237 z "},"ǰ":{"ha":814,"x_min":115,"x_max":751,"o":"m 122 -326 l 115 -198 l 251 -186 q 409 -122 360 -176 q 458 42 458 -68 l 458 260 l 602 260 l 602 64 q 515 -216 602 -128 q 237 -317 429 -304 l 122 -326 m 179 601 l 179 719 l 469 719 l 469 601 l 179 601 m 458 237 l 458 719 l 602 719 l 602 237 l 458 237 m 472 821 l 309 1078 l 453 1078 l 537 911 l 524 911 l 608 1078 l 751 1078 l 589 821 l 472 821 z "},"ĵ":{"ha":814,"x_min":115,"x_max":751,"o":"m 122 -326 l 115 -198 l 251 -186 q 409 -122 360 -176 q 458 42 458 -68 l 458 260 l 602 260 l 602 64 q 515 -216 602 -128 q 237 -317 429 -304 l 122 -326 m 179 601 l 179 719 l 469 719 l 469 601 l 179 601 m 458 237 l 458 719 l 602 719 l 602 237 l 458 237 m 309 846 l 472 1104 l 589 1104 l 751 846 l 608 846 l 524 1013 l 537 1013 l 453 846 l 309 846 z "},"k":{"ha":814,"x_min":109,"x_max":773,"o":"m 210 273 l 210 401 l 292 401 q 439 432 381 401 q 529 533 496 463 q 578 719 562 603 l 727 719 q 599 384 699 494 q 326 273 500 273 l 210 273 m 109 0 l 109 1017 l 252 1017 l 252 0 l 109 0 m 595 0 l 391 350 l 526 406 l 773 0 l 595 0 z "},"ķ":{"ha":814,"x_min":109,"x_max":773,"o":"m 210 273 l 210 401 l 292 401 q 439 432 381 401 q 529 533 496 463 q 578 719 562 603 l 727 719 q 599 384 699 494 q 326 273 500 273 l 210 273 m 109 0 l 109 1017 l 252 1017 l 252 0 l 109 0 m 595 0 l 391 350 l 526 406 l 773 0 l 595 0 z "},"ḳ":{"ha":814,"x_min":109,"x_max":773,"o":"m 210 273 l 210 401 l 292 401 q 439 432 381 401 q 529 533 496 463 q 578 719 562 603 l 727 719 q 599 384 699 494 q 326 273 500 273 l 210 273 m 109 0 l 109 1017 l 252 1017 l 252 0 l 109 0 m 595 0 l 391 350 l 526 406 l 773 0 l 595 0 m 420 -285 q 356 -258 383 -285 q 330 -194 330 -231 q 356 -130 330 -156 q 420 -103 383 -103 q 485 -130 458 -103 q 511 -194 511 -156 q 485 -258 511 -231 q 420 -285 458 -285 z "},"ĸ":{"ha":814,"x_min":109,"x_max":773,"o":"m 210 273 l 210 401 l 292 401 q 439 432 381 401 q 529 533 496 463 q 578 719 562 603 l 727 719 q 599 384 699 494 q 326 273 500 273 l 210 273 m 109 0 l 109 719 l 252 719 l 252 0 l 109 0 m 595 0 l 391 350 l 526 406 l 773 0 l 595 0 z "},"ḵ":{"ha":814,"x_min":109,"x_max":773,"o":"m 210 273 l 210 401 l 292 401 q 439 432 381 401 q 529 533 496 463 q 578 719 562 603 l 727 719 q 599 384 699 494 q 326 273 500 273 l 210 273 m 109 0 l 109 1017 l 252 1017 l 252 0 l 109 0 m 595 0 l 391 350 l 526 406 l 773 0 l 595 0 m 129 -269 l 129 -141 l 712 -141 l 712 -269 l 129 -269 z "},"l":{"ha":814,"x_min":66,"x_max":728,"o":"m 514 -14 q 334 54 389 -14 q 278 271 278 122 l 278 1017 l 422 1017 l 422 278 q 433 185 422 221 q 475 132 444 149 q 568 115 507 115 q 712 141 625 115 l 728 15 q 623 -7 673 0 q 514 -14 572 -14 m 66 891 l 66 1017 l 290 1017 l 290 891 l 66 891 z "},"ĺ":{"ha":814,"x_min":66,"x_max":728,"o":"m 514 -14 q 334 54 389 -14 q 278 271 278 122 l 278 1017 l 422 1017 l 422 278 q 433 185 422 221 q 475 132 444 149 q 568 115 507 115 q 712 141 625 115 l 728 15 q 623 -7 673 0 q 514 -14 572 -14 m 66 891 l 66 1017 l 290 1017 l 290 891 l 66 891 m 261 1126 l 410 1295 l 602 1295 l 418 1126 l 261 1126 z "},"ƛ":{"ha":814,"x_min":45,"x_max":796,"o":"m 94 608 l 66 727 l 654 917 l 681 798 l 94 608 m 724 -14 q 582 26 636 -14 q 498 170 528 66 l 321 787 q 275 877 302 851 q 208 902 248 902 q 166 897 190 902 l 150 1023 q 222 1031 184 1031 q 361 993 309 1031 q 443 854 414 955 l 622 231 q 668 141 640 166 q 738 115 696 115 q 780 121 756 115 l 796 -5 q 724 -14 762 -14 m 45 0 l 357 751 l 449 595 l 357 567 q 367 481 368 522 q 351 401 366 439 l 199 0 l 45 0 z "},"ƚ":{"ha":814,"x_min":66,"x_max":728,"o":"m 66 439 l 66 568 l 633 568 l 633 439 l 66 439 m 514 -14 q 334 54 389 -14 q 278 271 278 122 l 278 1017 l 422 1017 l 422 278 q 433 185 422 221 q 475 132 444 149 q 568 115 507 115 q 712 141 625 115 l 728 15 q 623 -7 673 0 q 514 -14 572 -14 m 66 891 l 66 1017 l 290 1017 l 290 891 l 66 891 z "},"ɬ":{"ha":814,"x_min":-3,"x_max":728,"o":"m 210 371 q 53 425 109 371 q -3 578 -3 479 q 38 724 -3 673 q 156 776 80 776 q 233 753 206 776 q 267 685 260 731 l 290 685 l 278 557 q 256 626 278 604 q 203 647 235 647 q 161 628 176 647 q 146 575 146 609 q 163 519 146 539 q 210 500 180 500 l 633 500 l 633 371 l 210 371 m 514 -14 q 334 54 389 -14 q 278 271 278 122 l 278 1017 l 422 1017 l 422 278 q 433 185 422 221 q 475 132 444 149 q 568 115 507 115 q 712 141 625 115 l 728 15 q 623 -7 673 0 q 514 -14 572 -14 m 66 891 l 66 1017 l 290 1017 l 290 891 l 66 891 z "},"ľ":{"ha":814,"x_min":66,"x_max":728,"o":"m 524 806 l 557 1063 l 701 1063 l 640 806 l 524 806 m 514 -14 q 334 54 389 -14 q 278 271 278 122 l 278 1017 l 422 1017 l 422 278 q 433 185 422 221 q 475 132 444 149 q 568 115 507 115 q 712 141 625 115 l 728 15 q 623 -7 673 0 q 514 -14 572 -14 m 66 891 l 66 1017 l 290 1017 l 290 891 l 66 891 z "},"ļ":{"ha":814,"x_min":66,"x_max":728,"o":"m 514 -14 q 334 54 389 -14 q 278 271 278 122 l 278 1017 l 422 1017 l 422 278 q 433 185 422 221 q 475 132 444 149 q 568 115 507 115 q 712 141 625 115 l 728 15 q 623 -7 673 0 q 514 -14 572 -14 m 66 891 l 66 1017 l 290 1017 l 290 891 l 66 891 z "},"ŀ":{"ha":814,"x_min":66,"x_max":728,"o":"m 514 -14 q 334 54 389 -14 q 278 271 278 122 l 278 1017 l 422 1017 l 422 278 q 433 185 422 221 q 475 132 444 149 q 568 115 507 115 q 712 141 625 115 l 728 15 q 623 -7 673 0 q 514 -14 572 -14 m 66 891 l 66 1017 l 290 1017 l 290 891 l 66 891 z "},"ḷ":{"ha":814,"x_min":66,"x_max":728,"o":"m 514 -14 q 334 54 389 -14 q 278 271 278 122 l 278 1017 l 422 1017 l 422 278 q 433 185 422 221 q 475 132 444 149 q 568 115 507 115 q 712 141 625 115 l 728 15 q 623 -7 673 0 q 514 -14 572 -14 m 66 891 l 66 1017 l 290 1017 l 290 891 l 66 891 m 461 -285 q 397 -258 424 -285 q 370 -194 370 -231 q 397 -130 370 -156 q 461 -103 424 -103 q 526 -130 499 -103 q 552 -194 552 -156 q 526 -258 552 -231 q 461 -285 499 -285 z "},"ḻ":{"ha":814,"x_min":66,"x_max":753,"o":"m 514 -14 q 334 54 389 -14 q 278 271 278 122 l 278 1017 l 422 1017 l 422 278 q 433 185 422 221 q 475 132 444 149 q 568 115 507 115 q 712 141 625 115 l 728 15 q 623 -7 673 0 q 514 -14 572 -14 m 66 891 l 66 1017 l 290 1017 l 290 891 l 66 891 m 170 -269 l 170 -141 l 753 -141 l 753 -269 l 170 -269 z "},"ɫ":{"ha":814,"x_min":51,"x_max":728,"o":"m 51 399 l 51 456 q 87 583 51 543 q 204 622 124 622 q 262 615 235 622 q 316 597 290 608 q 366 574 342 586 q 428 541 401 555 q 485 527 454 527 q 515 539 506 527 q 524 578 524 551 l 524 640 l 648 640 l 648 583 q 615 457 648 496 q 511 418 583 418 q 454 425 481 418 q 400 443 426 432 q 351 466 375 454 q 287 499 315 486 q 225 513 258 513 q 186 500 198 513 q 174 462 174 488 l 174 399 l 51 399 m 514 -14 q 334 54 389 -14 q 278 271 278 122 l 278 1017 l 422 1017 l 422 278 q 433 185 422 221 q 475 132 444 149 q 568 115 507 115 q 712 141 625 115 l 728 15 q 623 -7 673 0 q 514 -14 572 -14 m 66 891 l 66 1017 l 290 1017 l 290 891 l 66 891 z "},"ł":{"ha":814,"x_min":66,"x_max":728,"o":"m 87 309 l 87 434 l 633 719 l 633 593 l 87 309 m 514 -14 q 334 54 389 -14 q 278 271 278 122 l 278 1017 l 422 1017 l 422 278 q 433 185 422 221 q 475 132 444 149 q 568 115 507 115 q 712 141 625 115 l 728 15 q 623 -7 673 0 q 514 -14 572 -14 m 66 891 l 66 1017 l 290 1017 l 290 891 l 66 891 z "},"m":{"ha":814,"x_min":76,"x_max":738,"o":"m 594 0 l 594 549 q 538 624 594 624 q 468 526 468 624 l 419 629 l 475 629 q 508 702 478 671 q 595 732 538 732 q 704 692 670 732 q 738 563 738 652 l 738 0 l 594 0 m 76 0 l 76 719 l 203 719 l 220 567 l 220 0 l 76 0 m 346 0 l 346 563 q 289 624 346 624 q 220 526 220 624 l 178 629 l 224 629 q 347 732 232 732 q 436 694 404 732 q 468 576 468 655 l 468 0 l 346 0 z "},"n":{"ha":814,"x_min":114,"x_max":700,"o":"m 556 0 l 556 468 q 522 568 556 533 q 427 604 488 604 q 258 404 258 604 l 216 589 l 271 589 q 324 697 277 661 q 461 732 371 732 q 637 663 575 732 q 700 468 700 594 l 700 0 l 556 0 m 114 0 l 114 719 l 244 719 l 258 567 l 258 0 l 114 0 z "},"ń":{"ha":814,"x_min":114,"x_max":700,"o":"m 556 0 l 556 468 q 522 568 556 533 q 427 604 488 604 q 258 404 258 604 l 216 589 l 271 589 q 324 697 277 661 q 461 732 371 732 q 637 663 575 732 q 700 468 700 594 l 700 0 l 556 0 m 114 0 l 114 719 l 244 719 l 258 567 l 258 0 l 114 0 m 332 846 l 447 1104 l 591 1104 l 462 846 l 332 846 z "},"ŉ":{"ha":814,"x_min":11,"x_max":700,"o":"m 115 773 l 13 863 l 54 907 q 84 949 74 928 q 95 989 95 969 q 41 1027 95 1027 l 11 1027 l 11 1153 l 62 1153 q 234 989 234 1153 q 153 814 234 904 l 115 773 m 556 0 l 556 468 q 522 568 556 533 q 427 604 488 604 q 258 404 258 604 l 216 589 l 271 589 q 324 697 277 661 q 461 732 371 732 q 637 663 575 732 q 700 468 700 594 l 700 0 l 556 0 m 114 0 l 114 719 l 244 719 l 258 567 l 258 0 l 114 0 z "},"ň":{"ha":814,"x_min":114,"x_max":700,"o":"m 556 0 l 556 468 q 522 568 556 533 q 427 604 488 604 q 258 404 258 604 l 216 589 l 271 589 q 324 697 277 661 q 461 732 371 732 q 637 663 575 732 q 700 468 700 594 l 700 0 l 556 0 m 114 0 l 114 719 l 244 719 l 258 567 l 258 0 l 114 0 m 342 821 l 179 1078 l 323 1078 l 407 911 l 393 911 l 477 1078 l 621 1078 l 458 821 l 342 821 z "},"ņ":{"ha":814,"x_min":114,"x_max":700,"o":"m 556 0 l 556 468 q 522 568 556 533 q 427 604 488 604 q 258 404 258 604 l 216 589 l 271 589 q 324 697 277 661 q 461 732 371 732 q 637 663 575 732 q 700 468 700 594 l 700 0 l 556 0 m 114 0 l 114 719 l 244 719 l 258 567 l 258 0 l 114 0 z "},"ŋ":{"ha":814,"x_min":114,"x_max":700,"o":"m 556 264 l 556 468 q 522 573 556 536 q 427 610 488 610 q 258 404 258 610 l 216 589 l 271 589 q 324 697 277 661 q 461 732 371 732 q 637 663 575 732 q 700 468 700 594 l 700 264 l 556 264 m 315 -326 l 308 -198 l 396 -186 q 518 -122 480 -176 q 556 42 556 -68 l 556 301 l 700 301 l 700 64 q 667 -145 700 -64 q 564 -266 633 -225 q 382 -317 494 -307 l 315 -326 m 114 0 l 114 719 l 244 719 l 258 567 l 258 0 l 114 0 z "},"ɲ":{"ha":814,"x_min":-78,"x_max":700,"o":"m 556 0 l 556 468 q 522 573 556 536 q 427 610 488 610 q 258 404 258 610 l 216 589 l 271 589 q 324 697 277 661 q 461 732 371 732 q 637 663 575 732 q 700 468 700 594 l 700 0 l 556 0 m -71 -318 l -78 -191 l -46 -186 q 76 -121 39 -173 q 114 42 114 -68 l 114 301 l 258 301 l 258 64 q 225 -146 258 -64 q 122 -270 192 -229 q -60 -317 52 -311 l -71 -318 m 114 156 l 114 719 l 244 719 l 258 567 l 258 156 l 114 156 z "},"ṉ":{"ha":814,"x_min":114,"x_max":700,"o":"m 556 0 l 556 468 q 522 568 556 533 q 427 604 488 604 q 258 404 258 604 l 216 589 l 271 589 q 324 697 277 661 q 461 732 371 732 q 637 663 575 732 q 700 468 700 594 l 700 0 l 556 0 m 114 0 l 114 719 l 244 719 l 258 567 l 258 0 l 114 0 m 115 -269 l 115 -141 l 699 -141 l 699 -269 l 115 -269 z "},"ñ":{"ha":814,"x_min":114,"x_max":700,"o":"m 556 0 l 556 468 q 522 568 556 533 q 427 604 488 604 q 258 404 258 604 l 216 589 l 271 589 q 324 697 277 661 q 461 732 371 732 q 637 663 575 732 q 700 468 700 594 l 700 0 l 556 0 m 114 0 l 114 719 l 244 719 l 258 567 l 258 0 l 114 0 m 163 852 l 163 879 q 305 1048 163 1048 q 356 1040 332 1048 q 406 1019 380 1031 q 464 991 439 1002 q 505 981 488 981 q 541 1024 541 981 l 541 1085 l 658 1085 l 658 1031 q 626 909 658 949 q 530 868 594 868 q 484 876 511 868 q 420 902 456 884 q 375 925 397 913 q 331 936 353 936 q 293 924 306 936 q 281 886 281 911 l 281 852 l 163 852 z "},"o":{"ha":814,"x_min":92,"x_max":722,"o":"m 407 -14 q 175 84 258 -14 q 92 359 92 182 q 175 635 92 538 q 407 732 258 732 q 639 635 557 732 q 722 359 722 538 q 639 84 722 182 q 407 -14 557 -14 m 407 115 q 529 179 486 115 q 572 359 572 243 q 529 540 572 477 q 407 604 486 604 q 284 540 328 604 q 241 359 241 477 q 284 179 241 243 q 407 115 328 115 z "},"ó":{"ha":814,"x_min":92,"x_max":722,"o":"m 407 -14 q 175 84 258 -14 q 92 359 92 182 q 175 635 92 538 q 407 732 258 732 q 639 635 557 732 q 722 359 722 538 q 639 84 722 182 q 407 -14 557 -14 m 407 115 q 529 179 486 115 q 572 359 572 243 q 529 540 572 477 q 407 604 486 604 q 284 540 328 604 q 241 359 241 477 q 284 179 241 243 q 407 115 328 115 m 338 846 l 454 1104 l 597 1104 l 469 846 l 338 846 z "},"ŏ":{"ha":814,"x_min":92,"x_max":722,"o":"m 407 -14 q 175 84 258 -14 q 92 359 92 182 q 175 635 92 538 q 407 732 258 732 q 639 635 557 732 q 722 359 722 538 q 639 84 722 182 q 407 -14 557 -14 m 407 115 q 529 179 486 115 q 572 359 572 243 q 529 540 572 477 q 407 604 486 604 q 284 540 328 604 q 241 359 241 477 q 284 179 241 243 q 407 115 328 115 m 407 840 q 232 897 294 840 q 170 1058 170 954 l 170 1087 l 289 1087 l 289 1058 q 319 965 289 998 q 407 932 350 932 q 494 965 464 932 q 525 1058 525 998 l 525 1087 l 644 1087 l 644 1058 q 582 897 644 954 q 407 840 520 840 z "},"ô":{"ha":814,"x_min":92,"x_max":722,"o":"m 407 -14 q 175 84 258 -14 q 92 359 92 182 q 175 635 92 538 q 407 732 258 732 q 639 635 557 732 q 722 359 722 538 q 639 84 722 182 q 407 -14 557 -14 m 407 115 q 529 179 486 115 q 572 359 572 243 q 529 540 572 477 q 407 604 486 604 q 284 540 328 604 q 241 359 241 477 q 284 179 241 243 q 407 115 328 115 m 186 846 l 349 1104 l 465 1104 l 628 846 l 484 846 l 400 1013 l 414 1013 l 330 846 l 186 846 z "},"ố":{"ha":814,"x_min":92,"x_max":840,"o":"m 407 -14 q 175 84 258 -14 q 92 359 92 182 q 175 635 92 538 q 407 732 258 732 q 639 635 557 732 q 722 359 722 538 q 639 84 722 182 q 407 -14 557 -14 m 407 115 q 529 179 486 115 q 572 359 572 243 q 529 540 572 477 q 407 604 486 604 q 284 540 328 604 q 241 359 241 477 q 284 179 241 243 q 407 115 328 115 m 186 846 l 349 1104 l 465 1104 l 628 846 l 484 846 l 400 1013 l 414 1013 l 330 846 l 186 846 m 581 1077 l 696 1335 l 840 1335 l 711 1077 l 581 1077 z "},"ộ":{"ha":814,"x_min":92,"x_max":722,"o":"m 407 -14 q 175 84 258 -14 q 92 359 92 182 q 175 635 92 538 q 407 732 258 732 q 639 635 557 732 q 722 359 722 538 q 639 84 722 182 q 407 -14 557 -14 m 407 115 q 529 179 486 115 q 572 359 572 243 q 529 540 572 477 q 407 604 486 604 q 284 540 328 604 q 241 359 241 477 q 284 179 241 243 q 407 115 328 115 m 407 -285 q 343 -258 370 -285 q 316 -194 316 -231 q 343 -130 316 -156 q 407 -103 370 -103 q 471 -130 445 -103 q 498 -194 498 -156 q 471 -258 498 -231 q 407 -285 445 -285 m 186 846 l 349 1104 l 465 1104 l 628 846 l 484 846 l 400 1013 l 414 1013 l 330 846 l 186 846 z "},"ồ":{"ha":814,"x_min":92,"x_max":728,"o":"m 407 -14 q 175 84 258 -14 q 92 359 92 182 q 175 635 92 538 q 407 732 258 732 q 639 635 557 732 q 722 359 722 538 q 639 84 722 182 q 407 -14 557 -14 m 407 115 q 529 179 486 115 q 572 359 572 243 q 529 540 572 477 q 407 604 486 604 q 284 540 328 604 q 241 359 241 477 q 284 179 241 243 q 407 115 328 115 m 186 846 l 349 1104 l 465 1104 l 628 846 l 484 846 l 400 1013 l 414 1013 l 330 846 l 186 846 m 597 1077 l 469 1335 l 612 1335 l 728 1077 l 597 1077 z "},"ổ":{"ha":814,"x_min":92,"x_max":781,"o":"m 407 -14 q 175 84 258 -14 q 92 359 92 182 q 175 635 92 538 q 407 732 258 732 q 639 635 557 732 q 722 359 722 538 q 639 84 722 182 q 407 -14 557 -14 m 407 115 q 529 179 486 115 q 572 359 572 243 q 529 540 572 477 q 407 604 486 604 q 284 540 328 604 q 241 359 241 477 q 284 179 241 243 q 407 115 328 115 m 186 846 l 349 1104 l 465 1104 l 628 846 l 484 846 l 400 1013 l 414 1013 l 330 846 l 186 846 m 596 1077 l 596 1101 q 607 1146 596 1128 q 632 1179 618 1165 q 658 1207 647 1194 q 669 1238 669 1221 q 657 1265 669 1255 q 627 1276 646 1276 l 641 1378 q 743 1342 705 1378 q 781 1247 781 1306 q 769 1195 781 1215 q 741 1159 757 1175 q 713 1127 726 1144 q 701 1083 701 1109 l 701 1077 l 596 1077 m 543 1246 l 497 1327 q 557 1364 518 1350 q 641 1378 597 1378 l 627 1276 q 543 1246 577 1276 z "},"ỗ":{"ha":814,"x_min":92,"x_max":722,"o":"m 407 -14 q 175 84 258 -14 q 92 359 92 182 q 175 635 92 538 q 407 732 258 732 q 639 635 557 732 q 722 359 722 538 q 639 84 722 182 q 407 -14 557 -14 m 407 115 q 529 179 486 115 q 572 359 572 243 q 529 540 572 477 q 407 604 486 604 q 284 540 328 604 q 241 359 241 477 q 284 179 241 243 q 407 115 328 115 m 186 846 l 349 1104 l 465 1104 l 628 846 l 484 846 l 400 1013 l 414 1013 l 330 846 l 186 846 m 170 1204 l 170 1232 q 312 1401 170 1401 q 363 1393 339 1401 q 412 1371 387 1384 q 470 1344 446 1354 q 511 1333 494 1333 q 548 1377 548 1333 l 548 1438 l 665 1438 l 665 1383 q 633 1261 665 1302 q 537 1221 601 1221 q 490 1229 518 1221 q 427 1255 463 1237 q 382 1277 404 1266 q 338 1289 359 1289 q 300 1276 313 1289 q 288 1238 288 1264 l 288 1204 l 170 1204 z "},"ö":{"ha":814,"x_min":92,"x_max":722,"o":"m 407 -14 q 175 84 258 -14 q 92 359 92 182 q 175 635 92 538 q 407 732 258 732 q 639 635 557 732 q 722 359 722 538 q 639 84 722 182 q 407 -14 557 -14 m 407 115 q 529 179 486 115 q 572 359 572 243 q 529 540 572 477 q 407 604 486 604 q 284 540 328 604 q 241 359 241 477 q 284 179 241 243 q 407 115 328 115 m 551 840 q 487 866 513 840 q 460 930 460 893 q 487 995 460 968 q 551 1021 513 1021 q 615 995 589 1021 q 642 930 642 968 q 615 866 642 893 q 551 840 589 840 m 266 840 q 202 866 229 840 q 175 930 175 893 q 202 995 175 968 q 266 1021 229 1021 q 330 995 304 1021 q 357 930 357 968 q 330 866 357 893 q 266 840 304 840 z "},"ọ":{"ha":814,"x_min":92,"x_max":722,"o":"m 407 -14 q 175 84 258 -14 q 92 359 92 182 q 175 635 92 538 q 407 732 258 732 q 639 635 557 732 q 722 359 722 538 q 639 84 722 182 q 407 -14 557 -14 m 407 115 q 529 179 486 115 q 572 359 572 243 q 529 540 572 477 q 407 604 486 604 q 284 540 328 604 q 241 359 241 477 q 284 179 241 243 q 407 115 328 115 m 407 -285 q 343 -258 370 -285 q 316 -194 316 -231 q 343 -130 316 -156 q 407 -103 370 -103 q 471 -130 445 -103 q 498 -194 498 -156 q 471 -258 498 -231 q 407 -285 445 -285 z "},"ò":{"ha":814,"x_min":92,"x_max":722,"o":"m 407 -14 q 175 84 258 -14 q 92 359 92 182 q 175 635 92 538 q 407 732 258 732 q 639 635 557 732 q 722 359 722 538 q 639 84 722 182 q 407 -14 557 -14 m 407 115 q 529 179 486 115 q 572 359 572 243 q 529 540 572 477 q 407 604 486 604 q 284 540 328 604 q 241 359 241 477 q 284 179 241 243 q 407 115 328 115 m 355 846 l 227 1104 l 370 1104 l 486 846 l 355 846 z "},"ỏ":{"ha":814,"x_min":92,"x_max":722,"o":"m 407 -14 q 175 84 258 -14 q 92 359 92 182 q 175 635 92 538 q 407 732 258 732 q 639 635 557 732 q 722 359 722 538 q 639 84 722 182 q 407 -14 557 -14 m 407 115 q 529 179 486 115 q 572 359 572 243 q 529 540 572 477 q 407 604 486 604 q 284 540 328 604 q 241 359 241 477 q 284 179 241 243 q 407 115 328 115 m 354 846 l 354 871 q 365 916 354 897 q 390 949 376 935 q 416 977 405 963 q 427 1007 427 990 q 415 1035 427 1025 q 385 1045 404 1045 l 399 1147 q 501 1112 463 1147 q 539 1017 539 1076 q 527 964 539 984 q 499 929 515 944 q 471 896 484 913 q 459 852 459 879 l 459 846 l 354 846 m 300 1016 l 255 1097 q 315 1134 276 1120 q 399 1147 355 1147 l 385 1045 q 300 1016 335 1045 z "},"ơ":{"ha":814,"x_min":92,"x_max":804,"o":"m 407 -14 q 175 84 258 -14 q 92 359 92 182 q 175 635 92 538 q 407 732 258 732 q 639 635 557 732 q 722 359 722 538 q 639 84 722 182 q 407 -14 557 -14 m 407 115 q 529 179 486 115 q 572 359 572 243 q 529 540 572 477 q 407 604 486 604 q 284 540 328 604 q 241 359 241 477 q 284 179 241 243 q 407 115 328 115 m 528 607 l 494 719 l 534 726 q 630 783 598 736 q 661 911 661 830 l 804 911 q 745 708 804 782 q 568 614 686 633 l 528 607 z "},"ớ":{"ha":814,"x_min":92,"x_max":804,"o":"m 407 -14 q 175 84 258 -14 q 92 359 92 182 q 175 635 92 538 q 407 732 258 732 q 639 635 557 732 q 722 359 722 538 q 639 84 722 182 q 407 -14 557 -14 m 407 115 q 529 179 486 115 q 572 359 572 243 q 529 540 572 477 q 407 604 486 604 q 284 540 328 604 q 241 359 241 477 q 284 179 241 243 q 407 115 328 115 m 528 607 l 494 719 l 534 726 q 630 783 598 736 q 661 911 661 830 l 804 911 q 745 708 804 782 q 568 614 686 633 l 528 607 m 338 846 l 454 1104 l 597 1104 l 469 846 l 338 846 z "},"ợ":{"ha":814,"x_min":92,"x_max":804,"o":"m 407 -14 q 175 84 258 -14 q 92 359 92 182 q 175 635 92 538 q 407 732 258 732 q 639 635 557 732 q 722 359 722 538 q 639 84 722 182 q 407 -14 557 -14 m 407 115 q 529 179 486 115 q 572 359 572 243 q 529 540 572 477 q 407 604 486 604 q 284 540 328 604 q 241 359 241 477 q 284 179 241 243 q 407 115 328 115 m 528 607 l 494 719 l 534 726 q 630 783 598 736 q 661 911 661 830 l 804 911 q 745 708 804 782 q 568 614 686 633 l 528 607 m 407 -285 q 343 -258 370 -285 q 316 -194 316 -231 q 343 -130 316 -156 q 407 -103 370 -103 q 471 -130 445 -103 q 498 -194 498 -156 q 471 -258 498 -231 q 407 -285 445 -285 z "},"ờ":{"ha":814,"x_min":92,"x_max":804,"o":"m 407 -14 q 175 84 258 -14 q 92 359 92 182 q 175 635 92 538 q 407 732 258 732 q 639 635 557 732 q 722 359 722 538 q 639 84 722 182 q 407 -14 557 -14 m 407 115 q 529 179 486 115 q 572 359 572 243 q 529 540 572 477 q 407 604 486 604 q 284 540 328 604 q 241 359 241 477 q 284 179 241 243 q 407 115 328 115 m 528 607 l 494 719 l 534 726 q 630 783 598 736 q 661 911 661 830 l 804 911 q 745 708 804 782 q 568 614 686 633 l 528 607 m 355 846 l 227 1104 l 370 1104 l 486 846 l 355 846 z "},"ở":{"ha":814,"x_min":92,"x_max":804,"o":"m 407 -14 q 175 84 258 -14 q 92 359 92 182 q 175 635 92 538 q 407 732 258 732 q 639 635 557 732 q 722 359 722 538 q 639 84 722 182 q 407 -14 557 -14 m 407 115 q 529 179 486 115 q 572 359 572 243 q 529 540 572 477 q 407 604 486 604 q 284 540 328 604 q 241 359 241 477 q 284 179 241 243 q 407 115 328 115 m 528 607 l 494 719 l 534 726 q 630 783 598 736 q 661 911 661 830 l 804 911 q 745 708 804 782 q 568 614 686 633 l 528 607 m 354 846 l 354 871 q 365 916 354 897 q 390 949 376 935 q 416 977 405 963 q 427 1007 427 990 q 415 1035 427 1025 q 385 1045 404 1045 l 399 1147 q 501 1112 463 1147 q 539 1017 539 1076 q 527 964 539 984 q 499 929 515 944 q 471 896 484 913 q 459 852 459 879 l 459 846 l 354 846 m 300 1016 l 255 1097 q 315 1134 276 1120 q 399 1147 355 1147 l 385 1045 q 300 1016 335 1045 z "},"ỡ":{"ha":814,"x_min":92,"x_max":804,"o":"m 407 -14 q 175 84 258 -14 q 92 359 92 182 q 175 635 92 538 q 407 732 258 732 q 639 635 557 732 q 722 359 722 538 q 639 84 722 182 q 407 -14 557 -14 m 407 115 q 529 179 486 115 q 572 359 572 243 q 529 540 572 477 q 407 604 486 604 q 284 540 328 604 q 241 359 241 477 q 284 179 241 243 q 407 115 328 115 m 528 607 l 494 719 l 534 726 q 630 783 598 736 q 661 911 661 830 l 804 911 q 745 708 804 782 q 568 614 686 633 l 528 607 m 170 852 l 170 879 q 312 1048 170 1048 q 363 1040 339 1048 q 412 1019 387 1031 q 470 991 446 1002 q 511 981 494 981 q 548 1024 548 981 l 548 1085 l 665 1085 l 665 1031 q 633 909 665 949 q 537 868 601 868 q 490 876 518 868 q 427 902 463 884 q 382 925 404 913 q 338 936 359 936 q 300 924 313 936 q 288 886 288 911 l 288 852 l 170 852 z "},"ő":{"ha":814,"x_min":92,"x_max":722,"o":"m 407 -14 q 175 84 258 -14 q 92 359 92 182 q 175 635 92 538 q 407 732 258 732 q 639 635 557 732 q 722 359 722 538 q 639 84 722 182 q 407 -14 557 -14 m 407 115 q 529 179 486 115 q 572 359 572 243 q 529 540 572 477 q 407 604 486 604 q 284 540 328 604 q 241 359 241 477 q 284 179 241 243 q 407 115 328 115 m 454 846 l 555 1104 l 706 1104 l 591 846 l 454 846 m 196 846 l 298 1104 l 448 1104 l 333 846 l 196 846 z "},"ō":{"ha":814,"x_min":92,"x_max":722,"o":"m 407 -14 q 175 84 258 -14 q 92 359 92 182 q 175 635 92 538 q 407 732 258 732 q 639 635 557 732 q 722 359 722 538 q 639 84 722 182 q 407 -14 557 -14 m 407 115 q 529 179 486 115 q 572 359 572 243 q 529 540 572 477 q 407 604 486 604 q 284 540 328 604 q 241 359 241 477 q 284 179 241 243 q 407 115 328 115 m 115 846 l 115 974 l 699 974 l 699 846 l 115 846 z "},"ṓ":{"ha":814,"x_min":92,"x_max":722,"o":"m 407 -14 q 175 84 258 -14 q 92 359 92 182 q 175 635 92 538 q 407 732 258 732 q 639 635 557 732 q 722 359 722 538 q 639 84 722 182 q 407 -14 557 -14 m 407 115 q 529 179 486 115 q 572 359 572 243 q 529 540 572 477 q 407 604 486 604 q 284 540 328 604 q 241 359 241 477 q 284 179 241 243 q 407 115 328 115 m 115 846 l 115 974 l 699 974 l 699 846 l 115 846 m 338 1074 l 454 1332 l 597 1332 l 469 1074 l 338 1074 z "},"ṑ":{"ha":814,"x_min":92,"x_max":722,"o":"m 407 -14 q 175 84 258 -14 q 92 359 92 182 q 175 635 92 538 q 407 732 258 732 q 639 635 557 732 q 722 359 722 538 q 639 84 722 182 q 407 -14 557 -14 m 407 115 q 529 179 486 115 q 572 359 572 243 q 529 540 572 477 q 407 604 486 604 q 284 540 328 604 q 241 359 241 477 q 284 179 241 243 q 407 115 328 115 m 115 846 l 115 974 l 699 974 l 699 846 l 115 846 m 355 1074 l 227 1332 l 370 1332 l 486 1074 l 355 1074 z "},"ǫ":{"ha":814,"x_min":92,"x_max":722,"o":"m 454 -288 q 333 -253 376 -288 q 291 -157 291 -219 q 311 -73 291 -107 q 368 -27 332 -39 l 368 20 l 517 24 l 530 7 q 470 -17 503 -3 q 415 -52 438 -30 q 393 -114 393 -75 q 408 -153 393 -132 q 471 -174 424 -174 q 496 -172 483 -174 q 527 -166 510 -170 l 515 -281 q 483 -286 498 -284 q 454 -288 467 -288 m 407 -14 q 175 84 258 -14 q 92 359 92 182 q 175 635 92 538 q 407 732 258 732 q 639 635 557 732 q 722 359 722 538 q 639 84 722 182 q 407 -14 557 -14 m 407 115 q 529 179 486 115 q 572 359 572 243 q 529 540 572 477 q 407 604 486 604 q 284 540 328 604 q 241 359 241 477 q 284 179 241 243 q 407 115 328 115 z "},"ɔ":{"ha":814,"x_min":90,"x_max":722,"o":"m 357 -14 q 199 11 269 -14 q 90 70 130 35 l 160 178 q 247 134 194 153 q 362 115 300 115 q 522 177 465 115 q 579 351 579 239 q 512 539 579 475 q 321 604 445 604 q 236 597 276 604 q 144 576 196 591 l 122 701 q 223 725 174 718 q 338 732 271 732 q 622 636 522 732 q 722 358 722 539 q 627 84 722 182 q 357 -14 532 -14 z "},"ø":{"ha":814,"x_min":92,"x_max":722,"o":"m 204 -91 l 133 -40 l 608 812 l 686 768 l 204 -91 m 407 -14 q 175 84 258 -14 q 92 359 92 182 q 175 635 92 538 q 407 732 258 732 q 639 635 557 732 q 722 359 722 538 q 639 84 722 182 q 407 -14 557 -14 m 407 115 q 529 179 486 115 q 572 359 572 243 q 529 540 572 477 q 407 604 486 604 q 284 540 328 604 q 241 359 241 477 q 284 179 241 243 q 407 115 328 115 z "},"ǿ":{"ha":814,"x_min":92,"x_max":722,"o":"m 204 -91 l 133 -40 l 608 812 l 686 768 l 204 -91 m 407 -14 q 175 84 258 -14 q 92 359 92 182 q 175 635 92 538 q 407 732 258 732 q 639 635 557 732 q 722 359 722 538 q 639 84 722 182 q 407 -14 557 -14 m 407 115 q 529 179 486 115 q 572 359 572 243 q 529 540 572 477 q 407 604 486 604 q 284 540 328 604 q 241 359 241 477 q 284 179 241 243 q 407 115 328 115 m 338 846 l 454 1104 l 597 1104 l 469 846 l 338 846 z "},"õ":{"ha":814,"x_min":92,"x_max":722,"o":"m 407 -14 q 175 84 258 -14 q 92 359 92 182 q 175 635 92 538 q 407 732 258 732 q 639 635 557 732 q 722 359 722 538 q 639 84 722 182 q 407 -14 557 -14 m 407 115 q 529 179 486 115 q 572 359 572 243 q 529 540 572 477 q 407 604 486 604 q 284 540 328 604 q 241 359 241 477 q 284 179 241 243 q 407 115 328 115 m 170 852 l 170 879 q 312 1048 170 1048 q 363 1040 339 1048 q 412 1019 387 1031 q 470 991 446 1002 q 511 981 494 981 q 548 1024 548 981 l 548 1085 l 665 1085 l 665 1031 q 633 909 665 949 q 537 868 601 868 q 490 876 518 868 q 427 902 463 884 q 382 925 404 913 q 338 936 359 936 q 300 924 313 936 q 288 886 288 911 l 288 852 l 170 852 z "},"œ":{"ha":814,"x_min":14,"x_max":796,"o":"m 247 -14 q 14 359 14 -14 q 247 732 14 732 q 453 359 453 732 q 247 -14 453 -14 m 247 115 q 345 359 345 115 q 320 543 345 482 q 247 604 296 604 q 164 543 191 604 q 137 359 137 482 q 247 115 137 115 m 652 -14 q 449 84 522 -14 q 377 361 377 182 q 433 635 377 538 q 589 732 489 732 q 742 642 688 732 q 796 388 796 552 q 795 340 796 365 q 792 296 794 316 l 464 296 l 464 399 l 673 399 q 649 557 673 508 q 574 606 626 606 q 499 550 523 606 q 476 368 476 493 q 527 174 476 243 q 669 106 577 106 q 750 115 707 106 l 768 -1 q 710 -10 741 -7 q 652 -14 680 -14 z "},"p":{"ha":814,"x_min":114,"x_max":749,"o":"m 114 -312 l 114 719 l 244 719 l 258 567 l 258 -312 l 114 -312 m 462 -14 q 329 24 379 -14 q 271 130 278 62 l 209 130 l 258 335 q 301 166 258 224 q 430 109 345 109 q 562 170 517 109 q 606 353 606 232 q 562 545 606 480 q 430 610 517 610 q 301 553 345 610 q 258 384 258 495 l 209 589 l 264 589 q 326 694 274 656 q 462 732 378 732 q 676 636 604 732 q 749 353 749 540 q 676 79 749 172 q 462 -14 604 -14 z "},"þ":{"ha":814,"x_min":114,"x_max":749,"o":"m 114 -312 l 114 1017 l 258 1017 l 258 -312 l 114 -312 m 462 -14 q 329 24 379 -14 q 271 130 278 62 l 209 130 l 258 335 q 301 166 258 224 q 430 109 345 109 q 562 170 517 109 q 606 353 606 232 q 562 545 606 480 q 430 610 517 610 q 301 553 345 610 q 258 384 258 495 l 209 589 l 271 589 q 331 694 280 656 q 462 732 381 732 q 676 636 604 732 q 749 353 749 540 q 676 79 749 172 q 462 -14 604 -14 z "},"q":{"ha":814,"x_min":65,"x_max":700,"o":"m 351 -14 q 140 81 215 -14 q 65 353 65 176 q 140 633 65 534 q 353 732 216 732 q 487 697 439 732 q 543 589 534 661 l 598 589 l 556 431 q 515 566 556 522 q 393 610 475 610 q 256 543 304 610 q 208 353 208 476 q 255 170 208 232 q 395 109 302 109 q 516 139 476 109 q 556 231 556 170 l 556 309 l 605 111 l 543 111 q 484 18 536 50 q 351 -14 433 -14 m 556 -312 l 556 567 l 570 719 l 700 719 l 700 -312 l 556 -312 z "},"r":{"ha":814,"x_min":54,"x_max":781,"o":"m 358 309 l 316 534 l 372 534 q 570 732 384 732 q 731 669 681 732 q 781 463 781 605 l 639 463 q 615 576 639 541 q 540 610 592 610 q 403 532 448 610 q 358 309 358 454 m 54 0 l 54 126 l 534 126 l 534 0 l 54 0 m 214 0 l 214 719 l 331 719 l 358 513 l 358 0 l 214 0 m 81 593 l 81 719 l 321 719 l 335 593 l 81 593 z "},"ŕ":{"ha":814,"x_min":54,"x_max":781,"o":"m 358 309 l 316 534 l 372 534 q 570 732 384 732 q 731 669 681 732 q 781 463 781 605 l 639 463 q 615 576 639 541 q 540 610 592 610 q 403 532 448 610 q 358 309 358 454 m 54 0 l 54 126 l 534 126 l 534 0 l 54 0 m 214 0 l 214 719 l 331 719 l 358 513 l 358 0 l 214 0 m 81 593 l 81 719 l 321 719 l 335 593 l 81 593 m 338 846 l 454 1104 l 597 1104 l 469 846 l 338 846 z "},"ř":{"ha":814,"x_min":54,"x_max":781,"o":"m 358 309 l 316 534 l 372 534 q 570 732 384 732 q 731 669 681 732 q 781 463 781 605 l 639 463 q 615 576 639 541 q 540 610 592 610 q 403 532 448 610 q 358 309 358 454 m 54 0 l 54 126 l 534 126 l 534 0 l 54 0 m 214 0 l 214 719 l 331 719 l 358 513 l 358 0 l 214 0 m 81 593 l 81 719 l 321 719 l 335 593 l 81 593 m 349 821 l 186 1078 l 330 1078 l 414 911 l 400 911 l 484 1078 l 628 1078 l 465 821 l 349 821 z "},"ŗ":{"ha":814,"x_min":54,"x_max":781,"o":"m 358 309 l 316 534 l 372 534 q 570 732 384 732 q 731 669 681 732 q 781 463 781 605 l 639 463 q 615 576 639 541 q 540 610 592 610 q 403 532 448 610 q 358 309 358 454 m 54 0 l 54 126 l 534 126 l 534 0 l 54 0 m 214 0 l 214 719 l 331 719 l 358 513 l 358 0 l 214 0 m 81 593 l 81 719 l 321 719 l 335 593 l 81 593 z "},"ṛ":{"ha":814,"x_min":54,"x_max":781,"o":"m 358 309 l 316 534 l 372 534 q 570 732 384 732 q 731 669 681 732 q 781 463 781 605 l 639 463 q 615 576 639 541 q 540 610 592 610 q 403 532 448 610 q 358 309 358 454 m 54 0 l 54 126 l 534 126 l 534 0 l 54 0 m 214 0 l 214 719 l 331 719 l 358 513 l 358 0 l 214 0 m 81 593 l 81 719 l 321 719 l 335 593 l 81 593 m 292 -285 q 228 -258 254 -285 q 201 -194 201 -231 q 228 -130 201 -156 q 292 -103 254 -103 q 356 -130 330 -103 q 382 -194 382 -156 q 356 -258 382 -231 q 292 -285 330 -285 z "},"s":{"ha":814,"x_min":106,"x_max":708,"o":"m 351 -14 q 212 -9 270 -14 q 106 7 154 -4 l 122 137 q 248 121 193 126 q 351 115 302 115 q 510 137 460 115 q 559 205 559 158 q 542 253 559 237 q 488 278 524 269 l 323 320 q 166 387 216 347 q 117 509 117 427 q 207 680 117 627 q 499 732 298 732 q 596 729 551 732 q 689 719 642 726 l 674 594 q 577 602 619 600 q 495 604 535 604 q 320 583 374 604 q 266 515 266 562 q 288 470 266 484 q 357 445 311 456 l 490 412 q 655 340 603 385 q 708 208 708 294 q 623 39 708 92 q 351 -14 538 -14 z "},"ś":{"ha":814,"x_min":106,"x_max":708,"o":"m 351 -14 q 212 -9 270 -14 q 106 7 154 -4 l 122 137 q 248 121 193 126 q 351 115 302 115 q 510 137 460 115 q 559 205 559 158 q 542 253 559 237 q 488 278 524 269 l 323 320 q 166 387 216 347 q 117 509 117 427 q 207 680 117 627 q 499 732 298 732 q 596 729 551 732 q 689 719 642 726 l 674 594 q 577 602 619 600 q 495 604 535 604 q 320 583 374 604 q 266 515 266 562 q 288 470 266 484 q 357 445 311 456 l 490 412 q 655 340 603 385 q 708 208 708 294 q 623 39 708 92 q 351 -14 538 -14 m 359 846 l 474 1104 l 618 1104 l 489 846 l 359 846 z "},"š":{"ha":814,"x_min":106,"x_max":708,"o":"m 351 -14 q 212 -9 270 -14 q 106 7 154 -4 l 122 137 q 248 121 193 126 q 351 115 302 115 q 510 137 460 115 q 559 205 559 158 q 542 253 559 237 q 488 278 524 269 l 323 320 q 166 387 216 347 q 117 509 117 427 q 207 680 117 627 q 499 732 298 732 q 596 729 551 732 q 689 719 642 726 l 674 594 q 577 602 619 600 q 495 604 535 604 q 320 583 374 604 q 266 515 266 562 q 288 470 266 484 q 357 445 311 456 l 490 412 q 655 340 603 385 q 708 208 708 294 q 623 39 708 92 q 351 -14 538 -14 m 369 821 l 206 1078 l 350 1078 l 434 911 l 420 911 l 505 1078 l 648 1078 l 486 821 l 369 821 z "},"ş":{"ha":814,"x_min":106,"x_max":708,"o":"m 351 -14 q 212 -9 270 -14 q 106 7 154 -4 l 122 137 q 248 121 193 126 q 351 115 302 115 q 510 137 460 115 q 559 205 559 158 q 542 253 559 237 q 488 278 524 269 l 323 320 q 166 387 216 347 q 117 509 117 427 q 207 680 117 627 q 499 732 298 732 q 596 729 551 732 q 689 719 642 726 l 674 594 q 577 602 619 600 q 495 604 535 604 q 320 583 374 604 q 266 515 266 562 q 288 470 266 484 q 357 445 311 456 l 490 412 q 655 340 603 385 q 708 208 708 294 q 623 39 708 92 q 351 -14 538 -14 m 291 -326 l 291 -224 q 387 -212 355 -224 q 418 -175 418 -199 q 391 -140 418 -151 q 309 -129 364 -129 l 355 4 l 448 -3 l 431 -68 q 518 -108 489 -80 q 547 -181 547 -136 q 484 -289 547 -253 q 291 -326 420 -326 z "},"ŝ":{"ha":814,"x_min":106,"x_max":708,"o":"m 351 -14 q 212 -9 270 -14 q 106 7 154 -4 l 122 137 q 248 121 193 126 q 351 115 302 115 q 510 137 460 115 q 559 205 559 158 q 542 253 559 237 q 488 278 524 269 l 323 320 q 166 387 216 347 q 117 509 117 427 q 207 680 117 627 q 499 732 298 732 q 596 729 551 732 q 689 719 642 726 l 674 594 q 577 602 619 600 q 495 604 535 604 q 320 583 374 604 q 266 515 266 562 q 288 470 266 484 q 357 445 311 456 l 490 412 q 655 340 603 385 q 708 208 708 294 q 623 39 708 92 q 351 -14 538 -14 m 206 846 l 369 1104 l 486 1104 l 648 846 l 505 846 l 420 1013 l 434 1013 l 350 846 l 206 846 z "},"ș":{"ha":814,"x_min":106,"x_max":708,"o":"m 351 -14 q 212 -9 270 -14 q 106 7 154 -4 l 122 137 q 248 121 193 126 q 351 115 302 115 q 510 137 460 115 q 559 205 559 158 q 542 253 559 237 q 488 278 524 269 l 323 320 q 166 387 216 347 q 117 509 117 427 q 207 680 117 627 q 499 732 298 732 q 596 729 551 732 q 689 719 642 726 l 674 594 q 577 602 619 600 q 495 604 535 604 q 320 583 374 604 q 266 515 266 562 q 288 470 266 484 q 357 445 311 456 l 490 412 q 655 340 603 385 q 708 208 708 294 q 623 39 708 92 q 351 -14 538 -14 z "},"ṣ":{"ha":814,"x_min":106,"x_max":708,"o":"m 351 -14 q 212 -9 270 -14 q 106 7 154 -4 l 122 137 q 248 121 193 126 q 351 115 302 115 q 510 137 460 115 q 559 205 559 158 q 542 253 559 237 q 488 278 524 269 l 323 320 q 166 387 216 347 q 117 509 117 427 q 207 680 117 627 q 499 732 298 732 q 596 729 551 732 q 689 719 642 726 l 674 594 q 577 602 619 600 q 495 604 535 604 q 320 583 374 604 q 266 515 266 562 q 288 470 266 484 q 357 445 311 456 l 490 412 q 655 340 603 385 q 708 208 708 294 q 623 39 708 92 q 351 -14 538 -14 m 400 -285 q 336 -258 363 -285 q 309 -194 309 -231 q 336 -130 309 -156 q 400 -103 363 -103 q 465 -130 438 -103 q 491 -194 491 -156 q 465 -258 491 -231 q 400 -285 438 -285 z "},"ß":{"ha":814,"x_min":46,"x_max":789,"o":"m 555 -14 q 459 -8 501 -14 q 384 7 417 -3 l 400 137 q 488 121 450 127 q 555 115 526 115 q 618 135 595 115 q 640 191 640 155 q 615 273 640 241 q 557 332 591 305 q 503 381 530 355 q 459 440 477 406 q 442 522 442 473 q 459 605 442 570 q 493 672 476 641 q 531 736 513 702 q 549 821 549 771 q 524 880 549 859 q 453 902 499 901 q 336 858 377 902 q 294 732 294 813 l 294 0 l 151 0 l 151 726 q 231 951 151 871 q 457 1031 311 1031 q 635 976 572 1031 q 698 821 698 921 q 687 742 698 773 q 661 688 677 711 q 629 642 645 665 q 604 592 616 617 q 591 529 591 568 q 613 467 591 496 q 665 406 635 438 q 723 348 694 379 q 770 280 751 317 q 789 194 789 242 q 728 41 789 95 q 555 -14 667 -14 m 46 437 l 46 556 l 250 556 l 250 437 l 46 437 z "},"ſ":{"ha":814,"x_min":46,"x_max":789,"o":"m 313 0 l 313 658 q 633 1031 313 1031 q 789 1010 715 1031 l 761 886 q 629 902 684 902 q 457 665 457 902 l 457 0 l 313 0 m 46 437 l 46 556 l 412 556 l 412 437 l 46 437 z "},"t":{"ha":814,"x_min":47,"x_max":726,"o":"m 537 -14 q 301 54 374 -14 q 228 271 228 122 l 228 393 l 372 393 l 372 278 q 413 154 372 193 q 551 115 455 115 q 623 119 585 115 q 709 129 661 123 l 726 3 q 633 -9 678 -5 q 537 -14 588 -14 m 228 339 l 228 936 l 372 936 l 372 339 l 228 339 m 47 593 l 47 719 l 699 719 l 699 593 l 47 593 z "},"ŧ":{"ha":814,"x_min":47,"x_max":726,"o":"m 47 336 l 47 454 l 699 454 l 699 336 l 47 336 m 537 -14 q 301 54 374 -14 q 228 271 228 122 l 228 393 l 372 393 l 372 278 q 413 154 372 193 q 551 115 455 115 q 623 119 585 115 q 709 129 661 123 l 726 3 q 633 -9 678 -5 q 537 -14 588 -14 m 228 339 l 228 936 l 372 936 l 372 339 l 228 339 m 47 593 l 47 719 l 699 719 l 699 593 l 47 593 z "},"ť":{"ha":814,"x_min":47,"x_max":726,"o":"m 483 833 l 517 1090 l 661 1090 l 600 833 l 483 833 m 537 -14 q 301 54 374 -14 q 228 271 228 122 l 228 393 l 372 393 l 372 278 q 413 154 372 193 q 551 115 455 115 q 623 119 585 115 q 709 129 661 123 l 726 3 q 633 -9 678 -5 q 537 -14 588 -14 m 228 339 l 228 936 l 372 936 l 372 339 l 228 339 m 47 593 l 47 719 l 699 719 l 699 593 l 47 593 z "},"ţ":{"ha":814,"x_min":47,"x_max":726,"o":"m 537 -14 q 301 54 374 -14 q 228 271 228 122 l 228 393 l 372 393 l 372 278 q 413 154 372 193 q 551 115 455 115 q 623 119 585 115 q 709 129 661 123 l 726 3 q 633 -9 678 -5 q 537 -14 588 -14 m 228 339 l 228 936 l 372 936 l 372 339 l 228 339 m 47 593 l 47 719 l 699 719 l 699 593 l 47 593 m 342 -326 l 342 -224 q 438 -212 406 -224 q 469 -175 469 -199 q 442 -140 469 -151 q 359 -129 415 -129 l 406 4 l 498 -3 l 481 -68 q 569 -108 540 -80 q 598 -181 598 -136 q 534 -289 598 -253 q 342 -326 471 -326 z "},"ț":{"ha":814,"x_min":47,"x_max":726,"o":"m 537 -14 q 301 54 374 -14 q 228 271 228 122 l 228 393 l 372 393 l 372 278 q 413 154 372 193 q 551 115 455 115 q 623 119 585 115 q 709 129 661 123 l 726 3 q 633 -9 678 -5 q 537 -14 588 -14 m 228 339 l 228 936 l 372 936 l 372 339 l 228 339 m 47 593 l 47 719 l 699 719 l 699 593 l 47 593 z "},"ʧ":{"ha":814,"x_min":7,"x_max":837,"o":"m 347 -14 q 184 35 235 -14 q 133 190 133 83 l 133 339 l 277 339 l 277 197 q 297 135 277 154 q 361 115 317 115 q 387 117 373 115 q 418 122 401 119 l 434 -4 q 392 -11 412 -9 q 347 -14 371 -14 m 133 285 l 133 936 l 277 936 l 277 285 l 133 285 m 7 601 l 7 719 l 597 719 l 597 601 l 7 601 m 517 244 l 517 719 q 573 912 517 848 q 742 977 629 977 q 791 974 766 977 q 837 966 816 972 l 822 842 q 765 848 795 848 q 688 816 715 848 q 661 726 661 784 l 661 244 l 517 244 m 263 -323 l 256 -196 l 336 -188 q 474 -137 431 -178 q 517 -12 517 -95 l 517 260 l 661 260 l 661 9 q 581 -229 661 -151 q 323 -319 500 -307 l 263 -323 z "},"u":{"ha":814,"x_min":99,"x_max":779,"o":"m 336 -14 q 161 54 223 -14 q 99 244 99 121 l 99 719 l 243 719 l 243 244 q 278 149 243 182 q 377 115 313 115 q 496 165 456 115 q 536 332 536 215 l 572 138 l 525 138 q 458 26 508 65 q 336 -14 409 -14 m 548 -7 l 536 165 l 536 292 l 680 292 l 680 130 l 779 115 l 779 0 l 548 -7 m 536 203 l 536 719 l 680 719 l 680 244 l 536 203 z "},"ú":{"ha":814,"x_min":99,"x_max":779,"o":"m 336 -14 q 161 54 223 -14 q 99 244 99 121 l 99 719 l 243 719 l 243 244 q 278 149 243 182 q 377 115 313 115 q 496 165 456 115 q 536 332 536 215 l 572 138 l 525 138 q 458 26 508 65 q 336 -14 409 -14 m 548 -7 l 536 165 l 536 292 l 680 292 l 680 130 l 779 115 l 779 0 l 548 -7 m 536 203 l 536 719 l 680 719 l 680 244 l 536 203 m 325 846 l 440 1104 l 584 1104 l 455 846 l 325 846 z "},"ŭ":{"ha":814,"x_min":99,"x_max":779,"o":"m 336 -14 q 161 54 223 -14 q 99 244 99 121 l 99 719 l 243 719 l 243 244 q 278 149 243 182 q 377 115 313 115 q 496 165 456 115 q 536 332 536 215 l 572 138 l 525 138 q 458 26 508 65 q 336 -14 409 -14 m 548 -7 l 536 165 l 536 292 l 680 292 l 680 130 l 779 115 l 779 0 l 548 -7 m 536 203 l 536 719 l 680 719 l 680 244 l 536 203 m 393 840 q 219 897 281 840 q 157 1058 157 954 l 157 1087 l 275 1087 l 275 1058 q 306 965 275 998 q 393 932 336 932 q 481 965 450 932 q 511 1058 511 998 l 511 1087 l 630 1087 l 630 1058 q 568 897 630 954 q 393 840 507 840 z "},"û":{"ha":814,"x_min":99,"x_max":779,"o":"m 336 -14 q 161 54 223 -14 q 99 244 99 121 l 99 719 l 243 719 l 243 244 q 278 149 243 182 q 377 115 313 115 q 496 165 456 115 q 536 332 536 215 l 572 138 l 525 138 q 458 26 508 65 q 336 -14 409 -14 m 548 -7 l 536 165 l 536 292 l 680 292 l 680 130 l 779 115 l 779 0 l 548 -7 m 536 203 l 536 719 l 680 719 l 680 244 l 536 203 m 172 846 l 335 1104 l 452 1104 l 614 846 l 471 846 l 387 1013 l 400 1013 l 316 846 l 172 846 z "},"ü":{"ha":814,"x_min":99,"x_max":779,"o":"m 336 -14 q 161 54 223 -14 q 99 244 99 121 l 99 719 l 243 719 l 243 244 q 278 149 243 182 q 377 115 313 115 q 496 165 456 115 q 536 332 536 215 l 572 138 l 525 138 q 458 26 508 65 q 336 -14 409 -14 m 548 -7 l 536 165 l 536 292 l 680 292 l 680 130 l 779 115 l 779 0 l 548 -7 m 536 203 l 536 719 l 680 719 l 680 244 l 536 203 m 537 840 q 473 866 500 840 q 446 930 446 893 q 473 995 446 968 q 537 1021 500 1021 q 602 995 575 1021 q 628 930 628 968 q 602 866 628 893 q 537 840 575 840 m 252 840 q 188 866 215 840 q 161 930 161 893 q 188 995 161 968 q 252 1021 215 1021 q 317 995 290 1021 q 343 930 343 968 q 317 866 343 893 q 252 840 290 840 z "},"ụ":{"ha":814,"x_min":99,"x_max":779,"o":"m 336 -14 q 161 54 223 -14 q 99 244 99 121 l 99 719 l 243 719 l 243 244 q 278 149 243 182 q 377 115 313 115 q 496 165 456 115 q 536 332 536 215 l 572 138 l 525 138 q 458 26 508 65 q 336 -14 409 -14 m 548 -7 l 536 165 l 536 292 l 680 292 l 680 130 l 779 115 l 779 0 l 548 -7 m 536 203 l 536 719 l 680 719 l 680 244 l 536 203 m 380 -285 q 316 -258 342 -285 q 289 -194 289 -231 q 316 -130 289 -156 q 380 -103 342 -103 q 444 -130 418 -103 q 471 -194 471 -156 q 444 -258 471 -231 q 380 -285 418 -285 z "},"ù":{"ha":814,"x_min":99,"x_max":779,"o":"m 336 -14 q 161 54 223 -14 q 99 244 99 121 l 99 719 l 243 719 l 243 244 q 278 149 243 182 q 377 115 313 115 q 496 165 456 115 q 536 332 536 215 l 572 138 l 525 138 q 458 26 508 65 q 336 -14 409 -14 m 548 -7 l 536 165 l 536 292 l 680 292 l 680 130 l 779 115 l 779 0 l 548 -7 m 536 203 l 536 719 l 680 719 l 680 244 l 536 203 m 342 846 l 213 1104 l 357 1104 l 472 846 l 342 846 z "},"ủ":{"ha":814,"x_min":99,"x_max":779,"o":"m 336 -14 q 161 54 223 -14 q 99 244 99 121 l 99 719 l 243 719 l 243 244 q 278 149 243 182 q 377 115 313 115 q 496 165 456 115 q 536 332 536 215 l 572 138 l 525 138 q 458 26 508 65 q 336 -14 409 -14 m 548 -7 l 536 165 l 536 292 l 680 292 l 680 130 l 779 115 l 779 0 l 548 -7 m 536 203 l 536 719 l 680 719 l 680 244 l 536 203 m 340 846 l 340 871 q 351 916 340 897 q 377 949 362 935 q 402 977 391 963 q 413 1007 413 990 q 401 1035 413 1025 q 371 1045 390 1045 l 385 1147 q 487 1112 449 1147 q 526 1017 526 1076 q 513 964 526 984 q 486 929 501 944 q 458 896 470 913 q 446 852 446 879 l 446 846 l 340 846 m 287 1016 l 241 1097 q 302 1134 262 1120 q 385 1147 341 1147 l 371 1045 q 287 1016 321 1045 z "},"ư":{"ha":814,"x_min":99,"x_max":833,"o":"m 570 607 l 536 719 l 564 726 q 655 785 627 741 q 684 911 684 829 l 833 911 q 777 715 833 786 q 597 614 721 645 l 570 607 m 336 -14 q 161 54 223 -14 q 99 244 99 121 l 99 719 l 243 719 l 243 244 q 278 149 243 182 q 377 115 313 115 q 496 165 456 115 q 536 332 536 215 l 572 138 l 525 138 q 458 26 508 65 q 336 -14 409 -14 m 548 -7 l 536 165 l 536 292 l 680 292 l 680 130 l 779 115 l 779 0 l 548 -7 m 536 203 l 536 719 l 680 719 l 680 244 l 536 203 z "},"ứ":{"ha":814,"x_min":99,"x_max":833,"o":"m 570 607 l 536 719 l 564 726 q 655 785 627 741 q 684 911 684 829 l 833 911 q 777 715 833 786 q 597 614 721 645 l 570 607 m 336 -14 q 161 54 223 -14 q 99 244 99 121 l 99 719 l 243 719 l 243 244 q 278 149 243 182 q 377 115 313 115 q 496 165 456 115 q 536 332 536 215 l 572 138 l 525 138 q 458 26 508 65 q 336 -14 409 -14 m 548 -7 l 536 165 l 536 292 l 680 292 l 680 130 l 779 115 l 779 0 l 548 -7 m 536 203 l 536 719 l 680 719 l 680 244 l 536 203 m 325 846 l 440 1104 l 584 1104 l 455 846 l 325 846 z "},"ự":{"ha":814,"x_min":99,"x_max":833,"o":"m 570 607 l 536 719 l 564 726 q 655 785 627 741 q 684 911 684 829 l 833 911 q 777 715 833 786 q 597 614 721 645 l 570 607 m 336 -14 q 161 54 223 -14 q 99 244 99 121 l 99 719 l 243 719 l 243 244 q 278 149 243 182 q 377 115 313 115 q 496 165 456 115 q 536 332 536 215 l 572 138 l 525 138 q 458 26 508 65 q 336 -14 409 -14 m 548 -7 l 536 165 l 536 292 l 680 292 l 680 130 l 779 115 l 779 0 l 548 -7 m 536 203 l 536 719 l 680 719 l 680 244 l 536 203 m 380 -285 q 316 -258 342 -285 q 289 -194 289 -231 q 316 -130 289 -156 q 380 -103 342 -103 q 444 -130 418 -103 q 471 -194 471 -156 q 444 -258 471 -231 q 380 -285 418 -285 z "},"ừ":{"ha":814,"x_min":99,"x_max":833,"o":"m 570 607 l 536 719 l 564 726 q 655 785 627 741 q 684 911 684 829 l 833 911 q 777 715 833 786 q 597 614 721 645 l 570 607 m 336 -14 q 161 54 223 -14 q 99 244 99 121 l 99 719 l 243 719 l 243 244 q 278 149 243 182 q 377 115 313 115 q 496 165 456 115 q 536 332 536 215 l 572 138 l 525 138 q 458 26 508 65 q 336 -14 409 -14 m 548 -7 l 536 165 l 536 292 l 680 292 l 680 130 l 779 115 l 779 0 l 548 -7 m 536 203 l 536 719 l 680 719 l 680 244 l 536 203 m 342 846 l 213 1104 l 357 1104 l 472 846 l 342 846 z "},"ử":{"ha":814,"x_min":99,"x_max":833,"o":"m 570 607 l 536 719 l 564 726 q 655 785 627 741 q 684 911 684 829 l 833 911 q 777 715 833 786 q 597 614 721 645 l 570 607 m 336 -14 q 161 54 223 -14 q 99 244 99 121 l 99 719 l 243 719 l 243 244 q 278 149 243 182 q 377 115 313 115 q 496 165 456 115 q 536 332 536 215 l 572 138 l 525 138 q 458 26 508 65 q 336 -14 409 -14 m 548 -7 l 536 165 l 536 292 l 680 292 l 680 130 l 779 115 l 779 0 l 548 -7 m 536 203 l 536 719 l 680 719 l 680 244 l 536 203 m 340 846 l 340 871 q 351 916 340 897 q 377 949 362 935 q 402 977 391 963 q 413 1007 413 990 q 401 1035 413 1025 q 371 1045 390 1045 l 385 1147 q 487 1112 449 1147 q 526 1017 526 1076 q 513 964 526 984 q 486 929 501 944 q 458 896 470 913 q 446 852 446 879 l 446 846 l 340 846 m 287 1016 l 241 1097 q 302 1134 262 1120 q 385 1147 341 1147 l 371 1045 q 287 1016 321 1045 z "},"ữ":{"ha":814,"x_min":99,"x_max":833,"o":"m 570 607 l 536 719 l 564 726 q 655 785 627 741 q 684 911 684 829 l 833 911 q 777 715 833 786 q 597 614 721 645 l 570 607 m 336 -14 q 161 54 223 -14 q 99 244 99 121 l 99 719 l 243 719 l 243 244 q 278 149 243 182 q 377 115 313 115 q 496 165 456 115 q 536 332 536 215 l 572 138 l 525 138 q 458 26 508 65 q 336 -14 409 -14 m 548 -7 l 536 165 l 536 292 l 680 292 l 680 130 l 779 115 l 779 0 l 548 -7 m 536 203 l 536 719 l 680 719 l 680 244 l 536 203 m 156 852 l 156 879 q 298 1048 156 1048 q 349 1040 326 1048 q 399 1019 373 1031 q 457 991 433 1002 q 498 981 481 981 q 534 1024 534 981 l 534 1085 l 651 1085 l 651 1031 q 619 909 651 949 q 524 868 587 868 q 477 876 505 868 q 413 902 449 884 q 368 925 391 913 q 324 936 346 936 q 287 924 299 936 q 274 886 274 911 l 274 852 l 156 852 z "},"ű":{"ha":814,"x_min":99,"x_max":779,"o":"m 336 -14 q 161 54 223 -14 q 99 244 99 121 l 99 719 l 243 719 l 243 244 q 278 149 243 182 q 377 115 313 115 q 496 165 456 115 q 536 332 536 215 l 572 138 l 525 138 q 458 26 508 65 q 336 -14 409 -14 m 548 -7 l 536 165 l 536 292 l 680 292 l 680 130 l 779 115 l 779 0 l 548 -7 m 536 203 l 536 719 l 680 719 l 680 244 l 536 203 m 440 846 l 542 1104 l 692 1104 l 577 846 l 440 846 m 182 846 l 284 1104 l 435 1104 l 319 846 l 182 846 z "},"ū":{"ha":814,"x_min":99,"x_max":779,"o":"m 336 -14 q 161 54 223 -14 q 99 244 99 121 l 99 719 l 243 719 l 243 244 q 278 149 243 182 q 377 115 313 115 q 496 165 456 115 q 536 332 536 215 l 572 138 l 525 138 q 458 26 508 65 q 336 -14 409 -14 m 548 -7 l 536 165 l 536 292 l 680 292 l 680 130 l 779 115 l 779 0 l 548 -7 m 536 203 l 536 719 l 680 719 l 680 244 l 536 203 m 102 846 l 102 974 l 685 974 l 685 846 l 102 846 z "},"ų":{"ha":814,"x_min":99,"x_max":779,"o":"m 685 -288 q 565 -250 607 -288 q 522 -144 522 -212 q 542 -66 522 -98 q 600 -24 562 -35 l 600 20 l 762 22 l 776 0 q 664 -30 704 0 q 624 -114 624 -60 q 645 -158 624 -142 q 703 -174 665 -174 q 758 -166 726 -174 l 746 -281 q 714 -286 730 -284 q 685 -288 699 -288 m 336 -14 q 161 54 223 -14 q 99 244 99 121 l 99 719 l 243 719 l 243 244 q 278 149 243 182 q 377 115 313 115 q 496 165 456 115 q 536 332 536 215 l 572 138 l 525 138 q 458 26 508 65 q 336 -14 409 -14 m 548 -7 l 536 165 l 536 292 l 680 292 l 680 130 l 779 115 l 779 0 l 548 -7 m 536 203 l 536 719 l 680 719 l 680 244 l 536 203 z "},"ʊ":{"ha":814,"x_min":65,"x_max":749,"o":"m 237 629 l 359 599 q 253 517 291 582 q 214 355 214 453 q 237 228 214 281 q 303 147 260 175 q 407 119 347 119 q 511 147 468 119 q 577 228 554 175 q 600 355 600 281 q 565 519 600 454 q 471 599 531 583 l 593 625 l 593 583 q 708 481 667 555 q 749 304 749 408 q 708 135 749 205 q 591 27 667 64 q 407 -10 515 -10 q 223 27 300 -10 q 106 135 146 64 q 65 304 65 205 q 111 480 65 406 q 237 585 156 554 l 237 629 m 71 718 l 359 718 l 359 599 l 71 599 l 71 718 m 471 718 l 743 718 l 743 599 l 471 599 l 471 718 z "},"ů":{"ha":814,"x_min":99,"x_max":779,"o":"m 336 -14 q 161 54 223 -14 q 99 244 99 121 l 99 719 l 243 719 l 243 244 q 278 149 243 182 q 377 115 313 115 q 496 165 456 115 q 536 332 536 215 l 572 138 l 525 138 q 458 26 508 65 q 336 -14 409 -14 m 548 -7 l 536 165 l 536 292 l 680 292 l 680 130 l 779 115 l 779 0 l 548 -7 m 536 203 l 536 719 l 680 719 l 680 244 l 536 203 m 393 812 q 274 851 317 812 q 232 959 232 889 q 274 1067 232 1029 q 393 1105 317 1105 q 512 1067 470 1105 q 555 959 555 1029 q 512 851 555 889 q 393 812 470 812 m 393 891 q 458 959 458 891 q 393 1027 458 1027 q 328 959 328 1027 q 393 891 328 891 z "},"ũ":{"ha":814,"x_min":99,"x_max":779,"o":"m 336 -14 q 161 54 223 -14 q 99 244 99 121 l 99 719 l 243 719 l 243 244 q 278 149 243 182 q 377 115 313 115 q 496 165 456 115 q 536 332 536 215 l 572 138 l 525 138 q 458 26 508 65 q 336 -14 409 -14 m 548 -7 l 536 165 l 536 292 l 680 292 l 680 130 l 779 115 l 779 0 l 548 -7 m 536 203 l 536 719 l 680 719 l 680 244 l 536 203 m 156 852 l 156 879 q 298 1048 156 1048 q 349 1040 326 1048 q 399 1019 373 1031 q 457 991 433 1002 q 498 981 481 981 q 534 1024 534 981 l 534 1085 l 651 1085 l 651 1031 q 619 909 651 949 q 524 868 587 868 q 477 876 505 868 q 413 902 449 884 q 368 925 391 913 q 324 936 346 936 q 287 924 299 936 q 274 886 274 911 l 274 852 l 156 852 z "},"v":{"ha":814,"x_min":54,"x_max":760,"o":"m 311 0 l 54 719 l 208 719 l 401 122 l 413 122 l 606 719 l 760 719 l 503 0 l 311 0 z "},"ʋ":{"ha":814,"x_min":106,"x_max":708,"o":"m 407 -14 q 183 60 260 -14 q 106 278 107 134 l 106 719 l 250 719 l 250 278 q 407 115 250 115 q 564 278 564 115 l 564 495 q 547 569 564 547 q 488 590 530 590 l 442 590 l 442 719 l 515 719 q 665 676 622 719 q 708 529 707 634 l 708 278 q 632 60 708 134 q 407 -14 555 -14 z "},"ʌ":{"ha":814,"x_min":64,"x_max":749,"o":"m 64 0 l 309 719 l 505 719 l 749 0 l 600 0 l 413 602 l 401 602 l 214 0 l 64 0 z "},"w":{"ha":814,"x_min":47,"x_max":766,"o":"m 488 0 l 404 571 l 393 571 l 334 719 l 466 719 l 551 109 l 563 109 l 624 719 l 766 719 l 665 0 l 488 0 m 129 0 l 47 719 l 183 719 l 237 109 l 250 109 l 334 719 l 466 719 l 406 571 l 396 571 l 312 0 l 129 0 z "},"ẃ":{"ha":814,"x_min":47,"x_max":766,"o":"m 488 0 l 404 571 l 393 571 l 334 719 l 466 719 l 551 109 l 563 109 l 624 719 l 766 719 l 665 0 l 488 0 m 129 0 l 47 719 l 183 719 l 237 109 l 250 109 l 334 719 l 466 719 l 406 571 l 396 571 l 312 0 l 129 0 m 332 846 l 447 1104 l 591 1104 l 462 846 l 332 846 z "},"ŵ":{"ha":814,"x_min":47,"x_max":766,"o":"m 488 0 l 404 571 l 393 571 l 334 719 l 466 719 l 551 109 l 563 109 l 624 719 l 766 719 l 665 0 l 488 0 m 129 0 l 47 719 l 183 719 l 237 109 l 250 109 l 334 719 l 466 719 l 406 571 l 396 571 l 312 0 l 129 0 m 179 846 l 342 1104 l 458 1104 l 621 846 l 477 846 l 393 1013 l 407 1013 l 323 846 l 179 846 z "},"ẅ":{"ha":814,"x_min":47,"x_max":766,"o":"m 488 0 l 404 571 l 393 571 l 334 719 l 466 719 l 551 109 l 563 109 l 624 719 l 766 719 l 665 0 l 488 0 m 129 0 l 47 719 l 183 719 l 237 109 l 250 109 l 334 719 l 466 719 l 406 571 l 396 571 l 312 0 l 129 0 m 544 840 q 480 866 507 840 q 453 930 453 893 q 480 995 453 968 q 544 1021 507 1021 q 608 995 582 1021 q 635 930 635 968 q 608 866 635 893 q 544 840 582 840 m 259 840 q 195 866 222 840 q 168 930 168 893 q 195 995 168 968 q 259 1021 222 1021 q 323 995 297 1021 q 350 930 350 968 q 323 866 350 893 q 259 840 297 840 z "},"ẁ":{"ha":814,"x_min":47,"x_max":766,"o":"m 488 0 l 404 571 l 393 571 l 334 719 l 466 719 l 551 109 l 563 109 l 624 719 l 766 719 l 665 0 l 488 0 m 129 0 l 47 719 l 183 719 l 237 109 l 250 109 l 334 719 l 466 719 l 406 571 l 396 571 l 312 0 l 129 0 m 349 846 l 220 1104 l 363 1104 l 479 846 l 349 846 z "},"x":{"ha":814,"x_min":72,"x_max":742,"o":"m 72 0 l 358 396 l 579 719 l 742 719 l 445 311 l 235 0 l 72 0 m 579 0 l 361 311 l 72 719 l 235 719 l 456 396 l 742 0 l 579 0 z "},"y":{"ha":814,"x_min":37,"x_max":756,"o":"m 51 -326 l 44 -197 l 157 -183 q 278 -144 228 -174 q 365 -56 329 -115 q 428 98 401 3 l 607 719 l 756 719 l 549 64 q 457 -144 508 -65 q 338 -262 407 -222 q 173 -312 269 -301 l 51 -326 m 323 0 l 37 719 l 186 719 l 421 109 l 443 109 l 443 0 l 323 0 z "},"ý":{"ha":814,"x_min":37,"x_max":756,"o":"m 51 -326 l 44 -197 l 157 -183 q 278 -144 228 -174 q 365 -56 329 -115 q 428 98 401 3 l 607 719 l 756 719 l 549 64 q 457 -144 508 -65 q 338 -262 407 -222 q 173 -312 269 -301 l 51 -326 m 323 0 l 37 719 l 186 719 l 421 109 l 443 109 l 443 0 l 323 0 m 349 846 l 464 1104 l 608 1104 l 479 846 l 349 846 z "},"ŷ":{"ha":814,"x_min":37,"x_max":756,"o":"m 51 -326 l 44 -197 l 157 -183 q 278 -144 228 -174 q 365 -56 329 -115 q 428 98 401 3 l 607 719 l 756 719 l 549 64 q 457 -144 508 -65 q 338 -262 407 -222 q 173 -312 269 -301 l 51 -326 m 323 0 l 37 719 l 186 719 l 421 109 l 443 109 l 443 0 l 323 0 m 196 846 l 359 1104 l 475 1104 l 638 846 l 494 846 l 410 1013 l 424 1013 l 340 846 l 196 846 z "},"ÿ":{"ha":814,"x_min":37,"x_max":756,"o":"m 51 -326 l 44 -197 l 157 -183 q 278 -144 228 -174 q 365 -56 329 -115 q 428 98 401 3 l 607 719 l 756 719 l 549 64 q 457 -144 508 -65 q 338 -262 407 -222 q 173 -312 269 -301 l 51 -326 m 323 0 l 37 719 l 186 719 l 421 109 l 443 109 l 443 0 l 323 0 m 561 840 q 497 866 524 840 q 470 930 470 893 q 497 995 470 968 q 561 1021 524 1021 q 625 995 599 1021 q 652 930 652 968 q 625 866 652 893 q 561 840 599 840 m 276 840 q 212 866 239 840 q 185 930 185 893 q 212 995 185 968 q 276 1021 239 1021 q 340 995 314 1021 q 367 930 367 968 q 340 866 367 893 q 276 840 314 840 z "},"ỵ":{"ha":814,"x_min":37,"x_max":756,"o":"m 51 -326 l 44 -197 l 157 -183 q 278 -144 228 -174 q 365 -56 329 -115 q 428 98 401 3 l 607 719 l 756 719 l 549 64 q 457 -144 508 -65 q 338 -262 407 -222 q 173 -312 269 -301 l 51 -326 m 323 0 l 37 719 l 186 719 l 421 109 l 443 109 l 443 0 l 323 0 m 641 -285 q 577 -258 604 -285 q 550 -194 550 -231 q 577 -130 550 -156 q 641 -103 604 -103 q 705 -130 679 -103 q 732 -194 732 -156 q 705 -258 732 -231 q 641 -285 679 -285 z "},"ỳ":{"ha":814,"x_min":37,"x_max":756,"o":"m 51 -326 l 44 -197 l 157 -183 q 278 -144 228 -174 q 365 -56 329 -115 q 428 98 401 3 l 607 719 l 756 719 l 549 64 q 457 -144 508 -65 q 338 -262 407 -222 q 173 -312 269 -301 l 51 -326 m 323 0 l 37 719 l 186 719 l 421 109 l 443 109 l 443 0 l 323 0 m 366 846 l 237 1104 l 380 1104 l 496 846 l 366 846 z "},"ỷ":{"ha":814,"x_min":37,"x_max":756,"o":"m 51 -326 l 44 -197 l 157 -183 q 278 -144 228 -174 q 365 -56 329 -115 q 428 98 401 3 l 607 719 l 756 719 l 549 64 q 457 -144 508 -65 q 338 -262 407 -222 q 173 -312 269 -301 l 51 -326 m 323 0 l 37 719 l 186 719 l 421 109 l 443 109 l 443 0 l 323 0 m 364 846 l 364 871 q 375 916 364 897 q 400 949 386 935 q 426 977 415 963 q 437 1007 437 990 q 425 1035 437 1025 q 395 1045 414 1045 l 409 1147 q 511 1112 473 1147 q 549 1017 549 1076 q 537 964 549 984 q 509 929 525 944 q 481 896 494 913 q 469 852 469 879 l 469 846 l 364 846 m 311 1016 l 265 1097 q 326 1134 286 1120 q 409 1147 365 1147 l 395 1045 q 311 1016 345 1045 z "},"ȳ":{"ha":814,"x_min":37,"x_max":756,"o":"m 51 -326 l 44 -197 l 157 -183 q 278 -144 228 -174 q 365 -56 329 -115 q 428 98 401 3 l 607 719 l 756 719 l 549 64 q 457 -144 508 -65 q 338 -262 407 -222 q 173 -312 269 -301 l 51 -326 m 323 0 l 37 719 l 186 719 l 421 109 l 443 109 l 443 0 l 323 0 m 125 846 l 125 974 l 709 974 l 709 846 l 125 846 z "},"ỹ":{"ha":814,"x_min":37,"x_max":756,"o":"m 51 -326 l 44 -197 l 157 -183 q 278 -144 228 -174 q 365 -56 329 -115 q 428 98 401 3 l 607 719 l 756 719 l 549 64 q 457 -144 508 -65 q 338 -262 407 -222 q 173 -312 269 -301 l 51 -326 m 323 0 l 37 719 l 186 719 l 421 109 l 443 109 l 443 0 l 323 0 m 180 852 l 180 879 q 322 1048 180 1048 q 373 1040 349 1048 q 422 1019 397 1031 q 480 991 456 1002 q 522 981 505 981 q 558 1024 558 981 l 558 1085 l 675 1085 l 675 1031 q 643 909 675 949 q 547 868 611 868 q 500 876 528 868 q 437 902 473 884 q 392 925 414 913 q 348 936 370 936 q 310 924 323 936 q 298 886 298 911 l 298 852 l 180 852 z "},"z":{"ha":814,"x_min":111,"x_max":703,"o":"m 210 45 l 111 127 l 590 671 l 689 591 l 210 45 m 111 0 l 111 127 l 703 127 l 703 0 l 111 0 m 111 591 l 111 719 l 689 719 l 689 591 l 111 591 z "},"ź":{"ha":814,"x_min":111,"x_max":703,"o":"m 210 45 l 111 127 l 590 671 l 689 591 l 210 45 m 111 0 l 111 127 l 703 127 l 703 0 l 111 0 m 111 591 l 111 719 l 689 719 l 689 591 l 111 591 m 338 846 l 454 1104 l 597 1104 l 469 846 l 338 846 z "},"ž":{"ha":814,"x_min":111,"x_max":703,"o":"m 210 45 l 111 127 l 590 671 l 689 591 l 210 45 m 111 0 l 111 127 l 703 127 l 703 0 l 111 0 m 111 591 l 111 719 l 689 719 l 689 591 l 111 591 m 349 821 l 186 1078 l 330 1078 l 414 911 l 400 911 l 484 1078 l 628 1078 l 465 821 l 349 821 z "},"ż":{"ha":814,"x_min":111,"x_max":703,"o":"m 210 45 l 111 127 l 590 671 l 689 591 l 210 45 m 111 0 l 111 127 l 703 127 l 703 0 l 111 0 m 111 591 l 111 719 l 689 719 l 689 591 l 111 591 m 406 840 q 341 866 368 840 q 315 930 315 893 q 341 995 315 968 q 406 1021 368 1021 q 470 995 444 1021 q 496 930 496 968 q 470 866 496 893 q 406 840 444 840 z "}}}
